G04*
G04 #@! TF.GenerationSoftware,Altium Limited,Altium Designer,22.11.1 (43)*
G04*
G04 Layer_Physical_Order=1*
G04 Layer_Color=255*
%FSTAX24Y24*%
%MOIN*%
G70*
G04*
G04 #@! TF.SameCoordinates,C1124A1A-70A5-44B8-A6FF-2808BC57BE08*
G04*
G04*
G04 #@! TF.FilePolarity,Positive*
G04*
G01*
G75*
%ADD10C,0.0098*%
%ADD17O,0.0571X0.0118*%
%ADD18O,0.0118X0.0571*%
%ADD19R,0.0512X0.0315*%
%ADD20R,0.0449X0.0472*%
%ADD21R,0.0394X0.0315*%
%ADD22R,0.0449X0.0472*%
%ADD23R,0.0472X0.0449*%
%ADD24R,0.0472X0.0472*%
%ADD25R,0.0846X0.0354*%
%ADD26R,0.0846X0.1280*%
%ADD27R,0.0591X0.0394*%
%ADD28R,0.1441X0.1024*%
%ADD29R,0.1394X0.1024*%
%ADD30R,0.0472X0.0449*%
%ADD50C,0.0236*%
%ADD51C,0.0157*%
%ADD52C,0.0600*%
%ADD53C,0.0709*%
%ADD54C,0.0512*%
%ADD55C,0.0394*%
%ADD56C,0.0787*%
%ADD57C,0.0185*%
%ADD58C,0.0177*%
%ADD59C,0.0236*%
G36*
X008533Y008474D02*
X008531Y00847D01*
X008529Y008466D01*
X008528Y008461D01*
X008526Y008455D01*
X008525Y008448D01*
X008523Y008432D01*
X008523Y008423D01*
X008523Y008413D01*
X008425D01*
X008424Y008423D01*
X008423Y008448D01*
X008421Y008455D01*
X00842Y008461D01*
X008418Y008466D01*
X008416Y00847D01*
X008414Y008474D01*
X008412Y008477D01*
X008536D01*
X008533Y008474D01*
D02*
G37*
G36*
X005653Y008367D02*
X005645Y008364D01*
X005637Y008359D01*
X005631Y008352D01*
X005626Y008343D01*
X005621Y008332D01*
X005618Y008319D01*
X005615Y008304D01*
X005614Y008287D01*
X005613Y008268D01*
X005515D01*
X005514Y008287D01*
X005513Y008304D01*
X00551Y008319D01*
X005507Y008332D01*
X005502Y008343D01*
X005497Y008352D01*
X005491Y008359D01*
X005483Y008364D01*
X005475Y008367D01*
X005466Y008368D01*
X005662D01*
X005653Y008367D01*
D02*
G37*
G36*
X008563Y008316D02*
X008554Y008313D01*
X008547Y008308D01*
X008541Y008301D01*
X008535Y008292D01*
X008531Y008281D01*
X008527Y008269D01*
X008525Y008254D01*
X008523Y008237D01*
X008523Y008218D01*
X008425D01*
X008424Y008237D01*
X008423Y008254D01*
X00842Y008269D01*
X008417Y008281D01*
X008412Y008292D01*
X008407Y008301D01*
X0084Y008308D01*
X008393Y008313D01*
X008385Y008316D01*
X008375Y008317D01*
X008572D01*
X008563Y008316D01*
D02*
G37*
G36*
X008856Y007237D02*
X008855Y007246D01*
X008852Y007255D01*
X008847Y007262D01*
X00884Y007269D01*
X008831Y007274D01*
X00882Y007278D01*
X008807Y007282D01*
X008792Y007284D01*
X008775Y007286D01*
X008757Y007286D01*
Y007385D01*
X008775Y007385D01*
X008792Y007387D01*
X008807Y007389D01*
X00882Y007393D01*
X008831Y007397D01*
X00884Y007402D01*
X008847Y007409D01*
X008852Y007416D01*
X008855Y007425D01*
X008856Y007434D01*
Y007237D01*
D02*
G37*
G36*
X002684Y007563D02*
X002803Y007461D01*
X002838Y007436D01*
X002872Y007415D01*
X002903Y0074D01*
X002933Y007388D01*
X002961Y007381D01*
X002987Y007379D01*
Y007281D01*
X002961Y007279D01*
X002933Y007272D01*
X002903Y00726D01*
X002872Y007245D01*
X002838Y007224D01*
X002803Y007199D01*
X002765Y00717D01*
X002684Y007097D01*
X002641Y007054D01*
Y007606D01*
X002684Y007563D01*
D02*
G37*
G36*
X007386Y00684D02*
X007389Y006831D01*
X007394Y006824D01*
X007401Y006818D01*
X00741Y006812D01*
X00742Y006808D01*
X007433Y006804D01*
X007448Y006802D01*
X007465Y0068D01*
X007483Y0068D01*
Y006702D01*
X007385Y006703D01*
Y006849D01*
X007386Y00684D01*
D02*
G37*
G36*
X006915Y006703D02*
X006914Y006702D01*
X006911Y006702D01*
X006906Y006702D01*
X006817Y006701D01*
Y006799D01*
X006835Y0068D01*
X006852Y006801D01*
X006867Y006804D01*
X00688Y006807D01*
X006891Y006812D01*
X0069Y006817D01*
X006907Y006823D01*
X006912Y006831D01*
X006915Y006839D01*
X006916Y006848D01*
X006915Y006703D01*
D02*
G37*
G36*
X007325Y0066D02*
X007437D01*
X007449Y006588D01*
Y006497D01*
X006815D01*
Y006325D01*
X005539D01*
X005525Y006375D01*
X005548Y006388D01*
X005632Y006472D01*
X005692Y006575D01*
X005698Y006599D01*
X006962D01*
X006981Y006603D01*
X007311D01*
X007325Y0066D01*
D02*
G37*
G36*
X006329Y009098D02*
Y00771D01*
X006341Y007652D01*
X006374Y007604D01*
X006594Y007384D01*
X006642Y007351D01*
X0067Y007339D01*
X008128D01*
X008506Y006962D01*
X008486Y006915D01*
X008107D01*
X008045Y006903D01*
X007993Y006868D01*
X007959Y006816D01*
X007946Y006755D01*
X007959Y006693D01*
X007983Y006656D01*
X007959Y006619D01*
X007946Y006558D01*
X007959Y006497D01*
X007983Y00646D01*
X007959Y006423D01*
X007946Y006361D01*
X007959Y0063D01*
X007983Y006263D01*
X007959Y006226D01*
X007946Y006164D01*
X007908Y006132D01*
X007872Y006131D01*
X007751Y006252D01*
Y006256D01*
Y00665D01*
X007739Y006708D01*
X007706Y006756D01*
X007606Y006857D01*
X007557Y00689D01*
X007499Y006901D01*
X007485D01*
Y007249D01*
X006815D01*
Y006901D01*
X005698D01*
X005692Y006925D01*
X005671Y006962D01*
X005635Y007024D01*
X00567Y007059D01*
X005703Y007108D01*
X005715Y007166D01*
Y008267D01*
X005899D01*
Y008913D01*
X005229D01*
Y008267D01*
X005413D01*
Y007228D01*
X005376Y00719D01*
X00533Y007203D01*
X00521D01*
X005095Y007172D01*
X004992Y007112D01*
X004908Y007028D01*
X004848Y006925D01*
X004817Y00681D01*
Y00669D01*
X004848Y006575D01*
X004908Y006472D01*
X004992Y006388D01*
X005095Y006328D01*
X00521Y006297D01*
X00533D01*
X005349Y006302D01*
X005375Y006258D01*
X005174Y006056D01*
X005141Y006008D01*
X005129Y00595D01*
Y005248D01*
X005105Y005242D01*
X005002Y005182D01*
X004918Y005098D01*
X004858Y004995D01*
X004827Y00488D01*
Y00476D01*
X004858Y004645D01*
X004918Y004542D01*
X005002Y004458D01*
X005105Y004398D01*
X00522Y004367D01*
X00534D01*
X005373Y004329D01*
Y003273D01*
X005189D01*
Y002627D01*
X005859D01*
Y003273D01*
X005675D01*
Y004411D01*
X005663Y004468D01*
X00563Y004517D01*
X005624Y004524D01*
X005642Y004542D01*
X005702Y004645D01*
X005733Y00476D01*
Y00488D01*
X005702Y004995D01*
X005642Y005098D01*
X005558Y005182D01*
X005455Y005242D01*
X005431Y005248D01*
Y005888D01*
X005566Y006023D01*
X006815D01*
Y005851D01*
X007186D01*
Y005843D01*
X007198Y005785D01*
X007231Y005737D01*
X007285Y005682D01*
X007284Y005679D01*
X007231Y005626D01*
X007203Y005557D01*
Y005483D01*
X007231Y005414D01*
X007284Y005361D01*
X007353Y005333D01*
X007427D01*
X007496Y005361D01*
X007549Y005414D01*
X007552Y005423D01*
X008056D01*
X008107Y005413D01*
X00856D01*
X008621Y005425D01*
X008673Y00546D01*
X008708Y005512D01*
X00872Y005574D01*
X008708Y005635D01*
X008683Y005672D01*
X008708Y005709D01*
X00872Y005771D01*
X008708Y005832D01*
X008683Y005869D01*
X008708Y005906D01*
X00872Y005967D01*
X008708Y006029D01*
X008683Y006066D01*
X008708Y006103D01*
X00872Y006164D01*
X008708Y006226D01*
X008683Y006263D01*
X008708Y0063D01*
X00872Y006361D01*
X008708Y006423D01*
X008683Y00646D01*
X008708Y006497D01*
X00872Y006558D01*
X008708Y006619D01*
X008683Y006656D01*
X008688Y006664D01*
X00875Y006677D01*
X008769Y006662D01*
Y005023D01*
X008768Y00502D01*
X008764Y005018D01*
X008708Y005043D01*
X008708Y005045D01*
X008683Y005082D01*
X008708Y005119D01*
X00872Y00518D01*
X008708Y005241D01*
X008673Y005294D01*
X008621Y005328D01*
X00856Y005341D01*
X008107D01*
X008056Y005331D01*
X0077D01*
X007642Y005319D01*
X007594Y005286D01*
X007444Y005136D01*
X007411Y005088D01*
X007399Y00503D01*
Y004842D01*
X007262Y004705D01*
X007247Y004691D01*
X007235Y004682D01*
X007234Y004681D01*
X006817D01*
Y004011D01*
X007368D01*
X007392Y003968D01*
X007317Y003846D01*
X007202Y00371D01*
X007168Y003674D01*
X007168Y003674D01*
X007132Y003639D01*
X005702Y002208D01*
X005686Y002193D01*
X005675Y002185D01*
X005234D01*
Y001515D01*
X005406D01*
Y001298D01*
X005323Y001066D01*
X005305Y001025D01*
X005299Y001014D01*
X005272Y000912D01*
Y000808D01*
X005299Y000706D01*
X005351Y000615D01*
X00536Y000607D01*
X005341Y000561D01*
X004999D01*
X00498Y000607D01*
X004989Y000615D01*
X005041Y000706D01*
X005068Y000808D01*
Y000912D01*
X005041Y001014D01*
X004989Y001105D01*
X004915Y001179D01*
X004824Y001231D01*
X004722Y001258D01*
X004618D01*
X004516Y001231D01*
X004425Y001179D01*
X004351Y001105D01*
X004299Y001014D01*
X004272Y000912D01*
Y000808D01*
X004299Y000706D01*
X004351Y000615D01*
X00436Y000607D01*
X004341Y000561D01*
X002592D01*
X00251Y000643D01*
Y00071D01*
X00251Y000712D01*
X002514Y000727D01*
X002521Y000746D01*
X002533Y000769D01*
X00255Y000797D01*
X00257Y000825D01*
X002666Y000937D01*
X002707Y000978D01*
X002712Y000986D01*
X002753Y001028D01*
X002818Y00114D01*
X002852Y001265D01*
Y001395D01*
X002818Y00152D01*
X002753Y001632D01*
X002662Y001724D01*
X00255Y001789D01*
X002492Y001804D01*
Y001856D01*
X00255Y001871D01*
X002662Y001936D01*
X002753Y002028D01*
X002818Y00214D01*
X002852Y002265D01*
Y002395D01*
X002818Y00252D01*
X002753Y002632D01*
X002662Y002724D01*
X00255Y002789D01*
X002492Y002804D01*
Y002856D01*
X00255Y002871D01*
X002662Y002936D01*
X002753Y003028D01*
X002818Y00314D01*
X002852Y003265D01*
Y003395D01*
X002818Y00352D01*
X002753Y003632D01*
X002662Y003724D01*
X00255Y003789D01*
X002492Y003804D01*
Y003856D01*
X00255Y003871D01*
X002662Y003936D01*
X002753Y004028D01*
X002818Y00414D01*
X002852Y004265D01*
Y004395D01*
X002818Y00452D01*
X002753Y004632D01*
X002662Y004724D01*
X00255Y004789D01*
X002492Y004804D01*
Y004856D01*
X00255Y004871D01*
X002662Y004936D01*
X002753Y005028D01*
X002818Y00514D01*
X002852Y005265D01*
Y005395D01*
X002818Y00552D01*
X002753Y005632D01*
X002662Y005724D01*
X00255Y005789D01*
X002492Y005804D01*
Y005856D01*
X00255Y005871D01*
X002662Y005936D01*
X002753Y006028D01*
X002818Y00614D01*
X002852Y006265D01*
Y006395D01*
X002818Y00652D01*
X002753Y006632D01*
X002662Y006724D01*
X00255Y006789D01*
X002492Y006804D01*
Y006856D01*
X00255Y006871D01*
X002662Y006936D01*
X002704Y006978D01*
X002711Y006983D01*
X002753Y007024D01*
X00283Y007093D01*
X002862Y007119D01*
X002893Y00714D01*
X00292Y007157D01*
X002944Y007168D01*
X002963Y007176D01*
X002977Y007179D01*
X00298Y007179D01*
X00367D01*
X003728Y007191D01*
X003776Y007224D01*
X003976Y007424D01*
X004009Y007472D01*
X004021Y00753D01*
Y009068D01*
X004252Y009299D01*
X006128D01*
X006329Y009098D01*
D02*
G37*
G36*
X006916Y006076D02*
X006915Y006085D01*
X006912Y006093D01*
X006907Y006101D01*
X0069Y006107D01*
X006891Y006112D01*
X00688Y006117D01*
X006867Y00612D01*
X006852Y006123D01*
X006835Y006124D01*
X006817Y006125D01*
Y006223D01*
X006835Y006224D01*
X006852Y006225D01*
X006867Y006228D01*
X00688Y006231D01*
X006891Y006236D01*
X0069Y006241D01*
X006907Y006247D01*
X006912Y006255D01*
X006915Y006263D01*
X006916Y006272D01*
Y006076D01*
D02*
G37*
G36*
X00761Y005967D02*
X007591Y005921D01*
X007488D01*
Y005999D01*
X007485Y006013D01*
Y006022D01*
X007535Y006042D01*
X00761Y005967D01*
D02*
G37*
G36*
X007385Y005951D02*
X007386Y005852D01*
X007288D01*
X007287Y005871D01*
X007286Y005888D01*
X007283Y005903D01*
X00728Y005916D01*
X007275Y005927D01*
X00727Y005936D01*
X007264Y005943D01*
X007256Y005948D01*
X007248Y005951D01*
X007239Y005952D01*
X007385Y005951D01*
D02*
G37*
G36*
X007532Y005524D02*
X007522Y005524D01*
X007505Y005523D01*
X007498Y005522D01*
X007492Y005521D01*
X007487Y005519D01*
X007484Y005517D01*
X007481Y005515D01*
X007479Y005512D01*
X007478Y005509D01*
X007411Y005606D01*
X007514Y005623D01*
X007532Y005524D01*
D02*
G37*
G36*
X009614Y004633D02*
X009611Y004632D01*
X009608Y00463D01*
X009604Y004628D01*
X0096Y004625D01*
X009595Y004622D01*
X009585Y004613D01*
X009565Y004594D01*
X00948Y004649D01*
X009487Y004656D01*
X009498Y004669D01*
X009503Y004675D01*
X009507Y004681D01*
X009509Y004686D01*
X009511Y004691D01*
X009513Y004696D01*
X009513Y0047D01*
X009513Y004704D01*
X009614Y004633D01*
D02*
G37*
G36*
X010109Y004621D02*
X010105Y004621D01*
X010101Y00462D01*
X010097Y004618D01*
X010092Y004616D01*
X010087Y004613D01*
X010081Y004609D01*
X010069Y004599D01*
X010062Y004592D01*
X010055Y004586D01*
X009986Y004655D01*
X009992Y004662D01*
X010009Y004681D01*
X010013Y004687D01*
X010016Y004692D01*
X010018Y004697D01*
X01002Y004701D01*
X010021Y004705D01*
X010021Y004709D01*
X010109Y004621D01*
D02*
G37*
G36*
X007432Y004593D02*
X007412Y004572D01*
X00738Y004535D01*
X007369Y004519D01*
X007361Y004504D01*
X007355Y004491D01*
X007352Y004479D01*
X007352Y004469D01*
X007355Y00446D01*
X007361Y004453D01*
X007212Y00458D01*
X00722Y004575D01*
X007229Y004573D01*
X00724Y004573D01*
X007252Y004576D01*
X007265Y004582D01*
X00728Y00459D01*
X007296Y004601D01*
X007313Y004615D01*
X007351Y004651D01*
X007432Y004593D01*
D02*
G37*
G36*
X010539Y004669D02*
X010539Y004666D01*
X010538Y004591D01*
X010538Y004573D01*
X01044Y004571D01*
X010439Y00458D01*
X010438Y004597D01*
X010437Y004605D01*
X010435Y004611D01*
X010433Y004617D01*
X010431Y004621D01*
X010428Y004625D01*
X010425Y004628D01*
X010422Y00463D01*
X010539Y00467D01*
X010539Y004669D01*
D02*
G37*
G36*
X008419Y004531D02*
X008411Y004528D01*
X008403Y004523D01*
X008397Y004516D01*
X008392Y004507D01*
X008387Y004496D01*
X008384Y004483D01*
X008381Y004468D01*
X00838Y004451D01*
X008379Y004432D01*
X008281D01*
X00828Y004451D01*
X008279Y004468D01*
X008276Y004483D01*
X008273Y004496D01*
X008268Y004507D01*
X008263Y004516D01*
X008257Y004523D01*
X008249Y004528D01*
X008241Y004531D01*
X008232Y004532D01*
X008428D01*
X008419Y004531D01*
D02*
G37*
G36*
X007258Y004419D02*
X007251Y004412D01*
X00724Y004399D01*
X007236Y004393D01*
X007232Y004387D01*
X007229Y004382D01*
X007227Y004376D01*
X007226Y004372D01*
X007226Y004367D01*
X007226Y004363D01*
X007124Y004433D01*
X007126Y004434D01*
X00713Y004435D01*
X007133Y004438D01*
X007137Y00444D01*
X007147Y004448D01*
X007159Y004459D01*
X007172Y004472D01*
X007258Y004419D01*
D02*
G37*
G36*
X008379Y004047D02*
X008381Y004022D01*
X008382Y004015D01*
X008384Y004009D01*
X008385Y004004D01*
X008387Y004D01*
X00839Y003996D01*
X008392Y003993D01*
X008268D01*
X00827Y003996D01*
X008273Y004D01*
X008275Y004004D01*
X008276Y004009D01*
X008278Y004015D01*
X008279Y004022D01*
X00828Y004038D01*
X008281Y004047D01*
X008281Y004057D01*
X008379D01*
X008379Y004047D01*
D02*
G37*
G36*
X010147Y003569D02*
X010149Y003544D01*
X01015Y003537D01*
X010152Y003531D01*
X010153Y003526D01*
X010155Y003522D01*
X010158Y003518D01*
X01016Y003515D01*
X010036Y003512D01*
X010039Y003514D01*
X010041Y003518D01*
X010042Y003522D01*
X010044Y003528D01*
X010045Y003534D01*
X010046Y00354D01*
X010048Y003556D01*
X010048Y003575D01*
X010147Y003578D01*
X010147Y003569D01*
D02*
G37*
G36*
X009754Y00357D02*
X009757Y003545D01*
X009758Y003539D01*
X009759Y003533D01*
X009761Y003527D01*
X009763Y003523D01*
X009766Y003519D01*
X009768Y003517D01*
X009645Y00351D01*
X009647Y003513D01*
X009649Y003516D01*
X00965Y003521D01*
X009652Y003526D01*
X009653Y003532D01*
X009654Y003539D01*
X009655Y003554D01*
X009656Y003573D01*
X009754Y00358D01*
X009754Y00357D01*
D02*
G37*
G36*
X009361Y003572D02*
X009362Y003555D01*
X009363Y003547D01*
X009364Y003541D01*
X009366Y003535D01*
X009368Y00353D01*
X00937Y003525D01*
X009373Y003522D01*
X009376Y003519D01*
X009252Y003507D01*
X009254Y00351D01*
X009256Y003513D01*
X009257Y003518D01*
X009259Y003523D01*
X00926Y003529D01*
X009261Y003543D01*
X009262Y00356D01*
X009262Y00357D01*
X009361Y003582D01*
X009361Y003572D01*
D02*
G37*
G36*
X01069Y003471D02*
X010683Y003464D01*
X010672Y003451D01*
X010667Y003445D01*
X010663Y003439D01*
X010661Y003434D01*
X010659Y003429D01*
X010657Y003424D01*
X010657Y00342D01*
X010657Y003416D01*
X010556Y003487D01*
X010559Y003488D01*
X010562Y00349D01*
X010566Y003492D01*
X01057Y003495D01*
X010575Y003498D01*
X010585Y003507D01*
X010605Y003526D01*
X01069Y003471D01*
D02*
G37*
G36*
X01957Y01527D02*
Y00017D01*
X01952Y00012D01*
X009189D01*
X009169Y000167D01*
X009346Y000344D01*
X009379Y000392D01*
X009391Y00045D01*
Y003172D01*
X009381Y003223D01*
X009379Y00323D01*
X009404Y003282D01*
X009426Y003291D01*
X009479Y003344D01*
X009488Y003367D01*
X009542D01*
X009551Y003344D01*
X009604Y003291D01*
X009673Y003263D01*
X009747D01*
X009816Y003291D01*
X009869Y003344D01*
X009878Y003367D01*
X009932D01*
X009941Y003344D01*
X009994Y003291D01*
X010063Y003263D01*
X010137D01*
X010206Y003291D01*
X010259Y003344D01*
X010287Y003413D01*
Y003487D01*
X010259Y003556D01*
X010264Y003583D01*
X010292Y003622D01*
X010353Y003634D01*
X01039Y003659D01*
X010427Y003634D01*
X010487Y003622D01*
X010489Y003619D01*
X010498Y003573D01*
X010464Y003559D01*
X010411Y003506D01*
X010383Y003437D01*
Y003363D01*
X010411Y003294D01*
X010464Y003241D01*
X010533Y003213D01*
X010607D01*
X010676Y003241D01*
X010729Y003294D01*
X010757Y003363D01*
Y003395D01*
X010792Y00343D01*
X010825Y003479D01*
X010836Y003537D01*
Y003732D01*
X010846Y003782D01*
Y004235D01*
X010834Y004297D01*
X010799Y004349D01*
X010747Y004383D01*
X010686Y004396D01*
X010678Y004394D01*
X010639Y004426D01*
Y004654D01*
X010647Y004673D01*
Y004747D01*
X010619Y004816D01*
X010566Y004869D01*
X010497Y004897D01*
X010423D01*
X010354Y004869D01*
X010316Y004831D01*
X010285Y004821D01*
X010254Y004831D01*
X010216Y004869D01*
X010147Y004897D01*
X010073D01*
X010004Y004869D01*
X009951Y004816D01*
X009923Y004747D01*
Y004736D01*
X009821Y004634D01*
X009778Y004662D01*
X009787Y004683D01*
Y004757D01*
X009759Y004826D01*
X009706Y004879D01*
X009637Y004907D01*
X009563D01*
X009494Y004879D01*
X009441Y004826D01*
X009413Y004757D01*
Y004725D01*
X009398Y00471D01*
X009365Y004661D01*
X009354Y004603D01*
Y004426D01*
X009315Y004394D01*
X009308Y004396D01*
X0093Y004394D01*
X009268Y00442D01*
X00926Y004437D01*
X00925Y00449D01*
X009217Y004539D01*
X00916Y004596D01*
X009111Y004629D01*
X009053Y004641D01*
X008932D01*
X008926Y004648D01*
X008913Y004691D01*
X009026Y004804D01*
X009059Y004852D01*
X009071Y00491D01*
Y00676D01*
X009059Y006818D01*
X009026Y006866D01*
X008979Y006914D01*
X008992Y006972D01*
X009027Y006996D01*
X009062Y007048D01*
X009075Y007109D01*
Y007562D01*
X009062Y007623D01*
X009027Y007675D01*
X008975Y00771D01*
X008914Y007722D01*
X008852Y00771D01*
X0088Y007675D01*
X008766Y007623D01*
X00876Y007594D01*
X008705Y007577D01*
X008624Y007659D01*
Y008217D01*
X008808D01*
Y008863D01*
X008139D01*
Y008217D01*
X008323D01*
Y007639D01*
X008273Y007612D01*
X008248Y007629D01*
X00819Y007641D01*
X006762D01*
X006631Y007772D01*
Y00916D01*
X006619Y009218D01*
X006586Y009266D01*
X006296Y009556D01*
X006248Y009589D01*
X00619Y009601D01*
X00419D01*
X004132Y009589D01*
X004084Y009556D01*
X003764Y009236D01*
X003731Y009188D01*
X003719Y00913D01*
Y007592D01*
X003608Y007481D01*
X00298D01*
X002977Y007481D01*
X002963Y007484D01*
X002944Y007492D01*
X00292Y007503D01*
X002893Y00752D01*
X002864Y00754D01*
X002752Y007636D01*
X002711Y007677D01*
X002704Y007682D01*
X002662Y007724D01*
X00255Y007789D01*
X002492Y007804D01*
Y007856D01*
X00255Y007871D01*
X002662Y007936D01*
X002753Y008028D01*
X002818Y00814D01*
X002852Y008265D01*
Y008395D01*
X002818Y00852D01*
X002753Y008632D01*
X002662Y008724D01*
X00255Y008789D01*
X002424Y008822D01*
X002295D01*
X00217Y008789D01*
X002058Y008724D01*
X001966Y008632D01*
X001901Y00852D01*
X001868Y008395D01*
Y008265D01*
X001901Y00814D01*
X001966Y008028D01*
X002058Y007936D01*
X00217Y007871D01*
X002228Y007856D01*
Y007804D01*
X00217Y007789D01*
X002058Y007724D01*
X001966Y007632D01*
X001901Y00752D01*
X001886Y007462D01*
X001834D01*
X001818Y00752D01*
X001753Y007632D01*
X001662Y007724D01*
X00155Y007789D01*
X001424Y007822D01*
X001295D01*
X00117Y007789D01*
X001058Y007724D01*
X000966Y007632D01*
X000901Y00752D01*
X000868Y007395D01*
Y007265D01*
X000901Y00714D01*
X000966Y007028D01*
X001058Y006936D01*
X00117Y006871D01*
X001295Y006838D01*
X001424D01*
X00155Y006871D01*
X001662Y006936D01*
X001753Y007028D01*
X001818Y00714D01*
X001834Y007198D01*
X001886D01*
X001901Y00714D01*
X001966Y007028D01*
X002058Y006936D01*
X00217Y006871D01*
X002228Y006856D01*
Y006804D01*
X00217Y006789D01*
X002058Y006724D01*
X001966Y006632D01*
X001901Y00652D01*
X001868Y006395D01*
Y006265D01*
X001901Y00614D01*
X001966Y006028D01*
X002058Y005936D01*
X00217Y005871D01*
X002228Y005856D01*
Y005804D01*
X00217Y005789D01*
X002058Y005724D01*
X001966Y005632D01*
X001901Y00552D01*
X001886Y005462D01*
X001834D01*
X001818Y00552D01*
X001753Y005632D01*
X001662Y005724D01*
X00155Y005789D01*
X001424Y005822D01*
X001295D01*
X00117Y005789D01*
X001058Y005724D01*
X000966Y005632D01*
X000901Y00552D01*
X000868Y005395D01*
Y005265D01*
X000901Y00514D01*
X000966Y005028D01*
X001058Y004936D01*
X00117Y004871D01*
X001295Y004838D01*
X001424D01*
X00155Y004871D01*
X001662Y004936D01*
X001753Y005028D01*
X001818Y00514D01*
X001834Y005198D01*
X001886D01*
X001901Y00514D01*
X001966Y005028D01*
X002058Y004936D01*
X00217Y004871D01*
X002228Y004856D01*
Y004804D01*
X00217Y004789D01*
X002058Y004724D01*
X001966Y004632D01*
X001901Y00452D01*
X001868Y004395D01*
Y004265D01*
X001901Y00414D01*
X001966Y004028D01*
X002058Y003936D01*
X00217Y003871D01*
X002228Y003856D01*
Y003804D01*
X00217Y003789D01*
X002058Y003724D01*
X001966Y003632D01*
X001901Y00352D01*
X001886Y003462D01*
X001834D01*
X001818Y00352D01*
X001753Y003632D01*
X001662Y003724D01*
X00155Y003789D01*
X001424Y003822D01*
X001295D01*
X00117Y003789D01*
X001058Y003724D01*
X000966Y003632D01*
X000901Y00352D01*
X000868Y003395D01*
Y003265D01*
X000901Y00314D01*
X000966Y003028D01*
X001058Y002936D01*
X00117Y002871D01*
X001295Y002838D01*
X001424D01*
X00155Y002871D01*
X001662Y002936D01*
X001753Y003028D01*
X001818Y00314D01*
X001834Y003198D01*
X001886D01*
X001901Y00314D01*
X001966Y003028D01*
X002058Y002936D01*
X00217Y002871D01*
X002228Y002856D01*
Y002804D01*
X00217Y002789D01*
X002058Y002724D01*
X001966Y002632D01*
X001901Y00252D01*
X001868Y002395D01*
Y002265D01*
X001901Y00214D01*
X001966Y002028D01*
X002058Y001936D01*
X00217Y001871D01*
X002228Y001856D01*
Y001804D01*
X00217Y001789D01*
X002058Y001724D01*
X001966Y001632D01*
X001901Y00152D01*
X001886Y001462D01*
X001834D01*
X001818Y00152D01*
X001753Y001632D01*
X001662Y001724D01*
X00155Y001789D01*
X001424Y001822D01*
X001295D01*
X00117Y001789D01*
X001058Y001724D01*
X000966Y001632D01*
X000901Y00152D01*
X000868Y001395D01*
Y001265D01*
X000901Y00114D01*
X000966Y001028D01*
X001008Y000986D01*
X001013Y000978D01*
X001054Y000937D01*
X001123Y00086D01*
X001148Y000827D01*
X00117Y000797D01*
X001186Y000769D01*
X001198Y000746D01*
X001205Y000727D01*
X001209Y000712D01*
X001209Y00071D01*
Y00036D01*
X001221Y000303D01*
X001253Y000254D01*
X00134Y000167D01*
X001321Y00012D01*
X00014D01*
X00012Y00014D01*
Y01523D01*
X00021Y01532D01*
X01952D01*
X01957Y01527D01*
D02*
G37*
G36*
X005574Y003253D02*
X005575Y003236D01*
X005578Y003221D01*
X005581Y003209D01*
X005586Y003198D01*
X005591Y003189D01*
X005597Y003182D01*
X005605Y003177D01*
X005613Y003174D01*
X005622Y003173D01*
X005426D01*
X005435Y003174D01*
X005443Y003177D01*
X005451Y003182D01*
X005457Y003189D01*
X005462Y003198D01*
X005467Y003209D01*
X00547Y003221D01*
X005473Y003236D01*
X005474Y003253D01*
X005475Y003272D01*
X005573D01*
X005574Y003253D01*
D02*
G37*
G36*
X008044Y002794D02*
X008042Y002797D01*
X008039Y0028D01*
X008035Y002803D01*
X00803Y002805D01*
X008025Y002807D01*
X008018Y002809D01*
X008011Y00281D01*
X008003Y002811D01*
X007984Y002811D01*
X008021Y00291D01*
X008079Y002913D01*
X008044Y002794D01*
D02*
G37*
G36*
X007892Y002762D02*
X007891Y002772D01*
X007888Y00278D01*
X007883Y002787D01*
X007876Y002794D01*
X007867Y002799D01*
X007856Y002804D01*
X007843Y002807D01*
X007828Y002809D01*
X007811Y002811D01*
X007792Y002811D01*
Y00291D01*
X007811Y00291D01*
X007828Y002912D01*
X007843Y002914D01*
X007856Y002918D01*
X007867Y002922D01*
X007876Y002928D01*
X007883Y002934D01*
X007888Y002941D01*
X007891Y00295D01*
X007892Y002959D01*
Y002762D01*
D02*
G37*
G36*
X008543Y003121D02*
Y002629D01*
X008542Y002625D01*
X008543Y002622D01*
Y002526D01*
X008609D01*
X008611Y002518D01*
X008615Y002497D01*
X008619Y002448D01*
Y000869D01*
X008613Y00086D01*
X008604Y000847D01*
X008526Y000759D01*
X008518Y000751D01*
X006892D01*
X006751Y000892D01*
Y001246D01*
X006759Y001254D01*
X006787Y001323D01*
Y001397D01*
X006759Y001466D01*
X006706Y001519D01*
X006637Y001547D01*
X006563D01*
X006501Y001521D01*
X006451Y00154D01*
Y001838D01*
X00678Y002167D01*
X006827Y002148D01*
Y001559D01*
X007256D01*
X00728Y001539D01*
X007365Y001454D01*
X007414Y001421D01*
X007472Y001409D01*
X00778D01*
Y001304D01*
X00837D01*
Y001816D01*
X00778D01*
Y001711D01*
X007534D01*
X007496Y001748D01*
X007482Y001764D01*
X007472Y001776D01*
Y002229D01*
X0073D01*
Y002337D01*
X007673Y00271D01*
X007791D01*
Y002526D01*
X008437D01*
Y003125D01*
X008468Y003131D01*
X008493Y003148D01*
X008543Y003121D01*
D02*
G37*
G36*
X009054Y002624D02*
X009034Y002617D01*
X009016Y002605D01*
X009001Y002589D01*
X008988Y002567D01*
X008977Y002541D01*
X008969Y00251D01*
X008963Y002475D01*
X008959Y002434D01*
X008958Y002389D01*
X008722D01*
X008721Y002434D01*
X008715Y00251D01*
X008709Y002541D01*
X008702Y002567D01*
X008693Y002588D01*
X008683Y002604D01*
X008671Y002616D01*
X008658Y002623D01*
X008643Y002626D01*
X009076Y002627D01*
X009054Y002624D01*
D02*
G37*
G36*
X007199Y002209D02*
X007201Y002192D01*
X007203Y002177D01*
X007206Y002164D01*
X007211Y002153D01*
X007216Y002144D01*
X007223Y002137D01*
X00723Y002132D01*
X007238Y002129D01*
X007248Y002128D01*
X007051D01*
X00706Y002129D01*
X007069Y002132D01*
X007076Y002137D01*
X007082Y002144D01*
X007088Y002153D01*
X007092Y002164D01*
X007096Y002177D01*
X007098Y002192D01*
X0071Y002209D01*
X0071Y002227D01*
X007199D01*
X007199Y002209D01*
D02*
G37*
G36*
X005849Y002073D02*
X00583Y002053D01*
X0058Y002018D01*
X005789Y002002D01*
X005781Y001987D01*
X005775Y001974D01*
X005772Y001962D01*
X005771Y001951D01*
X005774Y001942D01*
X005779Y001934D01*
X005652Y002084D01*
X005659Y002078D01*
X005668Y002075D01*
X005678Y002075D01*
X00569Y002077D01*
X005703Y002083D01*
X005718Y002091D01*
X005734Y002103D01*
X005752Y002117D01*
X005792Y002155D01*
X005849Y002073D01*
D02*
G37*
G36*
X007366Y001791D02*
X007363Y001782D01*
X007363Y001771D01*
X007366Y00176D01*
X007372Y001746D01*
X00738Y001732D01*
X007392Y001716D01*
X007406Y001698D01*
X007442Y001659D01*
X007373Y001589D01*
X007352Y001609D01*
X007316Y00164D01*
X0073Y001651D01*
X007285Y00166D01*
X007272Y001665D01*
X00726Y001668D01*
X00725Y001668D01*
X007241Y001666D01*
X007233Y00166D01*
X007371Y001798D01*
X007366Y001791D01*
D02*
G37*
G36*
X005646Y001614D02*
X005637Y001611D01*
X00563Y001606D01*
X005624Y001599D01*
X005618Y00159D01*
X005614Y00158D01*
X00561Y001567D01*
X005608Y001552D01*
X005606Y001535D01*
X005606Y001517D01*
X005507D01*
X005507Y001535D01*
X005505Y001552D01*
X005503Y001567D01*
X0055Y00158D01*
X005495Y00159D01*
X00549Y001599D01*
X005483Y001606D01*
X005476Y001611D01*
X005468Y001614D01*
X005458Y001615D01*
X005655D01*
X005646Y001614D01*
D02*
G37*
G36*
X007881Y001462D02*
X00788Y001471D01*
X007877Y001479D01*
X007872Y001487D01*
X007865Y001493D01*
X007856Y001498D01*
X007845Y001503D01*
X007832Y001506D01*
X007817Y001509D01*
X0078Y00151D01*
X007781Y001511D01*
Y001609D01*
X0078Y00161D01*
X007817Y001611D01*
X007832Y001614D01*
X007845Y001617D01*
X007856Y001622D01*
X007865Y001627D01*
X007872Y001633D01*
X007877Y001641D01*
X00788Y001649D01*
X007881Y001658D01*
Y001462D01*
D02*
G37*
G36*
X00666Y001294D02*
X006657Y00129D01*
X006655Y001286D01*
X006654Y001281D01*
X006652Y001275D01*
X006651Y001268D01*
X00665Y001252D01*
X006649Y001243D01*
X006649Y001233D01*
X006551D01*
X006551Y001243D01*
X006549Y001268D01*
X006548Y001275D01*
X006546Y001281D01*
X006545Y001286D01*
X006543Y00129D01*
X00654Y001294D01*
X006538Y001297D01*
X006662D01*
X00666Y001294D01*
D02*
G37*
G36*
X005608Y001309D02*
X005613Y001286D01*
X005622Y001264D01*
X005634Y001243D01*
X00565Y001223D01*
X00567Y001204D01*
X005693Y001186D01*
X00572Y001169D01*
X00575Y001153D01*
X005783Y001138D01*
X005395Y000979D01*
X005416Y001029D01*
X005506Y00128D01*
X005507Y001292D01*
X005606Y001333D01*
X005608Y001309D01*
D02*
G37*
G36*
X002592Y001005D02*
X00249Y000887D01*
X002465Y000851D01*
X002445Y000818D01*
X002429Y000786D01*
X002418Y000757D01*
X002411Y000729D01*
X002409Y000703D01*
X00231D01*
X002308Y000729D01*
X002301Y000757D01*
X00229Y000786D01*
X002274Y000818D01*
X002254Y000851D01*
X002229Y000887D01*
X0022Y000925D01*
X002127Y001005D01*
X002084Y001049D01*
X002635D01*
X002592Y001005D01*
D02*
G37*
G36*
X001592D02*
X00149Y000887D01*
X001465Y000851D01*
X001445Y000818D01*
X001429Y000786D01*
X001418Y000757D01*
X001411Y000729D01*
X001409Y000703D01*
X00131D01*
X001308Y000729D01*
X001301Y000757D01*
X00129Y000786D01*
X001274Y000818D01*
X001254Y000851D01*
X001229Y000887D01*
X0012Y000925D01*
X001127Y001005D01*
X001084Y001049D01*
X001635D01*
X001592Y001005D01*
D02*
G37*
G36*
X007979Y004695D02*
X007983Y004688D01*
X007959Y004651D01*
X007946Y004589D01*
X007959Y004528D01*
X007993Y004476D01*
X008045Y004441D01*
X008107Y004429D01*
X008179D01*
Y004044D01*
X008171Y004036D01*
X008143Y003967D01*
Y003893D01*
X008171Y003824D01*
X008224Y003771D01*
X008293Y003743D01*
X008367D01*
X008436Y003771D01*
X008439Y003775D01*
X008489Y003754D01*
Y003562D01*
X008348Y003421D01*
X00767D01*
X007612Y003409D01*
X007564Y003376D01*
X006194Y002006D01*
X006161Y001958D01*
X006149Y0019D01*
Y000732D01*
X006066Y000649D01*
X006026Y000679D01*
X006041Y000706D01*
X006068Y000808D01*
Y000912D01*
X006041Y001014D01*
X005989Y001105D01*
X005915Y001179D01*
X005824Y001231D01*
X005814Y001234D01*
X005794Y001243D01*
X00577Y001256D01*
X005751Y001268D01*
X005736Y00128D01*
X005725Y00129D01*
X005717Y0013D01*
X005712Y001308D01*
X005709Y001316D01*
X005707Y001324D01*
Y001515D01*
X005879D01*
Y001956D01*
X00588Y001957D01*
X005901Y001981D01*
X007345Y003426D01*
X007381Y00346D01*
X007381Y003461D01*
X007413Y003497D01*
X007532Y003633D01*
X007659Y003823D01*
X007761Y004028D01*
X007834Y004245D01*
X007879Y004469D01*
X00789Y004648D01*
X007894Y004696D01*
X007894Y004697D01*
X007913Y00471D01*
X007915Y004711D01*
X007979Y004695D01*
D02*
G37*
G36*
X00884Y000742D02*
X008829Y00074D01*
X008816Y000735D01*
X008801Y000728D01*
X008783Y000716D01*
X008764Y000702D01*
X008718Y000664D01*
X008663Y000613D01*
X008632Y000582D01*
X008562Y000652D01*
X008593Y000683D01*
X008682Y000784D01*
X008696Y000803D01*
X008708Y000821D01*
X008715Y000836D01*
X00872Y000849D01*
X008722Y00086D01*
X00884Y000742D01*
D02*
G37*
%LPC*%
G36*
X014487Y014691D02*
X013841D01*
Y014507D01*
X013707D01*
X013649Y014496D01*
X0136Y014463D01*
X013424Y014286D01*
X013391Y014238D01*
X013379Y01418D01*
Y011915D01*
X013329Y011874D01*
X013314Y011877D01*
X013115D01*
Y01247D01*
Y012982D01*
X012406D01*
Y01247D01*
Y01197D01*
Y01147D01*
Y01097D01*
X013115D01*
Y011576D01*
X013251D01*
X013351Y011476D01*
X013355Y011471D01*
X013361Y011462D01*
X013366Y011453D01*
X013371Y011444D01*
X013374Y011435D01*
X013377Y011425D01*
X013379Y011414D01*
X013379Y011407D01*
Y009048D01*
X013329Y009008D01*
X013284Y009017D01*
X013166D01*
X013147Y009018D01*
X01312Y009023D01*
X0131Y009028D01*
X013087Y009033D01*
X013084Y009036D01*
X013083Y009042D01*
X013083Y009042D01*
Y009131D01*
X012987D01*
X012983Y009131D01*
X01298Y009131D01*
X012974D01*
X012973Y009131D01*
X012972Y009131D01*
X012654D01*
X01263Y009151D01*
X012344Y009436D01*
X012295Y009469D01*
X012238Y009481D01*
X011399D01*
Y010145D01*
X011227D01*
Y010454D01*
X011215Y010512D01*
X011182Y01056D01*
X010947Y010796D01*
Y010807D01*
X010919Y010876D01*
X010866Y010929D01*
X010797Y010957D01*
X010723D01*
X010654Y010929D01*
X010601Y010876D01*
X010573Y010807D01*
Y010733D01*
X010601Y010664D01*
X010654Y010611D01*
X010723Y010583D01*
X010734D01*
X010925Y010392D01*
Y010145D01*
X010753D01*
Y009475D01*
X010909D01*
Y00942D01*
X010921Y009362D01*
X010954Y009314D01*
X01096Y009307D01*
X010941Y009261D01*
X010512D01*
X010475Y009298D01*
Y009475D01*
X010647D01*
Y010145D01*
X010475D01*
Y011566D01*
X010463Y011624D01*
X01043Y011672D01*
X01027Y011833D01*
X010221Y011865D01*
X010164Y011877D01*
X009374D01*
Y012482D01*
X008769D01*
X008765Y012483D01*
X008762Y012482D01*
X008761D01*
X008758Y012483D01*
X008756Y012482D01*
X008666D01*
Y012452D01*
X008599Y012447D01*
X008138D01*
X008119Y012449D01*
X008092Y012453D01*
X008072Y012459D01*
X008059Y012464D01*
X008055Y012466D01*
Y01274D01*
X006465D01*
Y01152D01*
X008055D01*
Y011986D01*
X008059Y011989D01*
X008072Y011994D01*
X008092Y011999D01*
X008119Y012004D01*
X008138Y012006D01*
X008622D01*
X008666Y012002D01*
Y01147D01*
Y01097D01*
X009374D01*
Y011076D01*
X009611D01*
X009799Y010888D01*
Y009899D01*
X009753Y00988D01*
X009716Y009916D01*
X009668Y009949D01*
X00961Y009961D01*
X009547D01*
Y010145D01*
X008901D01*
Y009475D01*
X009547D01*
X009549Y009427D01*
Y007753D01*
X009511Y007721D01*
X009504Y007722D01*
X009443Y00771D01*
X009406Y007686D01*
X009369Y00771D01*
X009308Y007722D01*
X009246Y00771D01*
X009194Y007675D01*
X009159Y007623D01*
X009147Y007562D01*
Y007109D01*
X009159Y007048D01*
X009194Y006996D01*
X009246Y006961D01*
X009308Y006949D01*
X009369Y006961D01*
X009406Y006985D01*
X009443Y006961D01*
X009504Y006949D01*
X009566Y006961D01*
X009603Y006985D01*
X00964Y006961D01*
X009701Y006949D01*
X009713Y006951D01*
X009733Y006934D01*
X009753Y006908D01*
X009763Y00686D01*
X009796Y006812D01*
X009914Y006694D01*
X009962Y006661D01*
X01002Y006649D01*
X01116D01*
X011218Y006661D01*
X011241Y006677D01*
X011242Y006677D01*
X011301Y006666D01*
X011306Y006662D01*
X01132Y006641D01*
X011372Y006606D01*
X011434Y006594D01*
X011886D01*
X011948Y006606D01*
X012Y006641D01*
X012035Y006693D01*
X012047Y006755D01*
X012035Y006816D01*
X012Y006868D01*
X011948Y006903D01*
X011905Y006912D01*
X011885Y006962D01*
X012087Y007164D01*
X012447D01*
Y00698D01*
X012855D01*
X012876Y006976D01*
X013173D01*
X013175Y006974D01*
X013194Y006951D01*
X013215Y00692D01*
X013232Y006889D01*
X013247Y006857D01*
X01326Y006824D01*
X013269Y006789D01*
X013276Y006753D01*
X013279Y006723D01*
Y005051D01*
X013193Y004965D01*
X012866D01*
X012845Y004961D01*
X012437D01*
Y004403D01*
X012437Y004403D01*
X012437Y004402D01*
Y004395D01*
X012436Y004391D01*
X012437Y004387D01*
Y004291D01*
X012523D01*
X012524Y004291D01*
X012529Y004277D01*
X012534Y004256D01*
X012538Y004228D01*
X012539Y004212D01*
Y003491D01*
X012242Y003195D01*
X012219Y003176D01*
X012189Y003155D01*
X012157Y003138D01*
X012125Y003123D01*
X012092Y00311D01*
X012058Y003101D01*
X012022Y003094D01*
X011992Y003091D01*
X011831D01*
Y00384D01*
X011819Y003898D01*
X011786Y003946D01*
X011618Y004115D01*
X011569Y004148D01*
X011511Y004159D01*
X01124D01*
Y004235D01*
X011228Y004297D01*
X011193Y004349D01*
X011141Y004383D01*
X011079Y004396D01*
X011018Y004383D01*
X010966Y004349D01*
X010931Y004297D01*
X010919Y004235D01*
Y003782D01*
X010931Y003721D01*
X010966Y003669D01*
X011018Y003634D01*
X011079Y003622D01*
X011141Y003634D01*
X011193Y003669D01*
X011228Y003721D01*
X01124Y003782D01*
Y003858D01*
X011449D01*
X011529Y003778D01*
Y003254D01*
X011509Y003213D01*
X010839D01*
Y002567D01*
X011406D01*
X011409Y002566D01*
X011413Y002567D01*
X011509D01*
Y002638D01*
X011518Y002641D01*
X011539Y002645D01*
X011589Y002649D01*
X011911D01*
X011936Y002645D01*
X011956Y002638D01*
X011971Y00263D01*
X011982Y002622D01*
X01199Y002611D01*
X011998Y002596D01*
X012005Y002576D01*
X012009Y002551D01*
Y002325D01*
X012008Y002311D01*
X012003Y002288D01*
X011996Y002266D01*
X011987Y002245D01*
X011977Y002224D01*
X011964Y002204D01*
X011949Y002183D01*
X011931Y002163D01*
X011909Y002141D01*
X011904Y002133D01*
X011858Y002087D01*
X011798Y001984D01*
X011767Y001869D01*
Y00175D01*
X011798Y001635D01*
X011858Y001531D01*
X011942Y001447D01*
X012045Y001387D01*
X01216Y001357D01*
X01228D01*
X012395Y001387D01*
X012498Y001447D01*
X012582Y001531D01*
X012642Y001635D01*
X012673Y00175D01*
Y001869D01*
X012642Y001984D01*
X012582Y002087D01*
X012553Y002116D01*
X01255Y002123D01*
X012528Y002147D01*
X01251Y002169D01*
X012495Y002191D01*
X012483Y002213D01*
X012472Y002235D01*
X012464Y002257D01*
X012457Y00228D01*
X012452Y002303D01*
X012451Y002317D01*
Y002632D01*
X012454Y002662D01*
X012461Y002698D01*
X01247Y002732D01*
X012483Y002765D01*
X012498Y002797D01*
X012515Y002829D01*
X012536Y002859D01*
X012555Y002882D01*
X012916Y003244D01*
X012964Y003316D01*
X012981Y0034D01*
Y004016D01*
X013027Y004035D01*
X013118Y003944D01*
X01319Y003896D01*
X013274Y003879D01*
X013795D01*
Y003296D01*
X013794Y003277D01*
X013789Y00325D01*
X013784Y00323D01*
X013779Y003217D01*
X013776Y003214D01*
X01377Y003213D01*
X01377Y003213D01*
X013681D01*
Y003117D01*
X013681Y003113D01*
X013681Y00311D01*
Y003104D01*
X013681Y003103D01*
X013681Y003102D01*
Y002567D01*
X014351D01*
Y003102D01*
X014351Y003103D01*
X014351Y003104D01*
Y00311D01*
X014351Y003113D01*
X014351Y003117D01*
Y003213D01*
X014262D01*
X014262Y003213D01*
X014256Y003214D01*
X014253Y003217D01*
X014248Y00323D01*
X014243Y00325D01*
X014238Y003277D01*
X014237Y003296D01*
Y003879D01*
X01445D01*
X014534Y003896D01*
X014606Y003944D01*
X015831Y005168D01*
X016056D01*
Y005164D01*
X016143D01*
X016143Y005164D01*
X016144Y005164D01*
X016152D01*
X016155Y005164D01*
X016159Y005164D01*
X017099D01*
Y005716D01*
X016167D01*
X016167Y005716D01*
X016166Y005716D01*
X016159D01*
X016155Y005716D01*
X016152Y005716D01*
X016056D01*
Y005628D01*
X016056Y005627D01*
X016055Y005627D01*
X016054Y005626D01*
X01604Y005621D01*
X01602Y005616D01*
X015992Y005611D01*
X015975Y00561D01*
X015739D01*
X015655Y005593D01*
X015583Y005545D01*
X014838Y0048D01*
X014792Y004819D01*
Y006178D01*
X013749D01*
X013721Y006217D01*
Y006643D01*
X013725Y006668D01*
X013732Y006688D01*
X01374Y006702D01*
X013748Y006713D01*
X013759Y006722D01*
X013774Y00673D01*
X013794Y006737D01*
X013819Y006741D01*
X015984D01*
X015999Y006691D01*
X015977Y006658D01*
X01597Y00662D01*
Y00609D01*
X015977Y006052D01*
X015999Y006019D01*
X016032Y005997D01*
X01607Y00599D01*
X01801D01*
Y00535D01*
X018017Y005312D01*
X018039Y005279D01*
X018072Y005257D01*
X01811Y00525D01*
X01883D01*
X018868Y005257D01*
X018901Y005279D01*
X018923Y005312D01*
X01893Y00535D01*
Y00748D01*
X018923Y007518D01*
X018901Y007551D01*
X018868Y007573D01*
X01883Y00758D01*
X01819D01*
X018152Y007573D01*
X018119Y007551D01*
X018097Y007518D01*
X01809Y00748D01*
Y00672D01*
X017D01*
X016985Y00677D01*
X017038Y006806D01*
X017256Y007024D01*
X017304Y007095D01*
X01732Y00718D01*
Y007582D01*
X017322Y007601D01*
X017327Y007628D01*
X017332Y007648D01*
X017337Y007661D01*
X017339Y007665D01*
X017345Y007665D01*
X017346Y007665D01*
X017434D01*
Y007761D01*
X017435Y007765D01*
X017434Y007769D01*
Y007774D01*
X017434Y007776D01*
X017434Y007776D01*
Y008335D01*
X016765D01*
Y007776D01*
X016765Y007776D01*
X016765Y007774D01*
Y007769D01*
X016764Y007765D01*
X016765Y007761D01*
Y007665D01*
X016854D01*
X016854Y007665D01*
X01686Y007665D01*
X016862Y007661D01*
X016868Y007648D01*
X016873Y007628D01*
X016877Y007601D01*
X016879Y007582D01*
Y007271D01*
X01679Y007182D01*
X013819D01*
X013794Y007187D01*
X013774Y007193D01*
X013759Y007201D01*
X013748Y00721D01*
X01374Y007221D01*
X013732Y007235D01*
X013725Y007256D01*
X013721Y00728D01*
Y00858D01*
X013704Y008664D01*
X013681Y0087D01*
Y011359D01*
X014678D01*
X014732Y011305D01*
X014712Y011255D01*
X014553D01*
Y010585D01*
X015199D01*
Y011255D01*
X015081D01*
Y01132D01*
X015069Y011378D01*
X015036Y011426D01*
X014846Y011616D01*
X014798Y011649D01*
X01474Y011661D01*
X013681D01*
Y014118D01*
X013769Y014206D01*
X013841D01*
Y014022D01*
X014487D01*
Y014691D01*
D02*
G37*
G36*
X015239D02*
X014593D01*
Y014022D01*
X014765D01*
Y013624D01*
X014232Y01309D01*
X014216Y013075D01*
X014204Y013066D01*
X01383D01*
Y012554D01*
X01442D01*
Y012849D01*
X014441Y012873D01*
X015022Y013455D01*
X015055Y013504D01*
X015067Y013561D01*
Y014022D01*
X015239D01*
Y014206D01*
X016151D01*
Y014017D01*
X016821D01*
Y014663D01*
X016151D01*
Y014507D01*
X015239D01*
Y014691D01*
D02*
G37*
G36*
X002681Y012425D02*
X002603D01*
X002528Y012405D01*
X002461Y012366D01*
X002406Y012311D01*
X002367Y012244D01*
X002347Y012169D01*
Y012091D01*
X002367Y012016D01*
X002406Y011949D01*
X002461Y011894D01*
X002528Y011855D01*
X002603Y011835D01*
X002681D01*
X002756Y011855D01*
X002823Y011894D01*
X002878Y011949D01*
X002917Y012016D01*
X002937Y012091D01*
Y012169D01*
X002917Y012244D01*
X002878Y012311D01*
X002823Y012366D01*
X002756Y012405D01*
X002681Y012425D01*
D02*
G37*
G36*
X005641Y012484D02*
X005548D01*
X005458Y01246D01*
X005377Y012414D01*
X005311Y012348D01*
X005265Y012267D01*
X00524Y012177D01*
Y012083D01*
X005265Y011993D01*
X005311Y011912D01*
X005377Y011846D01*
X005458Y0118D01*
X005548Y011776D01*
X005641D01*
X005732Y0118D01*
X005812Y011846D01*
X005878Y011912D01*
X005925Y011993D01*
X005949Y012083D01*
Y012177D01*
X005925Y012267D01*
X005878Y012348D01*
X005812Y012414D01*
X005732Y01246D01*
X005641Y012484D01*
D02*
G37*
G36*
X014447Y011255D02*
X013801D01*
Y010585D01*
X013973D01*
Y009756D01*
X01383D01*
Y009244D01*
X01442D01*
Y009349D01*
X01629D01*
X016348Y009361D01*
X016396Y009394D01*
X016592Y00959D01*
X016625Y009638D01*
X016637Y009696D01*
Y010577D01*
X016821D01*
Y011223D01*
X016151D01*
Y010577D01*
X016335D01*
Y009758D01*
X016228Y009651D01*
X01442D01*
Y009756D01*
X014275D01*
Y010585D01*
X014447D01*
Y011255D01*
D02*
G37*
G36*
X007177Y010967D02*
X007103D01*
X007034Y010939D01*
X006981Y010886D01*
X006953Y010817D01*
Y010743D01*
X006981Y010674D01*
X006989Y010667D01*
Y008303D01*
X006981Y008295D01*
X006952Y008227D01*
Y008152D01*
X006981Y008083D01*
X007033Y008031D01*
X007102Y008002D01*
X007177D01*
X007245Y008031D01*
X007298Y008083D01*
X007326Y008152D01*
Y008227D01*
X007298Y008295D01*
X00729Y008303D01*
Y010665D01*
X007299Y010674D01*
X007327Y010743D01*
Y010817D01*
X007299Y010886D01*
X007246Y010939D01*
X007177Y010967D01*
D02*
G37*
G36*
X01657Y00842D02*
X01465D01*
X014612Y008413D01*
X014579Y008391D01*
X014557Y008358D01*
X01455Y00832D01*
Y00766D01*
X014557Y007622D01*
X014579Y007589D01*
X014612Y007567D01*
X01465Y00756D01*
X01657D01*
X016608Y007567D01*
X016641Y007589D01*
X016663Y007622D01*
X01667Y00766D01*
Y00832D01*
X016663Y008358D01*
X016641Y008391D01*
X016608Y008413D01*
X01657Y00842D01*
D02*
G37*
G36*
X012297Y006547D02*
X012223D01*
X012154Y006519D01*
X012147Y006511D01*
X01194D01*
X011886Y006522D01*
X011434D01*
X011372Y006509D01*
X01132Y006475D01*
X011285Y006423D01*
X011273Y006361D01*
X011285Y0063D01*
X01131Y006263D01*
X011285Y006226D01*
X011273Y006164D01*
X011285Y006103D01*
X01131Y006066D01*
X011285Y006029D01*
X011273Y005967D01*
X011285Y005906D01*
X01131Y005869D01*
X011285Y005832D01*
X011273Y005771D01*
X011285Y005709D01*
X01131Y005672D01*
X011285Y005635D01*
X011273Y005574D01*
X011285Y005512D01*
X01131Y005475D01*
X011285Y005438D01*
X011273Y005377D01*
X011285Y005315D01*
X01131Y005278D01*
X011285Y005241D01*
X011273Y00518D01*
X011285Y005119D01*
X01131Y005082D01*
X011285Y005045D01*
X011273Y004983D01*
X011274Y004977D01*
X011242Y004939D01*
X011126D01*
X011116Y004949D01*
X011047Y004977D01*
X010973D01*
X010904Y004949D01*
X010851Y004896D01*
X010823Y004827D01*
Y004753D01*
X010851Y004684D01*
X010904Y004631D01*
X010973Y004603D01*
X011047D01*
X011116Y004631D01*
X011122Y004638D01*
X011243D01*
X011275Y004599D01*
X011273Y004589D01*
X011285Y004528D01*
X01132Y004476D01*
X011372Y004441D01*
X011434Y004429D01*
X011886D01*
X011948Y004441D01*
X012Y004476D01*
X012035Y004528D01*
X012047Y004589D01*
X012035Y004651D01*
X01201Y004688D01*
X012035Y004725D01*
X012047Y004786D01*
X012035Y004848D01*
X01201Y004885D01*
X012035Y004922D01*
X012047Y004983D01*
X012035Y005045D01*
X01201Y005082D01*
X012035Y005119D01*
X012047Y00518D01*
X012035Y005241D01*
X01201Y005278D01*
X012035Y005315D01*
X012047Y005377D01*
X012035Y005438D01*
X01201Y005475D01*
X012035Y005512D01*
X012047Y005574D01*
X012035Y005635D01*
X01201Y005672D01*
X012035Y005709D01*
X012047Y005771D01*
X012035Y005832D01*
X01201Y005869D01*
X012035Y005906D01*
X012047Y005967D01*
X012035Y006029D01*
X01201Y006066D01*
X012035Y006103D01*
X012047Y006164D01*
X012046Y006171D01*
X012077Y00621D01*
X012146D01*
X012154Y006201D01*
X012223Y006173D01*
X012297D01*
X012366Y006201D01*
X012419Y006254D01*
X012447Y006323D01*
Y006397D01*
X012419Y006466D01*
X012366Y006519D01*
X012297Y006547D01*
D02*
G37*
G36*
X01528Y002262D02*
X01516D01*
X015045Y002231D01*
X014942Y002172D01*
X014858Y002087D01*
X014798Y001984D01*
X014767Y001869D01*
Y00175D01*
X014798Y001635D01*
X014858Y001531D01*
X014942Y001447D01*
X015045Y001387D01*
X01516Y001357D01*
X01528D01*
X015395Y001387D01*
X015498Y001447D01*
X015582Y001531D01*
X015642Y001635D01*
X015673Y00175D01*
Y001869D01*
X015642Y001984D01*
X015582Y002087D01*
X015498Y002172D01*
X015395Y002231D01*
X01528Y002262D01*
D02*
G37*
G36*
X01428D02*
X01416D01*
X014045Y002231D01*
X013942Y002172D01*
X013858Y002087D01*
X013798Y001984D01*
X013767Y001869D01*
Y00175D01*
X013798Y001635D01*
X013858Y001531D01*
X013942Y001447D01*
X014045Y001387D01*
X01416Y001357D01*
X01428D01*
X014395Y001387D01*
X014498Y001447D01*
X014582Y001531D01*
X014642Y001635D01*
X014673Y00175D01*
Y001869D01*
X014642Y001984D01*
X014582Y002087D01*
X014498Y002172D01*
X014395Y002231D01*
X01428Y002262D01*
D02*
G37*
G36*
X01881Y00485D02*
X01804D01*
X018022Y004847D01*
X018003Y004843D01*
X018002Y004843D01*
X018002Y004843D01*
X017986Y004832D01*
X01797Y004822D01*
X01797Y004821D01*
X017969Y004821D01*
X017959Y004805D01*
X017948Y00479D01*
X017948Y004789D01*
X017947Y004788D01*
X017944Y00477D01*
X01794Y004752D01*
X017884Y001187D01*
X017884Y001187D01*
X017884Y001186D01*
X017888Y001168D01*
X017891Y001149D01*
X017891Y001148D01*
X017892Y001148D01*
X017902Y001132D01*
X017912Y001116D01*
X017913Y001116D01*
X017913Y001115D01*
X017948Y00108D01*
X017948Y001079D01*
X017949Y001079D01*
X017965Y001068D01*
X01798Y001058D01*
X017981Y001058D01*
X017981Y001057D01*
X018Y001054D01*
X018019Y00105D01*
X018019Y00105D01*
X01802Y00105D01*
X01881D01*
X018848Y001057D01*
X018881Y001079D01*
X018903Y001112D01*
X01891Y00115D01*
Y00468D01*
Y00475D01*
X018903Y004788D01*
X018881Y004821D01*
X018848Y004843D01*
X01881Y00485D01*
D02*
G37*
G36*
X01049Y001081D02*
X00969D01*
X009669Y001077D01*
X009647D01*
X009627Y001068D01*
X009606Y001064D01*
X009587Y001052D01*
X009567Y001044D01*
X009552Y001028D01*
X009534Y001016D01*
X009522Y000998D01*
X009506Y000983D01*
X009498Y000963D01*
X009486Y000944D01*
X009482Y000923D01*
X009473Y000903D01*
Y000881D01*
X009469Y00086D01*
X009473Y000839D01*
Y000817D01*
X009482Y000797D01*
X009486Y000776D01*
X009498Y000757D01*
X009506Y000737D01*
X009522Y000722D01*
X009534Y000704D01*
X009552Y000692D01*
X009567Y000676D01*
X009587Y000668D01*
X009606Y000656D01*
X009627Y000652D01*
X009647Y000643D01*
X009669D01*
X00969Y000639D01*
X01049D01*
X010511Y000643D01*
X010533D01*
X010553Y000652D01*
X010574Y000656D01*
X010593Y000668D01*
X010613Y000676D01*
X010628Y000692D01*
X010646Y000704D01*
X010658Y000722D01*
X010674Y000737D01*
X010682Y000757D01*
X010694Y000776D01*
X010698Y000797D01*
X010707Y000817D01*
Y000839D01*
X010711Y00086D01*
X010707Y000881D01*
Y000903D01*
X010698Y000923D01*
X010694Y000944D01*
X010682Y000963D01*
X010674Y000983D01*
X010658Y000998D01*
X010646Y001016D01*
X010628Y001028D01*
X010613Y001044D01*
X010593Y001052D01*
X010574Y001064D01*
X010553Y001068D01*
X010533Y001077D01*
X010511D01*
X01049Y001081D01*
D02*
G37*
%LPD*%
G36*
X013942Y014258D02*
X013941Y014268D01*
X013938Y014276D01*
X013933Y014283D01*
X013926Y01429D01*
X013917Y014295D01*
X013906Y0143D01*
X013893Y014303D01*
X013878Y014305D01*
X013861Y014307D01*
X013842Y014307D01*
Y014406D01*
X013861Y014406D01*
X013878Y014408D01*
X013893Y01441D01*
X013906Y014414D01*
X013917Y014418D01*
X013926Y014424D01*
X013933Y01443D01*
X013938Y014437D01*
X013941Y014446D01*
X013942Y014455D01*
Y014258D01*
D02*
G37*
G36*
X008765Y01207D02*
X008763Y012077D01*
X008756Y012084D01*
X008744Y012089D01*
X008728Y012094D01*
X008706Y012099D01*
X00868Y012102D01*
X008614Y012107D01*
X008529Y012108D01*
Y012344D01*
X008574Y012345D01*
X008706Y012354D01*
X008728Y012358D01*
X008744Y012363D01*
X008756Y012369D01*
X008763Y012375D01*
X008765Y012383D01*
Y01207D01*
D02*
G37*
G36*
X007957Y01244D02*
X007964Y01242D01*
X007976Y012402D01*
X007993Y012387D01*
X008014Y012374D01*
X00804Y012363D01*
X008071Y012355D01*
X008107Y012349D01*
X008147Y012346D01*
X008192Y012344D01*
Y012108D01*
X008147Y012107D01*
X008107Y012103D01*
X008071Y012098D01*
X00804Y012089D01*
X008014Y012079D01*
X007993Y012066D01*
X007976Y01205D01*
X007964Y012033D01*
X007957Y012013D01*
X007955Y01199D01*
Y012463D01*
X007957Y01244D01*
D02*
G37*
G36*
X013579Y011658D02*
X01358Y011639D01*
X013583Y011622D01*
X013588Y011607D01*
X013595Y011595D01*
X013604Y011584D01*
X013615Y011575D01*
X013627Y011568D01*
X013642Y011563D01*
X013659Y01156D01*
X013678Y011559D01*
Y011461D01*
X013659Y01146D01*
X013642Y011457D01*
X013627Y011452D01*
X013615Y011445D01*
X013604Y011436D01*
X013595Y011425D01*
X013588Y011413D01*
X013583Y011398D01*
X01358Y011381D01*
X013579Y011362D01*
X013481Y011391D01*
X01348Y011411D01*
X013478Y011429D01*
X013475Y011448D01*
X01347Y011465D01*
X013463Y011482D01*
X013456Y011499D01*
X013447Y011515D01*
X013436Y01153D01*
X013424Y011545D01*
X013411Y011559D01*
Y011698D01*
X013424Y011686D01*
X013436Y011677D01*
X013447Y011672D01*
X013456Y01167D01*
X013463Y011671D01*
X01347Y011675D01*
X013475Y011683D01*
X013478Y011695D01*
X01348Y011709D01*
X013481Y011727D01*
X013579Y011658D01*
D02*
G37*
G36*
X013015Y011815D02*
X013018Y011807D01*
X013023Y0118D01*
X01303Y011793D01*
X013039Y011788D01*
X01305Y011783D01*
X013063Y01178D01*
X013078Y011777D01*
X013095Y011776D01*
X013113Y011776D01*
Y011677D01*
X013095Y011677D01*
X013078Y011675D01*
X013063Y011673D01*
X01305Y011669D01*
X013039Y011665D01*
X01303Y011659D01*
X013023Y011653D01*
X013018Y011646D01*
X013015Y011637D01*
X013014Y011628D01*
Y011825D01*
X013015Y011815D01*
D02*
G37*
G36*
X009275D02*
X009278Y011807D01*
X009283Y0118D01*
X00929Y011793D01*
X009299Y011788D01*
X00931Y011783D01*
X009322Y01178D01*
X009337Y011777D01*
X009354Y011776D01*
X009373Y011776D01*
Y011677D01*
X009354Y011677D01*
X009337Y011675D01*
X009322Y011673D01*
X00931Y011669D01*
X009299Y011665D01*
X00929Y011659D01*
X009283Y011653D01*
X009278Y011646D01*
X009275Y011637D01*
X009274Y011628D01*
Y011825D01*
X009275Y011815D01*
D02*
G37*
G36*
X01498Y011235D02*
X014981Y011218D01*
X014984Y011203D01*
X014987Y01119D01*
X014992Y01118D01*
X014997Y011171D01*
X015003Y011164D01*
X015011Y011159D01*
X015019Y011156D01*
X015028Y011155D01*
X014832D01*
X014841Y011156D01*
X014849Y011159D01*
X014857Y011164D01*
X014863Y011171D01*
X014868Y01118D01*
X014873Y01119D01*
X014876Y011203D01*
X014879Y011218D01*
X01488Y011235D01*
X014881Y011253D01*
X014979D01*
X01498Y011235D01*
D02*
G37*
G36*
X009275Y011315D02*
X009278Y011307D01*
X009283Y0113D01*
X00929Y011293D01*
X009299Y011288D01*
X00931Y011283D01*
X009322Y01128D01*
X009337Y011277D01*
X009354Y011276D01*
X009373Y011276D01*
Y011177D01*
X009354Y011177D01*
X009337Y011175D01*
X009322Y011173D01*
X00931Y011169D01*
X009299Y011165D01*
X00929Y011159D01*
X009283Y011153D01*
X009278Y011146D01*
X009275Y011137D01*
X009274Y011128D01*
Y011325D01*
X009275Y011315D01*
D02*
G37*
G36*
X010849Y010765D02*
X01085Y010761D01*
X010852Y010757D01*
X010854Y010752D01*
X010857Y010747D01*
X010861Y010741D01*
X010871Y010729D01*
X010878Y010722D01*
X010884Y010715D01*
X010815Y010646D01*
X010808Y010652D01*
X010789Y010669D01*
X010783Y010673D01*
X010778Y010676D01*
X010773Y010678D01*
X010769Y01068D01*
X010765Y010681D01*
X010761Y010681D01*
X010849Y010769D01*
X010849Y010765D01*
D02*
G37*
G36*
X011126Y010125D02*
X011127Y010108D01*
X01113Y010093D01*
X011133Y01008D01*
X011137Y010069D01*
X011143Y01006D01*
X011149Y010053D01*
X011157Y010048D01*
X011165Y010045D01*
X011174Y010044D01*
X010978D01*
X010987Y010045D01*
X010995Y010048D01*
X011003Y010053D01*
X011009Y01006D01*
X011014Y010069D01*
X011019Y01008D01*
X011022Y010093D01*
X011025Y010108D01*
X011026Y010125D01*
X011027Y010143D01*
X011125D01*
X011126Y010125D01*
D02*
G37*
G36*
X010374D02*
X010375Y010108D01*
X010378Y010093D01*
X010381Y01008D01*
X010386Y010069D01*
X010391Y01006D01*
X010397Y010053D01*
X010405Y010048D01*
X010413Y010045D01*
X010422Y010044D01*
X010226D01*
X010235Y010045D01*
X010243Y010048D01*
X010251Y010053D01*
X010257Y01006D01*
X010263Y010069D01*
X010267Y01008D01*
X01027Y010093D01*
X010273Y010108D01*
X010274Y010125D01*
X010275Y010143D01*
X010373D01*
X010374Y010125D01*
D02*
G37*
G36*
X009447Y009899D02*
X00945Y009891D01*
X009455Y009883D01*
X009462Y009877D01*
X009471Y009872D01*
X009482Y009867D01*
X009495Y009864D01*
X00951Y009861D01*
X009526Y00986D01*
X009545Y009859D01*
Y009761D01*
X009526Y00976D01*
X00951Y009759D01*
X009495Y009756D01*
X009482Y009753D01*
X009471Y009748D01*
X009462Y009743D01*
X009455Y009737D01*
X00945Y009729D01*
X009447Y009721D01*
X009446Y009712D01*
Y009908D01*
X009447Y009899D01*
D02*
G37*
G36*
X011149Y009574D02*
X011141Y009571D01*
X011133Y009566D01*
X011127Y009559D01*
X011122Y00955D01*
X011117Y00954D01*
X011114Y009527D01*
X011111Y009512D01*
X01111Y009495D01*
X011109Y009477D01*
X011011D01*
X01101Y009495D01*
X011009Y009512D01*
X011006Y009527D01*
X011003Y00954D01*
X010998Y00955D01*
X010993Y009559D01*
X010987Y009566D01*
X010979Y009571D01*
X010971Y009574D01*
X010962Y009575D01*
X011158D01*
X011149Y009574D01*
D02*
G37*
G36*
X010413D02*
X010405Y009571D01*
X010397Y009566D01*
X010391Y009559D01*
X010386Y00955D01*
X010381Y00954D01*
X010378Y009527D01*
X010375Y009512D01*
X010374Y009495D01*
X010373Y009477D01*
X010275D01*
X010274Y009495D01*
X010273Y009512D01*
X01027Y009527D01*
X010267Y00954D01*
X010263Y00955D01*
X010257Y009559D01*
X010251Y009566D01*
X010243Y009571D01*
X010235Y009574D01*
X010226Y009575D01*
X010422D01*
X010413Y009574D01*
D02*
G37*
G36*
X012557Y009081D02*
X012593Y00905D01*
X012609Y009039D01*
X012624Y00903D01*
X012637Y009025D01*
X012649Y009022D01*
X012659Y009022D01*
X012668Y009024D01*
X012676Y00903D01*
X012538Y008892D01*
X012543Y008899D01*
X012546Y008908D01*
X012546Y008919D01*
X012543Y008931D01*
X012537Y008944D01*
X012529Y008958D01*
X012518Y008974D01*
X012504Y008992D01*
X012467Y009031D01*
X012537Y009101D01*
X012557Y009081D01*
D02*
G37*
G36*
X012723Y008915D02*
X012747Y008894D01*
X012752Y008891D01*
X012756Y008888D01*
X01276Y008886D01*
X012764Y008885D01*
X012767Y008884D01*
X012672Y008805D01*
X012672Y008809D01*
X012671Y008814D01*
X01267Y008818D01*
X012667Y008823D01*
X012664Y008829D01*
X012661Y008834D01*
X012656Y00884D01*
X012645Y008853D01*
X012638Y00886D01*
X012716Y008922D01*
X012723Y008915D01*
D02*
G37*
G36*
X010121Y008854D02*
X010157Y008824D01*
X010173Y008812D01*
X010188Y008804D01*
X010201Y008798D01*
X010213Y008795D01*
X010223Y008795D01*
X010232Y008798D01*
X01024Y008803D01*
X010102Y008665D01*
X010107Y008673D01*
X01011Y008682D01*
X01011Y008692D01*
X010107Y008704D01*
X010101Y008717D01*
X010093Y008732D01*
X010082Y008748D01*
X010068Y008765D01*
X010031Y008804D01*
X010101Y008874D01*
X010121Y008854D01*
D02*
G37*
G36*
X012986Y009009D02*
X012993Y008989D01*
X013004Y008971D01*
X013021Y008956D01*
X013042Y008943D01*
X013068Y008933D01*
X013099Y008925D01*
X013134Y008919D01*
X013175Y008915D01*
X013219Y008914D01*
Y008678D01*
X013175Y008677D01*
X013134Y008673D01*
X013099Y008667D01*
X013068Y008659D01*
X013042Y008649D01*
X013021Y008636D01*
X013004Y008621D01*
X012993Y008603D01*
X012986Y008583D01*
X012983Y008561D01*
Y009031D01*
X012986Y009009D01*
D02*
G37*
G36*
X011897Y008488D02*
X011894Y00849D01*
X01189Y008493D01*
X011886Y008495D01*
X011881Y008496D01*
X011875Y008498D01*
X011868Y008499D01*
X011852Y0085D01*
X011843Y008501D01*
X011833Y008501D01*
Y008599D01*
X011843Y008599D01*
X011868Y008601D01*
X011875Y008602D01*
X011881Y008604D01*
X011886Y008605D01*
X01189Y008607D01*
X011894Y00861D01*
X011897Y008612D01*
Y008488D01*
D02*
G37*
G36*
X011299Y008639D02*
X011302Y008631D01*
X011307Y008623D01*
X011314Y008617D01*
X011323Y008612D01*
X011334Y008607D01*
X011347Y008604D01*
X011362Y008601D01*
X011379Y0086D01*
X011398Y008599D01*
Y008501D01*
X011379Y0085D01*
X011362Y008499D01*
X011347Y008496D01*
X011334Y008493D01*
X011323Y008488D01*
X011314Y008483D01*
X011307Y008477D01*
X011302Y008469D01*
X011299Y008461D01*
X011298Y008452D01*
Y008648D01*
X011299Y008639D01*
D02*
G37*
G36*
X011237Y008078D02*
X011234Y00808D01*
X01123Y008083D01*
X011226Y008085D01*
X011221Y008086D01*
X011215Y008088D01*
X011208Y008089D01*
X011192Y00809D01*
X011183Y008091D01*
X011173Y008091D01*
Y008189D01*
X011183Y008189D01*
X011208Y008191D01*
X011215Y008192D01*
X011221Y008194D01*
X011226Y008195D01*
X01123Y008197D01*
X011234Y0082D01*
X011237Y008202D01*
Y008078D01*
D02*
G37*
G36*
Y007798D02*
X011234Y0078D01*
X01123Y007803D01*
X011226Y007805D01*
X011221Y007806D01*
X011215Y007808D01*
X011208Y007809D01*
X011192Y00781D01*
X011183Y007811D01*
X011173Y007811D01*
Y007909D01*
X011183Y007909D01*
X011208Y007911D01*
X011215Y007912D01*
X011221Y007914D01*
X011226Y007915D01*
X01123Y007917D01*
X011234Y00792D01*
X011237Y007922D01*
Y007798D01*
D02*
G37*
G36*
X017312Y007763D02*
X017293Y007756D01*
X017275Y007744D01*
X01726Y007727D01*
X017247Y007706D01*
X017236Y00768D01*
X017228Y007649D01*
X017222Y007614D01*
X017219Y007574D01*
X017218Y007529D01*
X016982D01*
X01698Y007574D01*
X016977Y007614D01*
X016971Y007649D01*
X016963Y00768D01*
X016952Y007706D01*
X016939Y007727D01*
X016924Y007744D01*
X016907Y007756D01*
X016887Y007763D01*
X016865Y007765D01*
X017335D01*
X017312Y007763D01*
D02*
G37*
G36*
X011138Y007429D02*
X011141Y007421D01*
X011146Y007413D01*
X011153Y007407D01*
X011162Y007402D01*
X011173Y007397D01*
X011186Y007394D01*
X011201Y007391D01*
X011218Y00739D01*
X011232Y007389D01*
X011233Y007389D01*
X011258Y007391D01*
X011265Y007392D01*
X011271Y007394D01*
X011276Y007395D01*
X01128Y007397D01*
X011284Y0074D01*
X011287Y007402D01*
Y007278D01*
X011284Y00728D01*
X01128Y007283D01*
X011276Y007285D01*
X011271Y007286D01*
X011265Y007288D01*
X011258Y007289D01*
X011242Y00729D01*
X011233Y007291D01*
X011232Y007291D01*
X011218Y00729D01*
X011201Y007289D01*
X011186Y007286D01*
X011173Y007283D01*
X011162Y007278D01*
X011153Y007273D01*
X011146Y007267D01*
X011141Y007259D01*
X011138Y007251D01*
X011137Y007242D01*
Y007438D01*
X011138Y007429D01*
D02*
G37*
G36*
X013618Y007316D02*
X01362Y007271D01*
X013628Y007231D01*
X013639Y007195D01*
X013656Y007165D01*
X013677Y007139D01*
X013703Y007118D01*
X013734Y007101D01*
X013769Y007089D01*
X013809Y007082D01*
X013854Y00708D01*
Y006844D01*
X013809Y006841D01*
X013769Y006834D01*
X013734Y006822D01*
X013703Y006806D01*
X013677Y006784D01*
X013656Y006758D01*
X013639Y006728D01*
X013628Y006692D01*
X01362Y006652D01*
X013618Y006607D01*
X013382Y006676D01*
X01338Y006723D01*
X013375Y006768D01*
X013367Y006812D01*
X013355Y006854D01*
X01334Y006895D01*
X013322Y006935D01*
X0133Y006973D01*
X013275Y00701D01*
X013247Y007046D01*
X013216Y007079D01*
X012993Y00708D01*
X012992Y007433D01*
X012994Y007411D01*
X013002Y007391D01*
X013014Y007373D01*
X01303Y007357D01*
X013052Y007344D01*
X013078Y007334D01*
X013109Y007326D01*
X013144Y00732D01*
X013184Y007316D01*
X013229Y007315D01*
Y007102D01*
X013348Y00728D01*
X013355Y007276D01*
X01336Y007278D01*
X013365Y007284D01*
X01337Y007297D01*
X013373Y007314D01*
X013382Y007438D01*
X013382Y007483D01*
X013618Y007316D01*
D02*
G37*
G36*
X012547Y007369D02*
X012604Y007373D01*
X012628Y007377D01*
X012649Y007381D01*
X012665Y007386D01*
X012678Y007392D01*
X012687Y007399D01*
Y007231D01*
X012678Y007238D01*
X012665Y007244D01*
X012649Y007249D01*
X012628Y007253D01*
X012604Y007257D01*
X012547Y007262D01*
Y007217D01*
X012546Y007226D01*
X012543Y007234D01*
X012538Y007242D01*
X012531Y007248D01*
X012522Y007253D01*
X012511Y007258D01*
X012499Y007261D01*
X012484Y007264D01*
X012467Y007265D01*
X012458Y007265D01*
X012426Y007266D01*
Y007364D01*
X012458Y007364D01*
X012467Y007365D01*
X012484Y007366D01*
X012499Y007369D01*
X012511Y007372D01*
X012522Y007376D01*
X012531Y007382D01*
X012538Y007388D01*
X012543Y007396D01*
X012546Y007404D01*
X012547Y007413D01*
Y007369D01*
D02*
G37*
G36*
X01171Y006893D02*
X011711Y006876D01*
X011714Y006861D01*
X011717Y006848D01*
X011722Y006837D01*
X011727Y006829D01*
X011733Y006822D01*
X011741Y006817D01*
X011749Y006814D01*
X011758Y006813D01*
X011562D01*
X011571Y006814D01*
X011579Y006817D01*
X011587Y006822D01*
X011593Y006829D01*
X011598Y006837D01*
X011603Y006848D01*
X011606Y006861D01*
X011609Y006876D01*
X01161Y006893D01*
X011611Y006912D01*
X011709D01*
X01171Y006893D01*
D02*
G37*
G36*
X01883Y00535D02*
X01811D01*
Y00609D01*
X01607D01*
Y00662D01*
X01819D01*
Y00748D01*
X01883D01*
Y00535D01*
D02*
G37*
G36*
X016155Y005264D02*
X016153Y005265D01*
X016146Y005267D01*
X016134Y005268D01*
X016039Y00527D01*
X015919Y005271D01*
Y005507D01*
X015964Y005508D01*
X016004Y005512D01*
X016039Y005517D01*
X01607Y005525D01*
X016096Y005534D01*
X016117Y005546D01*
X016134Y005561D01*
X016146Y005577D01*
X016153Y005595D01*
X016155Y005616D01*
Y005264D01*
D02*
G37*
G36*
X013219Y004626D02*
X013175Y004625D01*
X013134Y004621D01*
X013099Y004615D01*
X013068Y004607D01*
X013042Y004596D01*
X013021Y004583D01*
X013004Y004568D01*
X013003Y004566D01*
X013003Y004565D01*
X01303Y004526D01*
X013063Y004484D01*
X01315Y004391D01*
X012983Y004224D01*
X012935Y004271D01*
X012895Y004305D01*
X012888Y004275D01*
X012882Y00424D01*
X012879Y0042D01*
X012878Y004155D01*
X012642D01*
X012641Y0042D01*
X012638Y00424D01*
X012632Y004275D01*
X012625Y004306D01*
X012616Y004332D01*
X012604Y004353D01*
X01259Y00437D01*
X012575Y004382D01*
X012557Y004389D01*
X012537Y004391D01*
X012649D01*
X012983Y004725D01*
X01297Y004707D01*
X012963Y004685D01*
Y00466D01*
X01297Y004631D01*
X012983Y0046D01*
Y004861D01*
X012986Y004861D01*
X012993Y004861D01*
X013219Y004862D01*
Y004626D01*
D02*
G37*
G36*
X011138Y004098D02*
X011141Y004089D01*
X011146Y004082D01*
X011153Y004076D01*
X011162Y00407D01*
X011173Y004066D01*
X011186Y004062D01*
X011201Y00406D01*
X011218Y004058D01*
X011237Y004058D01*
Y00396D01*
X011218Y003959D01*
X011201Y003958D01*
X011186Y003955D01*
X011173Y003952D01*
X011162Y003947D01*
X011153Y003942D01*
X011146Y003935D01*
X011141Y003928D01*
X011138Y00392D01*
X011137Y00391D01*
Y004107D01*
X011138Y004098D01*
D02*
G37*
G36*
X014135Y003305D02*
X014139Y003264D01*
X014145Y003229D01*
X014153Y003198D01*
X014163Y003172D01*
X014176Y003151D01*
X014191Y003134D01*
X014209Y003123D01*
X014229Y003116D01*
X014251Y003113D01*
X013781D01*
X013803Y003116D01*
X013823Y003123D01*
X013841Y003134D01*
X013856Y003151D01*
X013869Y003172D01*
X013879Y003198D01*
X013887Y003229D01*
X013893Y003264D01*
X013897Y003305D01*
X013898Y003349D01*
X014134D01*
X014135Y003305D01*
D02*
G37*
G36*
X01141Y003084D02*
X011417Y003064D01*
X011429Y003046D01*
X011446Y003031D01*
X011467Y003018D01*
X011493Y003007D01*
X011524Y002999D01*
X01156Y002993D01*
X0116Y002989D01*
X011645Y002988D01*
Y002752D01*
X0116Y002751D01*
X011525Y002744D01*
X011494Y002738D01*
X011468Y002731D01*
X011447Y002721D01*
X01143Y00271D01*
X011418Y002697D01*
X011411Y002683D01*
X011409Y002667D01*
X011408Y003106D01*
X01141Y003084D01*
D02*
G37*
G36*
X012515Y002988D02*
X012483Y002954D01*
X012455Y002919D01*
X01243Y002882D01*
X012408Y002843D01*
X01239Y002804D01*
X012375Y002763D01*
X012363Y00272D01*
X012355Y002677D01*
X01235Y002631D01*
X012348Y002585D01*
X012112Y002516D01*
X01211Y002561D01*
X012102Y002601D01*
X012091Y002636D01*
X012074Y002667D01*
X012053Y002693D01*
X012027Y002714D01*
X011996Y002731D01*
X011961Y002742D01*
X011921Y00275D01*
X011876Y002752D01*
X011945Y002988D01*
X011991Y00299D01*
X012037Y002995D01*
X01208Y003003D01*
X012123Y003015D01*
X012164Y00303D01*
X012203Y003048D01*
X012242Y00307D01*
X012279Y003095D01*
X012314Y003123D01*
X012348Y003155D01*
X012515Y002988D01*
D02*
G37*
G36*
X012348Y002352D02*
X012349Y00232D01*
X012353Y002288D01*
X01236Y002256D01*
X012368Y002225D01*
X01238Y002195D01*
X012394Y002166D01*
X01241Y002137D01*
X012429Y002109D01*
X012451Y002082D01*
X012475Y002055D01*
X011979Y002069D01*
X012004Y002094D01*
X012027Y00212D01*
X012047Y002147D01*
X012064Y002175D01*
X012079Y002203D01*
X012091Y002233D01*
X0121Y002263D01*
X012107Y002294D01*
X012111Y002326D01*
X012112Y002359D01*
X012348Y002352D01*
D02*
G37*
%LPC*%
G36*
X012714Y004411D02*
X012689D01*
X012668Y004404D01*
X012649Y004391D01*
X012774D01*
X012743Y004404D01*
X012714Y004411D01*
D02*
G37*
%LPD*%
G36*
X016252Y014258D02*
X016251Y014268D01*
X016248Y014276D01*
X016243Y014283D01*
X016236Y01429D01*
X016227Y014295D01*
X016216Y0143D01*
X016203Y014303D01*
X016188Y014305D01*
X016171Y014307D01*
X016153Y014307D01*
Y014406D01*
X016171Y014406D01*
X016188Y014408D01*
X016203Y01441D01*
X016216Y014414D01*
X016227Y014418D01*
X016236Y014424D01*
X016243Y01443D01*
X016248Y014437D01*
X016251Y014446D01*
X016252Y014455D01*
Y014258D01*
D02*
G37*
G36*
X015139Y014446D02*
X015142Y014437D01*
X015147Y01443D01*
X015154Y014424D01*
X015163Y014418D01*
X015174Y014414D01*
X015187Y01441D01*
X015202Y014408D01*
X015219Y014406D01*
X015238Y014406D01*
Y014307D01*
X015219Y014307D01*
X015202Y014305D01*
X015187Y014303D01*
X015174Y0143D01*
X015163Y014295D01*
X015154Y01429D01*
X015147Y014283D01*
X015142Y014276D01*
X015139Y014268D01*
X015138Y014258D01*
Y014455D01*
X015139Y014446D01*
D02*
G37*
G36*
X015005Y014121D02*
X014997Y014118D01*
X014989Y014113D01*
X014983Y014106D01*
X014978Y014097D01*
X014973Y014086D01*
X01497Y014073D01*
X014967Y014059D01*
X014966Y014042D01*
X014965Y014023D01*
X014867D01*
X014866Y014042D01*
X014865Y014059D01*
X014862Y014073D01*
X014859Y014086D01*
X014854Y014097D01*
X014849Y014106D01*
X014843Y014113D01*
X014835Y014118D01*
X014827Y014121D01*
X014818Y014122D01*
X015014D01*
X015005Y014121D01*
D02*
G37*
G36*
X01439Y012966D02*
X014371Y012946D01*
X01434Y01291D01*
X014329Y012894D01*
X01432Y012879D01*
X014315Y012866D01*
X014312Y012854D01*
X014312Y012844D01*
X014314Y012835D01*
X01432Y012827D01*
X014182Y012965D01*
X014189Y01296D01*
X014198Y012957D01*
X014209Y012957D01*
X01422Y01296D01*
X014234Y012966D01*
X014248Y012974D01*
X014264Y012985D01*
X014282Y012999D01*
X014321Y013036D01*
X01439Y012966D01*
D02*
G37*
G36*
X014271Y012847D02*
X014264Y01284D01*
X014243Y012816D01*
X01424Y012811D01*
X014237Y012807D01*
X014235Y012803D01*
X014233Y0128D01*
X014232Y012797D01*
X01416Y012897D01*
X014164Y012897D01*
X014168Y012898D01*
X014173Y012899D01*
X014178Y012901D01*
X014183Y012904D01*
X014189Y012908D01*
X014195Y012912D01*
X014201Y012917D01*
X014215Y01293D01*
X014271Y012847D01*
D02*
G37*
G36*
X014213Y010685D02*
X014205Y010682D01*
X014197Y010677D01*
X014191Y01067D01*
X014186Y010661D01*
X014181Y01065D01*
X014178Y010637D01*
X014175Y010622D01*
X014174Y010605D01*
X014173Y010587D01*
X014075D01*
X014074Y010605D01*
X014073Y010622D01*
X01407Y010637D01*
X014067Y01065D01*
X014062Y010661D01*
X014057Y01067D01*
X014051Y010677D01*
X014043Y010682D01*
X014035Y010685D01*
X014026Y010686D01*
X014222D01*
X014213Y010685D01*
D02*
G37*
G36*
X016575Y010676D02*
X016567Y010673D01*
X016559Y010668D01*
X016553Y010661D01*
X016547Y010652D01*
X016543Y010641D01*
X01654Y010629D01*
X016537Y010614D01*
X016536Y010597D01*
X016535Y010578D01*
X016437D01*
X016436Y010597D01*
X016435Y010614D01*
X016432Y010629D01*
X016429Y010641D01*
X016424Y010652D01*
X016419Y010661D01*
X016413Y010668D01*
X016405Y010673D01*
X016397Y010676D01*
X016388Y010677D01*
X016584D01*
X016575Y010676D01*
D02*
G37*
G36*
X014174Y009736D02*
X014175Y009719D01*
X014178Y009704D01*
X014181Y009691D01*
X014186Y00968D01*
X014191Y009671D01*
X014197Y009664D01*
X014205Y009659D01*
X014213Y009656D01*
X014222Y009655D01*
X014026D01*
X014035Y009656D01*
X014043Y009659D01*
X014051Y009664D01*
X014057Y009671D01*
X014062Y00968D01*
X014067Y009691D01*
X01407Y009704D01*
X014073Y009719D01*
X014074Y009736D01*
X014075Y009755D01*
X014173D01*
X014174Y009736D01*
D02*
G37*
G36*
X014173Y009621D02*
X014176Y009596D01*
X014177Y009589D01*
X014178Y009583D01*
X01418Y009578D01*
X014182Y009574D01*
X014185Y00957D01*
X014188Y009567D01*
X014064Y009559D01*
X014066Y009562D01*
X014068Y009565D01*
X014069Y00957D01*
X014071Y009575D01*
X014072Y009581D01*
X014073Y009588D01*
X014074Y009603D01*
X014075Y009622D01*
X014173Y00963D01*
X014173Y009621D01*
D02*
G37*
G36*
X014196Y00956D02*
X0142Y009557D01*
X014204Y009555D01*
X014209Y009554D01*
X014215Y009552D01*
X014222Y009551D01*
X014238Y00955D01*
X014247Y009549D01*
X014257Y009549D01*
Y009451D01*
X014247Y009451D01*
X014222Y009449D01*
X014215Y009448D01*
X014209Y009446D01*
X014204Y009445D01*
X0142Y009443D01*
X014196Y00944D01*
X014193Y009438D01*
Y009562D01*
X014196Y00956D01*
D02*
G37*
G36*
X014321Y009589D02*
X014324Y009581D01*
X014329Y009573D01*
X014336Y009567D01*
X014345Y009562D01*
X014356Y009557D01*
X014368Y009554D01*
X014383Y009551D01*
X0144Y00955D01*
X014419Y009549D01*
Y009451D01*
X0144Y00945D01*
X014383Y009449D01*
X014368Y009446D01*
X014356Y009443D01*
X014345Y009438D01*
X014336Y009433D01*
X014329Y009427D01*
X014324Y009419D01*
X014321Y009411D01*
X01432Y009402D01*
Y009598D01*
X014321Y009589D01*
D02*
G37*
G36*
X007202Y010716D02*
X007199Y010713D01*
X007197Y01071D01*
X007195Y010705D01*
X007193Y0107D01*
X007192Y010694D01*
X007191Y010687D01*
X007189Y010672D01*
X007189Y010663D01*
X007189Y010653D01*
X00709Y010654D01*
X00709Y010663D01*
X007088Y010688D01*
X007087Y010695D01*
X007086Y010701D01*
X007084Y010706D01*
X007082Y010711D01*
X00708Y010714D01*
X007078Y010717D01*
X007202Y010716D01*
D02*
G37*
G36*
X007189Y008306D02*
X007191Y008282D01*
X007192Y008275D01*
X007193Y008269D01*
X007195Y008264D01*
X007197Y008259D01*
X007199Y008256D01*
X007201Y008253D01*
X007077D01*
X00708Y008256D01*
X007082Y008259D01*
X007084Y008264D01*
X007086Y008269D01*
X007087Y008275D01*
X007088Y008282D01*
X00709Y008297D01*
X00709Y008306D01*
X00709Y008316D01*
X007189D01*
X007189Y008306D01*
D02*
G37*
G36*
X01657Y00766D02*
X01465D01*
Y00832D01*
X01657D01*
Y00766D01*
D02*
G37*
G36*
X012196Y006298D02*
X012193Y006301D01*
X01219Y006303D01*
X012185Y006305D01*
X01218Y006307D01*
X012174Y006308D01*
X012167Y006309D01*
X012152Y006311D01*
X012143Y006311D01*
X012133Y006311D01*
X012134Y00641D01*
X012143Y00641D01*
X012168Y006412D01*
X012175Y006413D01*
X012181Y006414D01*
X012186Y006416D01*
X012191Y006418D01*
X012194Y00642D01*
X012197Y006422D01*
X012196Y006298D01*
D02*
G37*
G36*
X011077Y004848D02*
X011081Y004846D01*
X011086Y004844D01*
X011091Y004842D01*
X011097Y004841D01*
X011103Y004839D01*
X011111Y004839D01*
X011128Y004837D01*
X011138Y004837D01*
X011136Y004739D01*
X011126Y004739D01*
X011101Y004737D01*
X011094Y004736D01*
X011088Y004735D01*
X011083Y004733D01*
X011078Y004731D01*
X011075Y004729D01*
X011072Y004727D01*
X011075Y004851D01*
X011077Y004848D01*
D02*
G37*
G36*
X01881Y00468D02*
Y00115D01*
X01802D01*
X017985Y001186D01*
X01804Y00475D01*
X01881D01*
Y00468D01*
D02*
G37*
D10*
X007156Y004386D02*
G03*
X007139Y004346I00004J-00004D01*
G01*
X007995Y004968D02*
G03*
X007742Y004696I00002J-000272D01*
G01*
X007274Y003567D02*
G03*
X007742Y004696I-001129J00113D01*
G01*
X005557Y000883D02*
G03*
X00567Y00077I000113J0D01*
G01*
X007139Y008189D02*
Y01078D01*
X007156Y004386D02*
X00755Y00478D01*
X0081Y01114D02*
X008472Y010768D01*
X00607Y01121D02*
X00614Y01114D01*
X0081D01*
X01076Y01077D02*
X011076Y010454D01*
Y00981D02*
Y010454D01*
X0063Y0019D02*
X00767Y00327D01*
X00604Y00041D02*
X0063Y00067D01*
Y0019D01*
X00683Y0006D02*
X00858D01*
X00884Y00086D01*
X0066Y00083D02*
X00683Y0006D01*
X0066Y00083D02*
Y00136D01*
X00607Y01121D02*
Y01309D01*
X008472Y00981D02*
Y010768D01*
X00607Y01309D02*
X006206Y013226D01*
X00902D01*
X01145Y00101D02*
X01352D01*
X011225Y001235D02*
Y00156D01*
Y001235D02*
X01145Y00101D01*
X014876Y01092D02*
X01493Y010974D01*
Y01132D01*
X01474Y01151D02*
X01493Y01132D01*
X01353Y01151D02*
X01474D01*
X01353D02*
Y01418D01*
X013707Y014357D01*
X014164D01*
X01115Y00933D02*
X012238D01*
X01276Y008808D01*
X01106Y00942D02*
X01115Y00933D01*
X01106Y009794D02*
X011076Y00981D01*
X01106Y00942D02*
Y009794D01*
X01276Y008796D02*
Y008808D01*
X01225Y00789D02*
Y00867D01*
X01045Y00911D02*
X01181D01*
X01225Y00867D01*
X011095Y00855D02*
X01196D01*
X011076Y008569D02*
X011095Y00855D01*
X01116Y0068D02*
X01225Y00789D01*
X013314Y011726D02*
X01353Y01151D01*
Y00861D02*
Y01151D01*
X0135Y00858D02*
X01353Y00861D01*
X00104Y008776D02*
Y01213D01*
Y008776D02*
X00136Y008456D01*
Y00833D02*
Y008456D01*
X0098Y014213D02*
Y014726D01*
Y0137D02*
Y014213D01*
X009787Y014226D02*
X0098Y014213D01*
X00902Y014226D02*
X009787D01*
X0098Y01322D02*
Y0137D01*
X00902Y013726D02*
X009774D01*
X0098Y0137D01*
Y012768D02*
Y01322D01*
X009794Y013226D02*
X0098Y01322D01*
X00902Y013226D02*
X009794D01*
X0098Y014726D02*
X011786D01*
X00902D02*
X0098D01*
X00902Y012726D02*
X009036Y01271D01*
X009742D01*
X0098Y012768D01*
X01176Y01322D02*
Y01373D01*
Y00986D02*
Y01322D01*
X011766Y013226D01*
X01276D01*
X01176Y01373D02*
Y01423D01*
Y01373D02*
X011764Y013726D01*
X01276D01*
X01176Y01423D02*
Y0147D01*
Y01423D02*
X011764Y014226D01*
X01276D01*
X011786Y014726D02*
X01276D01*
X01176Y0147D02*
X011786Y014726D01*
X01176Y00986D02*
X012076Y009544D01*
X01276D01*
X01276Y011726D02*
X013314D01*
X009111Y007336D02*
Y008429D01*
X009222Y00854D01*
X008734Y007336D02*
X008914D01*
X008474Y007596D02*
X008734Y007336D01*
X008474Y007596D02*
Y00854D01*
X01166Y006755D02*
Y00695D01*
X012025Y007315D02*
X01277D01*
X01166Y00695D02*
X012025Y007315D01*
X01217Y00665D02*
X012687D01*
X01277Y006567D01*
X012078Y006558D02*
X01217Y00665D01*
X01166Y006558D02*
X012078D01*
X01067Y00156D02*
X011225D01*
X010426Y001804D02*
X01067Y00156D01*
X010426Y001804D02*
Y00289D01*
X01057Y0034D02*
Y003421D01*
X010686Y003537D02*
Y004009D01*
X01057Y003421D02*
X010686Y003537D01*
X01088Y003332D02*
Y004006D01*
X010882Y004009D01*
X010426Y00289D02*
X010438D01*
X01088Y003332D01*
X01157Y00288D02*
X01168Y00299D01*
Y00384D01*
X011511Y004009D02*
X01168Y00384D01*
X011079Y004009D02*
X011511D01*
X008138Y004983D02*
X008333D01*
X007995Y004968D02*
X008138Y004975D01*
Y004983D01*
X005557Y00185D02*
X007274Y003567D01*
X00755Y00503D02*
X0077Y00518D01*
X008333D01*
X00755Y00478D02*
Y00503D01*
X007279Y005234D02*
X007454D01*
X007597Y005377D02*
X008333D01*
X007454Y005234D02*
X007597Y005377D01*
X007139Y005094D02*
X007279Y005234D01*
X007445Y005574D02*
X008333D01*
X007391Y00552D02*
X007445Y005574D01*
X00737Y00552D02*
X007391D01*
X012259Y006361D02*
X01226Y00636D01*
X01166Y006361D02*
X011661Y006361D01*
X012259D01*
X011079Y007336D02*
X011084Y00734D01*
X01135D01*
X01002Y0068D02*
X01116D01*
X014125Y0095D02*
X01413D01*
X014125D02*
X01629D01*
X01067Y00786D02*
X0113D01*
X010489Y007679D02*
X01067Y00786D01*
X010489Y007336D02*
Y007679D01*
X014145Y01281D02*
X014165D01*
X0105Y00814D02*
X0113D01*
X010292Y007932D02*
X0105Y00814D01*
X010292Y007336D02*
Y007932D01*
X01629Y0095D02*
X016486Y009696D01*
Y0109D01*
X014124Y009501D02*
X014125Y0095D01*
X014124Y009501D02*
Y01092D01*
X014916Y013561D02*
Y014357D01*
X014165Y01281D02*
X014916Y013561D01*
X016469Y014357D02*
X016486Y01434D01*
X014916Y014357D02*
X016469D01*
X007149Y002399D02*
X007611Y002861D01*
X008114D01*
X007149Y001894D02*
Y002399D01*
Y001882D02*
Y001894D01*
X007472Y00156D02*
X008075D01*
X007149Y001882D02*
X007472Y00156D01*
X01101Y00479D02*
X011012Y004788D01*
X011658D02*
X01166Y004786D01*
X011012Y004788D02*
X011658D01*
X010098Y003452D02*
Y004006D01*
X010095Y004009D02*
X010098Y004006D01*
Y003452D02*
X0101Y00345D01*
X00833Y004586D02*
X008333Y004589D01*
X00833Y00393D02*
Y004586D01*
X00841Y00327D02*
X00864Y0035D01*
Y00434D01*
X00767Y00327D02*
X00841D01*
X00864Y00434D02*
X00879Y00449D01*
X009053D02*
X009111Y004432D01*
Y004009D02*
Y004432D01*
X00879Y00449D02*
X009053D01*
X00236Y00058D02*
Y00133D01*
X00252Y00042D02*
X00254D01*
X00236Y00058D02*
X00252Y00042D01*
X00254D02*
X00255Y00041D01*
X00604D01*
X00155Y00017D02*
X00896D01*
X00136Y00036D02*
Y00133D01*
Y00036D02*
X00155Y00017D01*
X00896D02*
X00924Y00045D01*
Y003172D01*
X01046Y004689D02*
Y00471D01*
X010489Y004009D02*
Y00466D01*
X00648Y00771D02*
Y00916D01*
X0067Y00749D02*
X00819D01*
X00648Y00771D02*
X0067Y00749D01*
X00819D02*
X00892Y00676D01*
X00419Y00945D02*
X00619D01*
X00648Y00916D01*
X00387Y00913D02*
X00419Y00945D01*
X00387Y00753D02*
Y00913D01*
X00236Y00733D02*
X00367D01*
X00387Y00753D01*
X00892Y00491D02*
Y00676D01*
X008333Y004786D02*
X008796D01*
X00892Y00491D01*
X009898Y004498D02*
X01011Y00471D01*
X009898Y004009D02*
Y004498D01*
X009705Y003455D02*
X00971Y00345D01*
X009701Y004009D02*
X009705Y004005D01*
Y003455D02*
Y004005D01*
X0096Y004699D02*
Y00472D01*
X009504Y004009D02*
Y004603D01*
X0096Y004699D01*
X009311Y003459D02*
Y004005D01*
X009308Y004009D02*
X009311Y004005D01*
Y003459D02*
X00932Y00345D01*
X009162Y00325D02*
X00924Y003172D01*
X008914Y003336D02*
X009Y00325D01*
X008914Y003336D02*
Y004009D01*
X009Y00325D02*
X009162D01*
X0097Y007337D02*
X009701Y007336D01*
X0097Y007337D02*
Y00972D01*
X00961Y00981D02*
X0097Y00972D01*
X009224Y00981D02*
X00961D01*
X00995Y008945D02*
Y01094D01*
X00996Y008945D02*
X010324Y008581D01*
X009674Y011226D02*
X00996Y01094D01*
X010324Y008569D02*
Y008581D01*
Y008558D02*
Y008569D01*
X009902Y006918D02*
Y007332D01*
Y006918D02*
X01002Y0068D01*
X009898Y007336D02*
X009902Y007332D01*
X010324Y009236D02*
Y00981D01*
Y009236D02*
X01045Y00911D01*
X010095Y007336D02*
Y008329D01*
X010324Y008558D01*
X00902Y011226D02*
X009674D01*
X010164Y011726D02*
X010324Y011566D01*
Y00981D02*
Y011566D01*
X00902Y011726D02*
X010164D01*
X005557Y000883D02*
Y00185D01*
X007325Y006751D02*
X007499D01*
X0076Y00665D01*
X00715Y006926D02*
X007325Y006751D01*
X0076Y00619D02*
Y00665D01*
Y00619D02*
X007823Y005967D01*
X008333D01*
X007162Y006174D02*
X007337Y005999D01*
Y005843D02*
Y005999D01*
X00715Y006174D02*
X007162D01*
X007337Y005843D02*
X007409Y005771D01*
X008333D01*
X00528Y00595D02*
X005504Y006174D01*
X00715D01*
X00528Y00482D02*
Y00595D01*
X007138Y006926D02*
X00715D01*
X00527Y00675D02*
X006962D01*
X007138Y006926D01*
X00528Y004655D02*
X005524Y004411D01*
Y00295D02*
Y004411D01*
X00528Y004655D02*
Y00482D01*
X00527Y006872D02*
X005564Y007166D01*
X00527Y00675D02*
Y006872D01*
X005564Y007166D02*
Y00859D01*
D17*
X008333Y006755D02*
D03*
Y006558D02*
D03*
Y006361D02*
D03*
Y006164D02*
D03*
Y005967D02*
D03*
Y005771D02*
D03*
Y005574D02*
D03*
Y005377D02*
D03*
Y00518D02*
D03*
Y004983D02*
D03*
Y004786D02*
D03*
Y004589D02*
D03*
X01166D02*
D03*
Y004786D02*
D03*
Y004983D02*
D03*
Y00518D02*
D03*
Y005377D02*
D03*
Y005574D02*
D03*
Y005771D02*
D03*
Y005967D02*
D03*
Y006164D02*
D03*
Y006361D02*
D03*
Y006558D02*
D03*
Y006755D02*
D03*
D18*
X008914Y004009D02*
D03*
X009111D02*
D03*
X009308D02*
D03*
X009504D02*
D03*
X009701D02*
D03*
X009898D02*
D03*
X010095D02*
D03*
X010292D02*
D03*
X010489D02*
D03*
X010686D02*
D03*
X010882D02*
D03*
X011079D02*
D03*
Y007336D02*
D03*
X010882D02*
D03*
X010686D02*
D03*
X010489D02*
D03*
X010292D02*
D03*
X010095D02*
D03*
X009898D02*
D03*
X009701D02*
D03*
X009504D02*
D03*
X009308D02*
D03*
X009111D02*
D03*
X008914D02*
D03*
D19*
X01276Y014726D02*
D03*
Y014226D02*
D03*
Y013726D02*
D03*
Y013226D02*
D03*
Y012726D02*
D03*
Y012226D02*
D03*
Y011726D02*
D03*
Y011226D02*
D03*
X00902Y014726D02*
D03*
Y014226D02*
D03*
Y013726D02*
D03*
Y013226D02*
D03*
Y012726D02*
D03*
Y012226D02*
D03*
Y011726D02*
D03*
Y011226D02*
D03*
D20*
X01848Y007944D02*
D03*
Y007196D02*
D03*
X01276Y005374D02*
D03*
Y004626D02*
D03*
X007149Y001146D02*
D03*
Y001894D02*
D03*
X01276Y009544D02*
D03*
Y008796D02*
D03*
X01277Y006567D02*
D03*
Y007315D02*
D03*
X007139Y005094D02*
D03*
Y004346D02*
D03*
D21*
X017275Y0095D02*
D03*
X014125D02*
D03*
X017275Y01281D02*
D03*
X014125D02*
D03*
X008075Y00156D02*
D03*
X011225D02*
D03*
D22*
X014876Y01092D02*
D03*
X014124D02*
D03*
X014164Y014357D02*
D03*
X014916D02*
D03*
X014164Y008002D02*
D03*
X014916D02*
D03*
X008866Y002861D02*
D03*
X008114D02*
D03*
X004805Y00185D02*
D03*
X005557D02*
D03*
X010324Y00981D02*
D03*
X011076D02*
D03*
X010324Y008569D02*
D03*
X011076D02*
D03*
X008472Y00981D02*
D03*
X009224D02*
D03*
D23*
X017234Y0109D02*
D03*
X016486D02*
D03*
X017234Y01434D02*
D03*
X016486D02*
D03*
X014016Y00289D02*
D03*
X014764D02*
D03*
X010426D02*
D03*
X011174D02*
D03*
X009222Y00854D02*
D03*
X008474D02*
D03*
X004816Y00859D02*
D03*
X005564D02*
D03*
X004776Y00295D02*
D03*
X005524D02*
D03*
D24*
X0171Y008D02*
D03*
X016273D02*
D03*
D25*
X016577Y004538D02*
D03*
Y00544D02*
D03*
Y006342D02*
D03*
D26*
X01427Y00544D02*
D03*
D27*
X01849Y00449D02*
D03*
Y005632D02*
D03*
D28*
X00104Y01213D02*
D03*
D29*
X00726D02*
D03*
D30*
X00715Y006174D02*
D03*
Y006926D02*
D03*
D50*
X0169Y00101D02*
X01744Y00155D01*
X015952Y00101D02*
X0169D01*
X016577Y002413D02*
X01744Y00155D01*
X007356Y012226D02*
X00902D01*
X00726Y01213D02*
X007356Y012226D01*
X01609Y001148D02*
Y00259D01*
X0135Y006962D02*
X016882D01*
X0171Y00718D01*
Y008D01*
X017273Y0095D02*
X017275D01*
X017235D02*
X017273D01*
X014164Y008002D02*
Y008844D01*
X01437Y00905D01*
X016785D02*
X017235Y0095D01*
X01437Y00905D02*
X016785D01*
X01853Y007994D02*
Y00932D01*
X01848Y007944D02*
X01853Y007994D01*
X01835Y0095D02*
X01853Y00932D01*
X017275Y0095D02*
X01835D01*
X017234Y009539D02*
Y0109D01*
Y009539D02*
X017273Y0095D01*
X017254Y01092D02*
Y01279D01*
X017275Y01281D01*
X017234Y0109D02*
X017254Y01092D01*
X017273Y01281D02*
X017275D01*
X017234Y012849D02*
Y01434D01*
Y012849D02*
X017273Y01281D01*
X01223Y001819D02*
Y00287D01*
X01222Y001809D02*
X01223Y001819D01*
X01331Y00122D02*
X01352Y00101D01*
X01322Y001809D02*
X01331Y001719D01*
Y00122D02*
Y001719D01*
X015952Y00101D02*
X01609Y001148D01*
X01352Y00101D02*
X015952D01*
X014764Y00289D02*
X01579D01*
X01609Y00259D01*
X014Y0041D02*
X01445D01*
X013274D02*
X014D01*
X014016Y00289D02*
Y004084D01*
X014Y0041D02*
X014016Y004084D01*
X016577Y002413D02*
Y004538D01*
X00969Y00086D02*
X01049D01*
X00884Y002835D02*
X008866Y002861D01*
X00884Y00086D02*
Y002835D01*
X011174Y00289D02*
Y002894D01*
X01322Y001809D02*
X013274Y001864D01*
X01276Y008796D02*
X013284D01*
X0135Y006962D02*
Y00858D01*
X013284Y008796D02*
X0135Y00858D01*
X012765Y00732D02*
X01277Y007315D01*
X0135Y00496D02*
Y006962D01*
X012876Y007197D02*
X013265D01*
X0135Y006962D01*
X01276Y004638D02*
X012866Y004744D01*
X013284D01*
X01276Y004626D02*
Y004638D01*
X013284Y004744D02*
X0135Y00496D01*
X01276Y004614D02*
Y004626D01*
Y0034D02*
Y004614D01*
X011174Y00289D02*
X011194Y00287D01*
X01223D01*
X01276Y0034D01*
X015739Y005389D02*
X016526D01*
X01445Y0041D02*
X015739Y005389D01*
X01276Y004614D02*
X013274Y0041D01*
X016526Y005389D02*
X016577Y00544D01*
D51*
X012765Y006562D02*
X01277Y006567D01*
X012765Y005379D02*
Y006562D01*
X01276Y005374D02*
X012765Y005379D01*
D52*
X01844Y00155D02*
D03*
X01744D02*
D03*
X00467Y00086D02*
D03*
X00567D02*
D03*
D53*
X01522Y001809D02*
D03*
X01422D02*
D03*
X01322D02*
D03*
X01222D02*
D03*
X00528Y00482D02*
D03*
X00527Y00675D02*
D03*
D54*
X005595Y01213D02*
D03*
D55*
X002642D02*
D03*
D56*
X00236Y00333D02*
D03*
Y00433D02*
D03*
Y00533D02*
D03*
Y00633D02*
D03*
Y00733D02*
D03*
Y00833D02*
D03*
X00136Y00133D02*
D03*
Y00233D02*
D03*
Y00333D02*
D03*
Y00433D02*
D03*
Y00533D02*
D03*
Y00633D02*
D03*
Y00733D02*
D03*
Y00833D02*
D03*
X00236Y00133D02*
D03*
Y00233D02*
D03*
D57*
X018602Y013385D02*
D03*
X017913Y012007D02*
D03*
X018602Y01063D02*
D03*
Y005118D02*
D03*
X016535Y012007D02*
D03*
X017224Y005118D02*
D03*
X015846Y013385D02*
D03*
X015157Y012007D02*
D03*
X015846Y01063D02*
D03*
X01378Y012007D02*
D03*
X013091Y01063D02*
D03*
X012402Y00374D02*
D03*
X013091Y002362D02*
D03*
X011713D02*
D03*
X008268Y000984D02*
D03*
X007579Y007874D02*
D03*
X00689Y00374D02*
D03*
X007579Y002362D02*
D03*
X006201Y005118D02*
D03*
X004823Y013385D02*
D03*
X004134Y012007D02*
D03*
X004823Y007874D02*
D03*
X004134Y000984D02*
D03*
X003445Y013385D02*
D03*
X002067D02*
D03*
X001378Y009252D02*
D03*
D58*
X007139Y008189D02*
D03*
X00714Y01078D02*
D03*
X01076Y01077D02*
D03*
X008474Y00854D02*
D03*
X007139Y004346D02*
D03*
X0066Y00136D02*
D03*
X01276Y008796D02*
D03*
X01196Y00855D02*
D03*
X01057Y0034D02*
D03*
X00739Y00552D02*
D03*
X01226Y00636D02*
D03*
X01135Y00734D02*
D03*
X01413Y0095D02*
D03*
X0113Y00786D02*
D03*
X014145Y01281D02*
D03*
X0113Y00814D02*
D03*
X008123Y002836D02*
D03*
X01101Y00479D02*
D03*
X0101Y00345D02*
D03*
X00833Y00393D02*
D03*
X01046Y00471D02*
D03*
X01011D02*
D03*
X00971Y00345D02*
D03*
X0096Y00472D02*
D03*
X00932Y00345D02*
D03*
X00615Y00281D02*
D03*
X00716Y00385D02*
D03*
X00676Y00339D02*
D03*
X00644Y00308D02*
D03*
X00564Y00233D02*
D03*
X00608Y00202D02*
D03*
X00636Y00231D02*
D03*
X00675Y0027D02*
D03*
X00716Y0031D02*
D03*
X00755Y0035D02*
D03*
X00787Y00391D02*
D03*
X00799Y00435D02*
D03*
X00584Y00812D02*
D03*
X00583Y00761D02*
D03*
Y00708D02*
D03*
X00592Y00646D02*
D03*
X0066D02*
D03*
X00634Y00587D02*
D03*
X0057Y00581D02*
D03*
X00567Y0053D02*
D03*
X00577Y00371D02*
D03*
X00489Y00415D02*
D03*
X00482Y00354D02*
D03*
X00445Y00386D02*
D03*
X00447Y00463D02*
D03*
X00442Y0053D02*
D03*
X00478Y00607D02*
D03*
X00438Y00668D02*
D03*
X00467Y00741D02*
D03*
X00507Y00793D02*
D03*
X00435D02*
D03*
D59*
X00969Y00086D02*
D03*
X00884D02*
D03*
X01049D02*
D03*
X01115Y0029D02*
D03*
M02*
