M48
;Layer_Color=9474304
;FILE_FORMAT=2:4
INCH,LZ
;TYPE=PLATED
T1F00S00C0.0098
T2F00S00C0.0106
T3F00S00C0.0157
T4F00S00C0.0300
T5F00S00C0.0394
T6F00S00C0.0472
T7F00S00C0.0512
%
T01
X0066Y00451
X00608Y00517
X00636Y00546
X00615Y00596
X00644Y00623
X00676Y00654
X00716Y00625
Y007
X007139Y007496
X00799Y0075
X00787Y00706
X00833Y00708
X00755Y00665
X008123Y005986
X00675Y00585
X00564Y00548
X00577Y00686
X00482Y00669
X00489Y0073
X00445Y00701
X00447Y00778
X00442Y00845
X00478Y00922
X00438Y00983
X00467Y01056
X00435Y01108
X00507
X00584Y01127
X00583Y01076
Y01023
X00592Y00961
X0066
X00634Y00902
X0057Y00896
X00567Y00845
X00739Y00867
X007139Y011339
X008474Y01169
X0113Y01129
Y01101
X01135Y01049
X01196Y0117
X01276Y011946
X01413Y01265
X01076Y01392
X00714Y01393
X0096Y00787
X01011Y00786
X01046
X01101Y00794
X01057Y00655
X0101Y0066
X00971
X00932
X01226Y00951
X014145Y01596
T02
X004134Y004134
X008268
X007579Y005512
X00689Y00689
X006201Y008268
X007579Y011024
X004823
X004134Y015157
X001378Y012402
X013091Y01378
X01378Y015157
X015157
X012402Y00689
X013091Y005512
X011713
X017224Y008268
X018602
Y01378
X017913Y015157
X016535
X015846Y01378
Y016535
X018602
X004823
X003445
X002067
T03
X00884Y00401
X00969
X01049
X01115Y00605
T04
X00467Y00401
X00567
T05
X00528Y00797
X00527Y0099
X002642Y01528
X01222Y004959
X01322
X01422
X01522
X01744Y0047
X01844
T06
X00136Y00448
Y00548
Y00648
X00236
Y00748
Y00848
Y00948
Y01048
Y01148
X00136
Y01048
Y00948
Y00848
Y00748
X00236Y00548
Y00448
T07
X005595Y01528
M30
