G04*
G04 #@! TF.GenerationSoftware,Altium Limited,Altium Designer,22.11.1 (43)*
G04*
G04 Layer_Physical_Order=2*
G04 Layer_Color=16711680*
%FSTAX24Y24*%
%MOIN*%
G70*
G04*
G04 #@! TF.SameCoordinates,C1124A1A-70A5-44B8-A6FF-2808BC57BE08*
G04*
G04*
G04 #@! TF.FilePolarity,Positive*
G04*
G01*
G75*
%ADD10C,0.0098*%
%ADD50C,0.0236*%
%ADD52C,0.0600*%
%ADD53C,0.0709*%
%ADD54C,0.0512*%
%ADD55C,0.0394*%
%ADD56C,0.0787*%
%ADD57C,0.0185*%
%ADD58C,0.0177*%
%ADD59C,0.0236*%
G36*
X007213Y010832D02*
X007216Y010829D01*
X007221Y010827D01*
X007226Y010825D01*
X007231Y010823D01*
X007238Y010822D01*
X007246Y010821D01*
X007263Y010819D01*
X007273Y010819D01*
X007259Y010721D01*
X007249Y010721D01*
X007218Y010718D01*
X007212Y010717D01*
X007206Y010716D01*
X007202Y010715D01*
X007199Y010713D01*
X007196Y010711D01*
X00721Y010834D01*
X007213Y010832D01*
D02*
G37*
G36*
X010697Y010708D02*
X010694Y01071D01*
X01069Y010713D01*
X010686Y010715D01*
X010681Y010716D01*
X010675Y010718D01*
X010668Y010719D01*
X010652Y01072D01*
X010643Y010721D01*
X010633Y010721D01*
Y010819D01*
X010643Y010819D01*
X010668Y010821D01*
X010675Y010822D01*
X010681Y010824D01*
X010686Y010825D01*
X01069Y010827D01*
X010694Y01083D01*
X010697Y010832D01*
Y010708D01*
D02*
G37*
G36*
X002411Y008931D02*
X002418Y008903D01*
X002429Y008874D01*
X002445Y008842D01*
X002465Y008809D01*
X00249Y008773D01*
X00252Y008735D01*
X002592Y008655D01*
X002635Y008611D01*
X002084D01*
X002127Y008655D01*
X002229Y008773D01*
X002254Y008809D01*
X002274Y008842D01*
X00229Y008874D01*
X002301Y008903D01*
X002308Y008931D01*
X00231Y008957D01*
X002409D01*
X002411Y008931D01*
D02*
G37*
G36*
X008411Y008478D02*
X008408Y00848D01*
X008404Y008483D01*
X0084Y008485D01*
X008394Y008486D01*
X008388Y008488D01*
X008382Y008489D01*
X008366Y00849D01*
X008357Y008491D01*
X008347Y008491D01*
Y008589D01*
X008357Y008589D01*
X008382Y008591D01*
X008388Y008592D01*
X008394Y008594D01*
X0084Y008595D01*
X008404Y008597D01*
X008408Y0086D01*
X008411Y008602D01*
Y008478D01*
D02*
G37*
G36*
X009159Y008888D02*
Y003551D01*
X009133Y003487D01*
Y003413D01*
X009125Y003401D01*
X009062D01*
X009051Y003412D01*
Y00533D01*
X009039Y005388D01*
X009006Y005436D01*
X008816Y005626D01*
X008768Y005659D01*
X00871Y005671D01*
X007504D01*
X007496Y005679D01*
X007427Y005707D01*
X007353D01*
X007331Y005698D01*
X00729Y005726D01*
Y008075D01*
X007298Y008083D01*
X007326Y008152D01*
Y008163D01*
X007552Y008389D01*
X00836D01*
X008368Y008381D01*
X008437Y008353D01*
X008511D01*
X00858Y008381D01*
X008632Y008434D01*
X008661Y008503D01*
Y008577D01*
X008632Y008646D01*
X00858Y008699D01*
X008511Y008727D01*
X008437D01*
X008368Y008699D01*
X00836Y008691D01*
X00749D01*
X007432Y008679D01*
X007384Y008646D01*
X007114Y008376D01*
X007102D01*
X007033Y008348D01*
X006981Y008295D01*
X006952Y008227D01*
Y008152D01*
X006981Y008083D01*
X006989Y008075D01*
Y00446D01*
X006981Y004452D01*
X006952Y004383D01*
Y004309D01*
X006981Y00424D01*
X007033Y004187D01*
X007102Y004159D01*
X007177D01*
X007245Y004187D01*
X007298Y00424D01*
X007326Y004309D01*
Y004383D01*
X007298Y004452D01*
X00729Y00446D01*
Y005314D01*
X007331Y005342D01*
X007353Y005333D01*
X007427D01*
X007496Y005361D01*
X007504Y005369D01*
X008648D01*
X008749Y005268D01*
Y00335D01*
X008761Y003292D01*
X008794Y003244D01*
X008894Y003144D01*
X008942Y003111D01*
X009Y003099D01*
X009098D01*
X009099Y003098D01*
Y002202D01*
X009028Y002131D01*
X00829D01*
X008273Y002147D01*
Y002722D01*
X008281Y00273D01*
X00831Y002798D01*
Y002873D01*
X008281Y002942D01*
X008228Y002994D01*
X00816Y003023D01*
X008085D01*
X008017Y002994D01*
X007964Y002942D01*
X007936Y002873D01*
Y002798D01*
X007964Y00273D01*
X007972Y002722D01*
Y002085D01*
X007983Y002028D01*
X008016Y001979D01*
X008121Y001874D01*
X00817Y001841D01*
X008228Y001829D01*
X00909D01*
X009148Y001841D01*
X009196Y001874D01*
X009356Y002034D01*
X009389Y002082D01*
X009401Y00214D01*
Y00316D01*
X009389Y003218D01*
X00938Y003231D01*
X009395Y003279D01*
X009426Y003291D01*
X009479Y003344D01*
X009488Y003367D01*
X009542D01*
X009551Y003344D01*
X009604Y003291D01*
X009673Y003263D01*
X009747D01*
X009816Y003291D01*
X009869Y003344D01*
X00987Y003347D01*
X009924Y003353D01*
X009949Y003324D01*
Y00093D01*
X009899Y00092D01*
X009898Y000923D01*
X009894Y000944D01*
X009882Y000963D01*
X009874Y000983D01*
X009858Y000998D01*
X009846Y001016D01*
X009828Y001028D01*
X009813Y001044D01*
X009793Y001052D01*
X009774Y001064D01*
X009753Y001068D01*
X009733Y001077D01*
X009711D01*
X00969Y001081D01*
X00884D01*
X008819Y001077D01*
X008797D01*
X008777Y001068D01*
X008756Y001064D01*
X008737Y001052D01*
X008717Y001044D01*
X008702Y001028D01*
X008684Y001016D01*
X008672Y000998D01*
X008656Y000983D01*
X008648Y000963D01*
X008636Y000944D01*
X008632Y000923D01*
X008623Y000903D01*
Y000881D01*
X008619Y00086D01*
X008623Y000839D01*
Y000817D01*
X008632Y000797D01*
X008636Y000776D01*
X008648Y000757D01*
X008656Y000737D01*
X008672Y000722D01*
X008684Y000704D01*
X008702Y000692D01*
X008717Y000676D01*
X008737Y000668D01*
X008756Y000656D01*
X008777Y000652D01*
X008797Y000643D01*
X008819D01*
X00884Y000639D01*
X00969D01*
X009711Y000643D01*
X009733D01*
X009753Y000652D01*
X009774Y000656D01*
X009793Y000668D01*
X009813Y000676D01*
X009828Y000692D01*
X009846Y000704D01*
X009858Y000722D01*
X009874Y000737D01*
X009882Y000757D01*
X009894Y000776D01*
X009898Y000797D01*
X009899Y0008D01*
X009949Y00079D01*
Y000472D01*
X009798Y000321D01*
X006649D01*
X00663Y000367D01*
X006956Y000694D01*
X006989Y000742D01*
X007001Y0008D01*
Y002358D01*
X007772Y003129D01*
X00816D01*
X008218Y003141D01*
X008266Y003174D01*
X008436Y003344D01*
X008469Y003392D01*
X008481Y00345D01*
Y003816D01*
X008489Y003824D01*
X008517Y003893D01*
Y003967D01*
X008489Y004036D01*
X008436Y004089D01*
X008367Y004117D01*
X008293D01*
X008224Y004089D01*
X008171Y004036D01*
X008143Y003967D01*
Y003893D01*
X008171Y003824D01*
X008179Y003816D01*
Y003512D01*
X008098Y003431D01*
X00771D01*
X007652Y003419D01*
X007604Y003386D01*
X006744Y002526D01*
X006711Y002478D01*
X006699Y00242D01*
Y001566D01*
X006658Y001538D01*
X006637Y001547D01*
X006563D01*
X006494Y001519D01*
X006486Y001511D01*
X006072D01*
X005946Y001636D01*
X005898Y001669D01*
X00584Y001681D01*
X00475D01*
X004692Y001669D01*
X004644Y001636D01*
X004564Y001556D01*
X004531Y001508D01*
X004519Y00145D01*
Y001328D01*
X004517Y001319D01*
X004513Y001306D01*
X004506Y00129D01*
X004495Y001271D01*
X004481Y00125D01*
X004464Y001227D01*
X004417Y001174D01*
X004389Y001145D01*
X004383Y001137D01*
X004351Y001105D01*
X004299Y001014D01*
X004272Y000912D01*
Y000808D01*
X004299Y000706D01*
X004351Y000615D01*
X00436Y000607D01*
X004341Y000561D01*
X000892D01*
X000801Y000652D01*
Y003098D01*
X000845Y003142D01*
X000867Y003143D01*
X000906Y003132D01*
X000906Y003131D01*
X000916Y003112D01*
X000919Y003109D01*
X000966Y003028D01*
X001058Y002936D01*
X00117Y002871D01*
X001295Y002838D01*
X001424D01*
X00155Y002871D01*
X001662Y002936D01*
X001753Y003028D01*
X001818Y00314D01*
X001834Y003198D01*
X001886D01*
X001901Y00314D01*
X001966Y003028D01*
X002058Y002936D01*
X00217Y002871D01*
X002228Y002856D01*
Y002804D01*
X00217Y002789D01*
X002058Y002724D01*
X001966Y002632D01*
X001901Y00252D01*
X001868Y002395D01*
Y002265D01*
X001901Y00214D01*
X001966Y002028D01*
X002058Y001936D01*
X00217Y001871D01*
X002228Y001856D01*
Y001804D01*
X00217Y001789D01*
X002058Y001724D01*
X001966Y001632D01*
X001901Y00152D01*
X001886Y001462D01*
X001834D01*
X001818Y00152D01*
X001753Y001632D01*
X001662Y001724D01*
X00155Y001789D01*
X001424Y001822D01*
X001295D01*
X00117Y001789D01*
X001058Y001724D01*
X000966Y001632D01*
X000901Y00152D01*
X000868Y001395D01*
Y001265D01*
X000901Y00114D01*
X000966Y001028D01*
X001058Y000936D01*
X00117Y000871D01*
X001295Y000838D01*
X001424D01*
X00155Y000871D01*
X001662Y000936D01*
X001753Y001028D01*
X001818Y00114D01*
X001834Y001198D01*
X001886D01*
X001901Y00114D01*
X001966Y001028D01*
X002058Y000936D01*
X00217Y000871D01*
X002295Y000838D01*
X002424D01*
X00255Y000871D01*
X002662Y000936D01*
X002753Y001028D01*
X002818Y00114D01*
X002852Y001265D01*
Y001395D01*
X002818Y00152D01*
X002753Y001632D01*
X002662Y001724D01*
X00255Y001789D01*
X002492Y001804D01*
Y001856D01*
X00255Y001871D01*
X002662Y001936D01*
X002704Y001978D01*
X002711Y001983D01*
X002753Y002024D01*
X00283Y002093D01*
X002862Y002119D01*
X002893Y00214D01*
X00292Y002157D01*
X002944Y002168D01*
X002963Y002176D01*
X002977Y002179D01*
X00298Y002179D01*
X0038D01*
X003858Y002191D01*
X003906Y002224D01*
X004076Y002393D01*
X004106Y002414D01*
X004139Y002462D01*
X004151Y00252D01*
Y008978D01*
X004232Y009059D01*
X008988D01*
X009159Y008888D01*
D02*
G37*
G36*
X007264Y008244D02*
X007257Y008237D01*
X007241Y008218D01*
X007237Y008213D01*
X007234Y008207D01*
X007231Y008203D01*
X007229Y008198D01*
X007228Y008194D01*
X007228Y00819D01*
X00714Y008278D01*
X007144Y008278D01*
X007148Y008279D01*
X007153Y008281D01*
X007157Y008284D01*
X007163Y008287D01*
X007168Y008291D01*
X007181Y008301D01*
X007187Y008307D01*
X007194Y008314D01*
X007264Y008244D01*
D02*
G37*
G36*
X007199Y008123D02*
X007197Y00812D01*
X007195Y008115D01*
X007193Y00811D01*
X007192Y008104D01*
X007191Y008097D01*
X007189Y008081D01*
X007189Y008072D01*
X007189Y008063D01*
X00709D01*
X00709Y008072D01*
X007088Y008097D01*
X007087Y008104D01*
X007086Y00811D01*
X007084Y008115D01*
X007082Y00812D01*
X00708Y008123D01*
X007077Y008126D01*
X007201D01*
X007199Y008123D01*
D02*
G37*
G36*
X00249Y010343D02*
X002253Y010106D01*
X002221Y010057D01*
X002209Y01D01*
Y00895D01*
X002209Y008948D01*
X002205Y008933D01*
X002198Y008914D01*
X002186Y008891D01*
X00217Y008863D01*
X00215Y008835D01*
X002053Y008723D01*
X002013Y008682D01*
X002008Y008674D01*
X001966Y008632D01*
X001901Y00852D01*
X001868Y008395D01*
Y008265D01*
X001901Y00814D01*
X001966Y008028D01*
X002058Y007936D01*
X00217Y007871D01*
X002228Y007856D01*
Y007804D01*
X00217Y007789D01*
X002058Y007724D01*
X001966Y007632D01*
X001901Y00752D01*
X001886Y007462D01*
X001834D01*
X001818Y00752D01*
X001753Y007632D01*
X001662Y007724D01*
X00155Y007789D01*
X001424Y007822D01*
X001295D01*
X00117Y007789D01*
X001058Y007724D01*
X001016Y007682D01*
X001008Y007677D01*
X000966Y007636D01*
X00089Y007567D01*
X000857Y007541D01*
X000826Y00752D01*
X000799Y007503D01*
X000775Y007492D01*
X000756Y007484D01*
X000742Y007481D01*
X000739Y007481D01*
X000692D01*
X000562Y007611D01*
Y010232D01*
X000719Y010389D01*
X002471D01*
X00249Y010343D01*
D02*
G37*
G36*
X001079Y007054D02*
X001035Y007097D01*
X000917Y007199D01*
X000881Y007224D01*
X000848Y007245D01*
X000816Y00726D01*
X000786Y007272D01*
X000759Y007279D01*
X000733Y007281D01*
Y007379D01*
X000759Y007381D01*
X000786Y007388D01*
X000816Y0074D01*
X000848Y007415D01*
X000881Y007436D01*
X000917Y007461D01*
X000954Y00749D01*
X001035Y007563D01*
X001079Y007606D01*
Y007054D01*
D02*
G37*
G36*
X00269Y006554D02*
X002763Y006485D01*
X002798Y006457D01*
X002831Y006433D01*
X002863Y006414D01*
X002894Y006399D01*
X002924Y006388D01*
X002953Y006381D01*
X00298Y006379D01*
Y006281D01*
X002953Y006279D01*
X002924Y006272D01*
X002894Y006261D01*
X002863Y006246D01*
X002831Y006227D01*
X002798Y006203D01*
X002763Y006175D01*
X002727Y006143D01*
X002651Y006066D01*
Y006594D01*
X00269Y006554D01*
D02*
G37*
G36*
X007456Y00558D02*
X00746Y005577D01*
X007464Y005575D01*
X007469Y005574D01*
X007475Y005572D01*
X007482Y005571D01*
X007498Y00557D01*
X007507Y005569D01*
X007517Y005569D01*
Y005471D01*
X007507Y005471D01*
X007482Y005469D01*
X007475Y005468D01*
X007469Y005466D01*
X007464Y005465D01*
X00746Y005463D01*
X007456Y00546D01*
X007453Y005458D01*
Y005582D01*
X007456Y00558D01*
D02*
G37*
G36*
X002684Y005563D02*
X002803Y005461D01*
X002838Y005436D01*
X002872Y005415D01*
X002903Y0054D01*
X002933Y005388D01*
X002961Y005381D01*
X002987Y005379D01*
Y005281D01*
X002961Y005279D01*
X002933Y005272D01*
X002903Y00526D01*
X002872Y005245D01*
X002838Y005224D01*
X002803Y005199D01*
X002765Y00517D01*
X002684Y005097D01*
X002641Y005054D01*
Y005606D01*
X002684Y005563D01*
D02*
G37*
G36*
X001166Y004987D02*
X001103Y005022D01*
X000832Y005155D01*
X000804Y005164D01*
X000781Y005169D01*
X000763Y005171D01*
X000734Y00527D01*
X000763Y005272D01*
X000792Y00528D01*
X000821Y005292D01*
X000849Y005309D01*
X000877Y005331D01*
X000905Y005359D01*
X000932Y005391D01*
X000959Y005428D01*
X000986Y00547D01*
X001013Y005516D01*
X001166Y004987D01*
D02*
G37*
G36*
X001901Y00514D02*
X001966Y005028D01*
X002058Y004936D01*
X00217Y004871D01*
X002228Y004856D01*
Y004804D01*
X00217Y004789D01*
X002058Y004724D01*
X001966Y004632D01*
X001901Y00452D01*
X001868Y004395D01*
Y004265D01*
X001901Y00414D01*
X001966Y004028D01*
X002058Y003936D01*
X00217Y003871D01*
X002228Y003856D01*
Y003804D01*
X00217Y003789D01*
X002058Y003724D01*
X001966Y003632D01*
X001901Y00352D01*
X001886Y003462D01*
X001834D01*
X001818Y00352D01*
X001753Y003632D01*
X001662Y003724D01*
X00155Y003789D01*
X001424Y003822D01*
X001295D01*
X00117Y003789D01*
X001058Y003724D01*
X000966Y003632D01*
X000919Y003551D01*
X000916Y003548D01*
X000906Y003529D01*
X000898Y003517D01*
X00089Y003507D01*
X000882Y003499D01*
X000874Y003494D01*
X000866Y003489D01*
X000857Y003485D01*
X000847Y003482D01*
X000835Y003481D01*
X00082D01*
X000762Y003469D01*
X000714Y003436D01*
X000647Y00337D01*
X000601Y003389D01*
Y004978D01*
X000693Y00507D01*
X000765D01*
X000776Y005067D01*
X000794Y005062D01*
X001057Y004933D01*
X001117Y004899D01*
X001118Y004899D01*
X001118Y004899D01*
X001126Y004897D01*
X00117Y004871D01*
X001295Y004838D01*
X001424D01*
X00155Y004871D01*
X001662Y004936D01*
X001753Y005028D01*
X001818Y00514D01*
X001834Y005198D01*
X001886D01*
X001901Y00514D01*
D02*
G37*
G36*
X010962Y004908D02*
X010981Y004891D01*
X010987Y004887D01*
X010992Y004884D01*
X010997Y004882D01*
X011001Y00488D01*
X011005Y004879D01*
X011009Y004879D01*
X010921Y004791D01*
X010921Y004795D01*
X01092Y004799D01*
X010918Y004803D01*
X010916Y004808D01*
X010913Y004813D01*
X010909Y004819D01*
X010899Y004831D01*
X010892Y004838D01*
X010886Y004845D01*
X010955Y004914D01*
X010962Y004908D01*
D02*
G37*
G36*
X009649Y004837D02*
X009651Y004812D01*
X009652Y004805D01*
X009654Y004799D01*
X009655Y004794D01*
X009657Y00479D01*
X00966Y004786D01*
X009662Y004783D01*
X009538D01*
X00954Y004786D01*
X009543Y00479D01*
X009545Y004794D01*
X009546Y004799D01*
X009548Y004805D01*
X009549Y004812D01*
X00955Y004828D01*
X009551Y004837D01*
X009551Y004847D01*
X009649D01*
X009649Y004837D01*
D02*
G37*
G36*
X010159Y004827D02*
X010161Y004802D01*
X010162Y004795D01*
X010164Y004789D01*
X010165Y004784D01*
X010167Y00478D01*
X01017Y004776D01*
X010172Y004773D01*
X010048D01*
X01005Y004776D01*
X010053Y00478D01*
X010055Y004784D01*
X010056Y004789D01*
X010058Y004795D01*
X010059Y004802D01*
X01006Y004818D01*
X010061Y004827D01*
X010061Y004837D01*
X010159D01*
X010159Y004827D01*
D02*
G37*
G36*
X010519Y004829D02*
X010519Y004819D01*
X010522Y004788D01*
X010523Y004782D01*
X010524Y004776D01*
X010525Y004772D01*
X010527Y004769D01*
X010529Y004766D01*
X010406Y00478D01*
X010408Y004783D01*
X010411Y004786D01*
X010413Y004791D01*
X010415Y004796D01*
X010417Y004801D01*
X010418Y004808D01*
X010419Y004816D01*
X010421Y004833D01*
X010421Y004843D01*
X010519Y004829D01*
D02*
G37*
G36*
X01957Y01527D02*
Y00017D01*
X01952Y00012D01*
X010089D01*
X01007Y000167D01*
X010206Y000304D01*
X010239Y000352D01*
X010251Y00041D01*
Y000739D01*
X010298Y000757D01*
X010306Y000737D01*
X010322Y000722D01*
X010334Y000704D01*
X010352Y000692D01*
X010367Y000676D01*
X010387Y000668D01*
X010406Y000656D01*
X010427Y000652D01*
X010447Y000643D01*
X010469D01*
X01049Y000639D01*
X0108D01*
X010884Y000656D01*
X010956Y000704D01*
X011306Y001054D01*
X011354Y001126D01*
X011371Y00121D01*
Y0029D01*
X011367Y002921D01*
Y002943D01*
X011358Y002963D01*
X011354Y002984D01*
X011342Y003003D01*
X011334Y003023D01*
X011318Y003038D01*
X011306Y003056D01*
X011288Y003068D01*
X011273Y003084D01*
X011253Y003092D01*
X011234Y003104D01*
X011213Y003108D01*
X011193Y003117D01*
X011171D01*
X01115Y003121D01*
X011129Y003117D01*
X011107D01*
X011087Y003108D01*
X011066Y003104D01*
X011047Y003092D01*
X011027Y003084D01*
X011012Y003068D01*
X010994Y003056D01*
X010982Y003038D01*
X010966Y003023D01*
X010958Y003003D01*
X010946Y002984D01*
X010942Y002963D01*
X010933Y002943D01*
Y002921D01*
X010929Y0029D01*
Y001301D01*
X010709Y001081D01*
X01049D01*
X010469Y001077D01*
X010447D01*
X010427Y001068D01*
X010406Y001064D01*
X010387Y001052D01*
X010367Y001044D01*
X010352Y001028D01*
X010334Y001016D01*
X010322Y000998D01*
X010306Y000983D01*
X010298Y000963D01*
X010251Y000981D01*
Y003336D01*
X010259Y003344D01*
X010287Y003413D01*
Y003487D01*
X010259Y003556D01*
X010206Y003609D01*
X010137Y003637D01*
X010063D01*
X009994Y003609D01*
X009941Y003556D01*
X00994Y003553D01*
X009886Y003547D01*
X009861Y003576D01*
Y004388D01*
X009976Y004504D01*
X010007Y00455D01*
X010073Y004523D01*
X010147D01*
X010216Y004551D01*
X010254Y004589D01*
X010285Y004599D01*
X010316Y004589D01*
X010354Y004551D01*
X010423Y004523D01*
X010497D01*
X010498Y004523D01*
X010539Y004496D01*
Y003589D01*
X010537Y003587D01*
X010533D01*
X010464Y003559D01*
X010411Y003506D01*
X010383Y003437D01*
Y003363D01*
X010411Y003294D01*
X010464Y003241D01*
X010533Y003213D01*
X010607D01*
X010676Y003241D01*
X010729Y003294D01*
X010757Y003363D01*
Y003381D01*
X010796Y003421D01*
X010829Y003469D01*
X010841Y003527D01*
Y004624D01*
X010891Y004645D01*
X010904Y004631D01*
X010973Y004603D01*
X011047D01*
X011116Y004631D01*
X011169Y004684D01*
X011197Y004753D01*
Y004827D01*
X011169Y004896D01*
X011116Y004949D01*
X011047Y004977D01*
X011036D01*
X011031Y004982D01*
Y01015D01*
X011019Y010208D01*
X010986Y010256D01*
X010706Y010537D01*
X010715Y010562D01*
X010731Y010583D01*
X010797D01*
X010866Y010611D01*
X010919Y010664D01*
X010947Y010733D01*
Y010807D01*
X010919Y010876D01*
X010866Y010929D01*
X010797Y010957D01*
X010723D01*
X010654Y010929D01*
X010646Y010921D01*
X007264D01*
X007246Y010939D01*
X007177Y010967D01*
X007103D01*
X007034Y010939D01*
X006981Y010886D01*
X006953Y010817D01*
Y010743D01*
X006957Y010732D01*
X00693Y010691D01*
X000657D01*
X000599Y010679D01*
X000551Y010646D01*
X000305Y010401D01*
X000273Y010352D01*
X000261Y010295D01*
Y007548D01*
X000273Y007491D01*
X000305Y007442D01*
X000524Y007224D01*
X000572Y007191D01*
X00063Y007179D01*
X000739D01*
X000742Y007179D01*
X000756Y007176D01*
X000775Y007168D01*
X000799Y007157D01*
X000826Y00714D01*
X000855Y00712D01*
X000967Y007024D01*
X001008Y006983D01*
X001016Y006978D01*
X001058Y006936D01*
X00117Y006871D01*
X001295Y006838D01*
X001424D01*
X00155Y006871D01*
X001662Y006936D01*
X001753Y007028D01*
X001818Y00714D01*
X001834Y007198D01*
X001886D01*
X001901Y00714D01*
X001966Y007028D01*
X002058Y006936D01*
X00217Y006871D01*
X002228Y006856D01*
Y006804D01*
X00217Y006789D01*
X002058Y006724D01*
X001966Y006632D01*
X001901Y00652D01*
X001868Y006395D01*
Y006265D01*
X001901Y00614D01*
X001966Y006028D01*
X002058Y005936D01*
X00217Y005871D01*
X002228Y005856D01*
Y005804D01*
X00217Y005789D01*
X002058Y005724D01*
X001966Y005632D01*
X001901Y00552D01*
X001886Y005462D01*
X001834D01*
X001818Y00552D01*
X001753Y005632D01*
X001662Y005724D01*
X00155Y005789D01*
X001424Y005822D01*
X001295D01*
X00117Y005789D01*
X001058Y005724D01*
X000966Y005632D01*
X000932Y005573D01*
X000926Y005566D01*
X0009Y005522D01*
X000877Y005485D01*
X000853Y005453D01*
X000831Y005427D01*
X00081Y005407D01*
X000791Y005392D01*
X000774Y005381D01*
X00076Y005375D01*
X000747Y005371D01*
X000741Y005371D01*
X00063D01*
X000573Y00536D01*
X000524Y005327D01*
X000344Y005146D01*
X000311Y005098D01*
X000299Y00504D01*
Y00031D01*
X000311Y000252D01*
X000344Y000204D01*
X00038Y000167D01*
X000361Y00012D01*
X00014D01*
X00012Y00014D01*
Y01523D01*
X00021Y01532D01*
X01952D01*
X01957Y01527D01*
D02*
G37*
G36*
X007189Y004463D02*
X007191Y004438D01*
X007192Y004431D01*
X007193Y004425D01*
X007195Y00442D01*
X007197Y004416D01*
X007199Y004412D01*
X007201Y004409D01*
X007077D01*
X00708Y004412D01*
X007082Y004416D01*
X007084Y00442D01*
X007086Y004425D01*
X007087Y004431D01*
X007088Y004438D01*
X00709Y004454D01*
X00709Y004463D01*
X00709Y004473D01*
X007189D01*
X007189Y004463D01*
D02*
G37*
G36*
X002629Y004626D02*
X002858Y004501D01*
X002891Y004488D01*
X00292Y004478D01*
X002944Y004472D01*
X002964Y00447D01*
X002987Y004372D01*
X002959Y004369D01*
X00293Y004362D01*
X002901Y00435D01*
X002872Y004333D01*
X002843Y004311D01*
X002814Y004284D01*
X002785Y004252D01*
X002756Y004215D01*
X002726Y004173D01*
X002697Y004127D01*
X00257Y004663D01*
X002629Y004626D01*
D02*
G37*
G36*
X00839Y003864D02*
X008387Y00386D01*
X008385Y003856D01*
X008384Y003851D01*
X008382Y003845D01*
X008381Y003838D01*
X00838Y003822D01*
X008379Y003813D01*
X008379Y003803D01*
X008281D01*
X008281Y003813D01*
X008279Y003838D01*
X008278Y003845D01*
X008276Y003851D01*
X008275Y003856D01*
X008273Y00386D01*
X00827Y003864D01*
X008268Y003867D01*
X008392D01*
X00839Y003864D01*
D02*
G37*
G36*
X009759Y003567D02*
X009761Y003542D01*
X009762Y003535D01*
X009764Y003529D01*
X009765Y003524D01*
X009767Y00352D01*
X00977Y003516D01*
X009772Y003513D01*
X009648D01*
X00965Y003516D01*
X009653Y00352D01*
X009655Y003524D01*
X009656Y003529D01*
X009658Y003535D01*
X009659Y003542D01*
X00966Y003558D01*
X009661Y003567D01*
X009661Y003577D01*
X009759D01*
X009759Y003567D01*
D02*
G37*
G36*
X009359Y003573D02*
X009361Y003556D01*
X009362Y003548D01*
X009363Y003541D01*
X009365Y003536D01*
X009367Y00353D01*
X009369Y003526D01*
X009372Y003523D01*
X009374Y00352D01*
X009251Y003506D01*
X009253Y003509D01*
X009255Y003512D01*
X009256Y003516D01*
X009257Y003522D01*
X009258Y003528D01*
X00926Y003542D01*
X009261Y003559D01*
X009261Y003569D01*
X009359Y003583D01*
X009359Y003573D01*
D02*
G37*
G36*
X010693Y003461D02*
X010686Y003454D01*
X01067Y003435D01*
X010666Y003429D01*
X010663Y003424D01*
X010661Y003419D01*
X010659Y003414D01*
X010659Y00341D01*
X010658Y003406D01*
X010566Y003488D01*
X010569Y003489D01*
X010573Y00349D01*
X010578Y003492D01*
X010582Y003495D01*
X010588Y003498D01*
X010593Y003502D01*
X010605Y003512D01*
X010619Y003525D01*
X010693Y003461D01*
D02*
G37*
G36*
X01016Y003384D02*
X010157Y00338D01*
X010155Y003376D01*
X010154Y003371D01*
X010152Y003365D01*
X010151Y003358D01*
X01015Y003342D01*
X010149Y003333D01*
X010149Y003323D01*
X010051D01*
X010051Y003333D01*
X010049Y003358D01*
X010048Y003365D01*
X010046Y003371D01*
X010045Y003376D01*
X010043Y00338D01*
X01004Y003384D01*
X010038Y003387D01*
X010162D01*
X01016Y003384D01*
D02*
G37*
G36*
X001005Y00316D02*
X000992Y003183D01*
X000979Y003203D01*
X000964Y003221D01*
X000947Y003237D01*
X000929Y003251D01*
X00091Y003261D01*
X00089Y00327D01*
X000868Y003276D01*
X000845Y00328D01*
X00082Y003281D01*
Y003379D01*
X000845Y00338D01*
X000868Y003384D01*
X00089Y00339D01*
X00091Y003399D01*
X000929Y003409D01*
X000947Y003423D01*
X000964Y003439D01*
X000979Y003457D01*
X000992Y003477D01*
X001005Y0035D01*
Y00316D01*
D02*
G37*
G36*
X002684Y003563D02*
X002803Y003461D01*
X002838Y003436D01*
X002872Y003415D01*
X002903Y0034D01*
X002933Y003388D01*
X002961Y003381D01*
X002987Y003379D01*
Y003281D01*
X002961Y003279D01*
X002933Y003272D01*
X002903Y00326D01*
X002872Y003245D01*
X002838Y003224D01*
X002803Y003199D01*
X002765Y00317D01*
X002684Y003097D01*
X002641Y003054D01*
Y003606D01*
X002684Y003563D01*
D02*
G37*
G36*
X008182Y002769D02*
X00818Y002766D01*
X008178Y002761D01*
X008176Y002756D01*
X008175Y00275D01*
X008174Y002743D01*
X008172Y002728D01*
X008172Y002719D01*
X008172Y002709D01*
X008073D01*
X008073Y002719D01*
X008071Y002743D01*
X00807Y00275D01*
X008069Y002756D01*
X008067Y002761D01*
X008065Y002766D01*
X008063Y002769D01*
X008061Y002772D01*
X008185D01*
X008182Y002769D01*
D02*
G37*
G36*
X002684Y002563D02*
X002803Y002461D01*
X002838Y002436D01*
X002872Y002415D01*
X002903Y0024D01*
X002933Y002388D01*
X002961Y002381D01*
X002987Y002379D01*
Y002281D01*
X002961Y002279D01*
X002933Y002272D01*
X002903Y00226D01*
X002872Y002245D01*
X002838Y002224D01*
X002803Y002199D01*
X002765Y00217D01*
X002684Y002097D01*
X002641Y002054D01*
Y002606D01*
X002684Y002563D01*
D02*
G37*
G36*
X006537Y001298D02*
X006534Y0013D01*
X00653Y001303D01*
X006526Y001305D01*
X006521Y001306D01*
X006515Y001308D01*
X006508Y001309D01*
X006492Y00131D01*
X006483Y001311D01*
X006473Y001311D01*
Y001409D01*
X006483Y001409D01*
X006508Y001411D01*
X006515Y001412D01*
X006521Y001414D01*
X006526Y001415D01*
X00653Y001417D01*
X006534Y00142D01*
X006537Y001422D01*
Y001298D01*
D02*
G37*
G36*
X004721Y001315D02*
X004726Y001292D01*
X004734Y001269D01*
X004745Y001244D01*
X004759Y001218D01*
X004777Y001192D01*
X004798Y001164D01*
X004849Y001105D01*
X00488Y001074D01*
X00446D01*
X004491Y001105D01*
X004542Y001164D01*
X004563Y001192D01*
X004581Y001218D01*
X004595Y001244D01*
X004606Y001269D01*
X004614Y001292D01*
X004619Y001315D01*
X004621Y001336D01*
X004719D01*
X004721Y001315D01*
D02*
G37*
%LPC*%
G36*
X00533Y007203D02*
X00521D01*
X005095Y007172D01*
X004992Y007112D01*
X004908Y007028D01*
X004848Y006925D01*
X004817Y00681D01*
Y00669D01*
X004848Y006575D01*
X004908Y006472D01*
X004992Y006388D01*
X005095Y006328D01*
X00521Y006297D01*
X00533D01*
X005445Y006328D01*
X005548Y006388D01*
X005632Y006472D01*
X005692Y006575D01*
X005723Y00669D01*
Y00681D01*
X005692Y006925D01*
X005632Y007028D01*
X005548Y007112D01*
X005445Y007172D01*
X00533Y007203D01*
D02*
G37*
G36*
X00534Y005273D02*
X00522D01*
X005105Y005242D01*
X005002Y005182D01*
X004918Y005098D01*
X004858Y004995D01*
X004827Y00488D01*
Y00476D01*
X004858Y004645D01*
X004918Y004542D01*
X005002Y004458D01*
X005105Y004398D01*
X00522Y004367D01*
X00534D01*
X005455Y004398D01*
X005558Y004458D01*
X005642Y004542D01*
X005702Y004645D01*
X005733Y00476D01*
Y00488D01*
X005702Y004995D01*
X005642Y005098D01*
X005558Y005182D01*
X005455Y005242D01*
X00534Y005273D01*
D02*
G37*
G36*
X014182Y012997D02*
X014108D01*
X014044Y012971D01*
X01158D01*
X011522Y012959D01*
X011474Y012926D01*
X011364Y012816D01*
X011331Y012768D01*
X011319Y01271D01*
Y008372D01*
X011274Y008327D01*
X011263D01*
X011194Y008299D01*
X011141Y008246D01*
X011113Y008177D01*
Y008103D01*
X011141Y008034D01*
X011176Y008D01*
X011141Y007966D01*
X011113Y007897D01*
Y007823D01*
X011141Y007754D01*
X011194Y007701D01*
X011263Y007673D01*
X011337D01*
X011406Y007701D01*
X011418Y007713D01*
X011504D01*
X011561Y007725D01*
X01161Y007757D01*
X011816Y007964D01*
X011849Y008012D01*
X011861Y00807D01*
Y008344D01*
X011902Y008372D01*
X011923Y008363D01*
X011997D01*
X012066Y008391D01*
X012119Y008444D01*
X012147Y008513D01*
Y008524D01*
X012268Y008645D01*
X012646D01*
X012654Y008637D01*
X012723Y008609D01*
X012797D01*
X012866Y008637D01*
X012919Y00869D01*
X012947Y008759D01*
Y008833D01*
X012919Y008902D01*
X012866Y008955D01*
X012797Y008983D01*
X012723D01*
X012654Y008955D01*
X012646Y008947D01*
X012206D01*
X012148Y008935D01*
X0121Y008902D01*
X011934Y008737D01*
X011923D01*
X011902Y008728D01*
X011861Y008756D01*
Y009288D01*
X011922Y009349D01*
X014016D01*
X014024Y009341D01*
X014093Y009313D01*
X014167D01*
X014236Y009341D01*
X014289Y009394D01*
X014317Y009463D01*
Y009537D01*
X014289Y009606D01*
X014236Y009659D01*
X014167Y009687D01*
X014093D01*
X014024Y009659D01*
X014016Y009651D01*
X01186D01*
X011802Y009639D01*
X011754Y009606D01*
X011667Y00952D01*
X011621Y009539D01*
Y012648D01*
X011642Y012669D01*
X014021D01*
X014039Y012651D01*
X014108Y012623D01*
X014182D01*
X014251Y012651D01*
X014303Y012704D01*
X014332Y012773D01*
Y012847D01*
X014303Y012916D01*
X014251Y012969D01*
X014182Y012997D01*
D02*
G37*
G36*
X002681Y012425D02*
X002603D01*
X002528Y012405D01*
X002461Y012366D01*
X002406Y012311D01*
X002367Y012244D01*
X002347Y012169D01*
Y012091D01*
X002367Y012016D01*
X002406Y011949D01*
X002461Y011894D01*
X002528Y011855D01*
X002603Y011835D01*
X002681D01*
X002756Y011855D01*
X002823Y011894D01*
X002878Y011949D01*
X002917Y012016D01*
X002937Y012091D01*
Y012169D01*
X002917Y012244D01*
X002878Y012311D01*
X002823Y012366D01*
X002756Y012405D01*
X002681Y012425D01*
D02*
G37*
G36*
X005641Y012484D02*
X005548D01*
X005458Y01246D01*
X005377Y012414D01*
X005311Y012348D01*
X005265Y012267D01*
X00524Y012177D01*
Y012083D01*
X005265Y011993D01*
X005311Y011912D01*
X005377Y011846D01*
X005458Y0118D01*
X005548Y011776D01*
X005641D01*
X005732Y0118D01*
X005812Y011846D01*
X005878Y011912D01*
X005925Y011993D01*
X005949Y012083D01*
Y012177D01*
X005925Y012267D01*
X005878Y012348D01*
X005812Y012414D01*
X005732Y01246D01*
X005641Y012484D01*
D02*
G37*
G36*
X011387Y007527D02*
X011313D01*
X011244Y007499D01*
X011191Y007446D01*
X011163Y007377D01*
Y007303D01*
X011191Y007234D01*
X011244Y007181D01*
X011313Y007153D01*
X011387D01*
X011456Y007181D01*
X011464Y007189D01*
X014838D01*
X015069Y006958D01*
Y002365D01*
X015069Y002365D01*
X015067Y002352D01*
X01506Y002336D01*
X01505Y002315D01*
X015036Y002291D01*
X015018Y002265D01*
X014996Y002236D01*
X014937Y002169D01*
X014901Y002133D01*
X014895Y002125D01*
X014858Y002087D01*
X014798Y001984D01*
X014767Y001869D01*
Y00175D01*
X014798Y001635D01*
X014858Y001531D01*
X014942Y001447D01*
X015045Y001387D01*
X01516Y001357D01*
X01528D01*
X015395Y001387D01*
X015498Y001447D01*
X015582Y001531D01*
X015642Y001635D01*
X015673Y00175D01*
Y001869D01*
X015642Y001984D01*
X015582Y002087D01*
X015545Y002125D01*
X015539Y002133D01*
X015503Y002169D01*
X015444Y002236D01*
X015422Y002265D01*
X015404Y002291D01*
X015389Y002315D01*
X01538Y002336D01*
X015373Y002352D01*
X015371Y002365D01*
X015371Y002365D01*
Y00702D01*
X015359Y007078D01*
X015326Y007126D01*
X015006Y007446D01*
X014958Y007479D01*
X0149Y007491D01*
X011464D01*
X011456Y007499D01*
X011387Y007527D01*
D02*
G37*
G36*
X012297Y006547D02*
X012223D01*
X012154Y006519D01*
X012101Y006466D01*
X012073Y006397D01*
Y006323D01*
X012101Y006254D01*
X012154Y006201D01*
X012223Y006173D01*
X012297D01*
X012366Y006201D01*
X012374Y006209D01*
X013858D01*
X014069Y005998D01*
Y002365D01*
X014069Y002365D01*
X014067Y002352D01*
X01406Y002336D01*
X014051Y002315D01*
X014036Y002291D01*
X014018Y002265D01*
X013996Y002236D01*
X013937Y002169D01*
X013901Y002133D01*
X013895Y002125D01*
X013858Y002087D01*
X013798Y001984D01*
X013767Y001869D01*
Y00175D01*
X013798Y001635D01*
X013858Y001531D01*
X013942Y001447D01*
X014045Y001387D01*
X01416Y001357D01*
X01428D01*
X014395Y001387D01*
X014498Y001447D01*
X014582Y001531D01*
X014642Y001635D01*
X014673Y00175D01*
Y001869D01*
X014642Y001984D01*
X014582Y002087D01*
X014545Y002125D01*
X014539Y002133D01*
X014504Y002169D01*
X014444Y002236D01*
X014422Y002265D01*
X014404Y002291D01*
X014389Y002315D01*
X01438Y002336D01*
X014373Y002352D01*
X014371Y002365D01*
X014371Y002365D01*
Y00606D01*
X014359Y006118D01*
X014326Y006166D01*
X014026Y006466D01*
X013978Y006499D01*
X01392Y006511D01*
X012374D01*
X012366Y006519D01*
X012297Y006547D01*
D02*
G37*
G36*
X01228Y002262D02*
X01216D01*
X012045Y002231D01*
X011942Y002172D01*
X011858Y002087D01*
X011798Y001984D01*
X011767Y001869D01*
Y00175D01*
X011798Y001635D01*
X011858Y001531D01*
X011942Y001447D01*
X012045Y001387D01*
X01216Y001357D01*
X01228D01*
X012395Y001387D01*
X012498Y001447D01*
X012582Y001531D01*
X012642Y001635D01*
X012673Y00175D01*
Y001869D01*
X012642Y001984D01*
X012582Y002087D01*
X012498Y002172D01*
X012395Y002231D01*
X01228Y002262D01*
D02*
G37*
G36*
X018492Y001948D02*
X018388D01*
X018286Y001921D01*
X018195Y001869D01*
X018121Y001795D01*
X018069Y001704D01*
X018042Y001602D01*
Y001498D01*
X018069Y001396D01*
X018121Y001305D01*
X018195Y001231D01*
X018286Y001179D01*
X018388Y001152D01*
X018492D01*
X018594Y001179D01*
X018685Y001231D01*
X018759Y001305D01*
X018811Y001396D01*
X018838Y001498D01*
Y001602D01*
X018811Y001704D01*
X018759Y001795D01*
X018685Y001869D01*
X018594Y001921D01*
X018492Y001948D01*
D02*
G37*
%LPD*%
G36*
X014075Y012756D02*
X014072Y012758D01*
X014069Y012761D01*
X014064Y012763D01*
X014059Y012765D01*
X014053Y012767D01*
X014047Y012768D01*
X014039Y012769D01*
X014022Y012771D01*
X014012Y012771D01*
X014026Y012869D01*
X014036Y012869D01*
X014067Y012872D01*
X014073Y012873D01*
X014078Y012874D01*
X014083Y012875D01*
X014086Y012877D01*
X014089Y012879D01*
X014075Y012756D01*
D02*
G37*
G36*
X014067Y009438D02*
X014064Y00944D01*
X01406Y009443D01*
X014056Y009445D01*
X014051Y009446D01*
X014045Y009448D01*
X014038Y009449D01*
X014022Y00945D01*
X014013Y009451D01*
X014003Y009451D01*
Y009549D01*
X014013Y009549D01*
X014038Y009551D01*
X014045Y009552D01*
X014051Y009554D01*
X014056Y009555D01*
X01406Y009557D01*
X014064Y00956D01*
X014067Y009562D01*
Y009438D01*
D02*
G37*
G36*
X012697Y008734D02*
X012694Y008736D01*
X01269Y008739D01*
X012686Y008741D01*
X012681Y008742D01*
X012675Y008744D01*
X012668Y008745D01*
X012652Y008746D01*
X012643Y008747D01*
X012633Y008747D01*
Y008845D01*
X012643Y008845D01*
X012668Y008847D01*
X012675Y008848D01*
X012681Y00885D01*
X012686Y008851D01*
X01269Y008853D01*
X012694Y008856D01*
X012697Y008858D01*
Y008734D01*
D02*
G37*
G36*
X012084Y008605D02*
X012078Y008598D01*
X012061Y008579D01*
X012057Y008573D01*
X012054Y008568D01*
X012052Y008563D01*
X01205Y008559D01*
X012049Y008555D01*
X012049Y008551D01*
X011961Y008639D01*
X011965Y008639D01*
X011969Y00864D01*
X011973Y008642D01*
X011978Y008644D01*
X011983Y008647D01*
X011989Y008651D01*
X012001Y008661D01*
X012008Y008668D01*
X012015Y008674D01*
X012084Y008605D01*
D02*
G37*
G36*
X011424Y008195D02*
X011418Y008188D01*
X011401Y008169D01*
X011397Y008163D01*
X011394Y008158D01*
X011392Y008153D01*
X01139Y008149D01*
X011389Y008145D01*
X011389Y008141D01*
X011301Y008229D01*
X011305Y008229D01*
X011309Y00823D01*
X011313Y008232D01*
X011318Y008234D01*
X011323Y008237D01*
X011329Y008241D01*
X011341Y008251D01*
X011348Y008258D01*
X011355Y008264D01*
X011424Y008195D01*
D02*
G37*
G36*
X011364Y007922D02*
X011367Y00792D01*
X011372Y007919D01*
X011377Y007917D01*
X011383Y007916D01*
X01139Y007915D01*
X011405Y007913D01*
X011424Y007913D01*
X011429Y007814D01*
X011419Y007814D01*
X011395Y007812D01*
X011388Y007811D01*
X011382Y007809D01*
X011377Y007808D01*
X011372Y007806D01*
X011369Y007803D01*
X011366Y007801D01*
X011361Y007925D01*
X011364Y007922D01*
D02*
G37*
G36*
X011416Y0074D02*
X01142Y007397D01*
X011424Y007395D01*
X011429Y007394D01*
X011435Y007392D01*
X011442Y007391D01*
X011458Y00739D01*
X011467Y007389D01*
X011477Y007389D01*
Y007291D01*
X011467Y007291D01*
X011442Y007289D01*
X011435Y007288D01*
X011429Y007286D01*
X011424Y007285D01*
X01142Y007283D01*
X011416Y00728D01*
X011413Y007278D01*
Y007402D01*
X011416Y0074D01*
D02*
G37*
G36*
X015271Y002349D02*
X015277Y002323D01*
X015287Y002296D01*
X015301Y002268D01*
X015319Y002237D01*
X015341Y002206D01*
X015367Y002172D01*
X01543Y002101D01*
X015468Y002062D01*
X014972D01*
X01501Y002101D01*
X015073Y002172D01*
X015099Y002206D01*
X015121Y002237D01*
X015139Y002268D01*
X015153Y002296D01*
X015163Y002323D01*
X015169Y002349D01*
X015171Y002373D01*
X015269D01*
X015271Y002349D01*
D02*
G37*
G36*
X012326Y00642D02*
X01233Y006417D01*
X012334Y006415D01*
X012339Y006414D01*
X012345Y006412D01*
X012352Y006411D01*
X012368Y00641D01*
X012377Y006409D01*
X012387Y006409D01*
Y006311D01*
X012377Y006311D01*
X012352Y006309D01*
X012345Y006308D01*
X012339Y006306D01*
X012334Y006305D01*
X01233Y006303D01*
X012326Y0063D01*
X012323Y006298D01*
Y006422D01*
X012326Y00642D01*
D02*
G37*
G36*
X014271Y002349D02*
X014277Y002323D01*
X014287Y002296D01*
X014301Y002268D01*
X014319Y002237D01*
X014341Y002206D01*
X014367Y002172D01*
X01443Y002101D01*
X014468Y002062D01*
X013972D01*
X01401Y002101D01*
X014073Y002172D01*
X014099Y002206D01*
X014121Y002237D01*
X014139Y002268D01*
X014153Y002296D01*
X014163Y002323D01*
X014169Y002349D01*
X014171Y002373D01*
X014269D01*
X014271Y002349D01*
D02*
G37*
D10*
X01035Y01034D02*
X01069Y01D01*
X01057Y003407D02*
X01069Y003527D01*
Y01D01*
X007144Y01077D02*
X01076D01*
X00958Y00965D02*
X00987Y00936D01*
X01057Y0034D02*
Y003407D01*
X01088Y00492D02*
X01101Y00479D01*
X01088Y00492D02*
Y01015D01*
X01049Y01054D02*
X01088Y01015D01*
X0113Y00814D02*
X01147Y00831D01*
Y01271D02*
X01158Y01282D01*
X01147Y00831D02*
Y01271D01*
X00749Y00854D02*
X008474D01*
X007139Y008189D02*
X00749Y00854D01*
X007139Y004346D02*
Y008189D01*
X00685Y00242D02*
X00771Y00328D01*
X00646Y00041D02*
X00685Y0008D01*
Y00242D01*
X00601Y00136D02*
X0066D01*
X00083Y00041D02*
X00646D01*
X00475Y00153D02*
X00584D01*
X00601Y00136D01*
X00467Y00086D02*
Y00145D01*
X00475Y00153D01*
X00909Y00198D02*
X00925Y00214D01*
Y00316D01*
X008228Y00198D02*
X00909D01*
X008123Y002085D02*
Y002836D01*
Y002085D02*
X008228Y00198D01*
X009Y00325D02*
X00916D01*
X00925Y00316D01*
X0089Y00335D02*
X009Y00325D01*
X0089Y00335D02*
Y00533D01*
X01196Y00855D02*
X012206Y008796D01*
X01276D01*
X00737Y00552D02*
X00871D01*
X0089Y00533D01*
X0149Y00734D02*
X01522Y00702D01*
X01135Y00734D02*
X0149D01*
X01522Y001809D02*
Y00702D01*
X01422Y001809D02*
Y00606D01*
X01226Y00636D02*
X01392D01*
X01422Y00606D01*
X01186Y0095D02*
X01413D01*
X01171Y00807D02*
Y00935D01*
X01186Y0095D01*
X011504Y007864D02*
X01171Y00807D01*
X011304Y007864D02*
X011504D01*
X0113Y00786D02*
X011304Y007864D01*
X014135Y01282D02*
X014145Y01281D01*
X01158Y01282D02*
X014135D01*
X000412Y007548D02*
X00063Y00733D01*
X000412Y007548D02*
Y010295D01*
X00063Y00733D02*
X00136D01*
X000412Y010295D02*
X000657Y01054D01*
X01049D01*
X00045Y00504D02*
X00063Y00522D01*
X00045Y00031D02*
Y00504D01*
X00063Y00522D02*
X00125D01*
X00136Y00533D01*
X00045Y00031D02*
X00059Y00017D01*
X00986D01*
X0101Y00041D01*
Y00345D01*
X00065Y00059D02*
Y00316D01*
X00082Y00333D01*
X00136D01*
X00065Y00059D02*
X00083Y00041D01*
X00771Y00328D02*
X00816D01*
X00833Y00345D02*
Y00393D01*
X00816Y00328D02*
X00833Y00345D01*
X01007Y0101D02*
X01047Y0097D01*
X00354Y0101D02*
X01007D01*
X00318Y00974D02*
X00354Y0101D01*
X01047Y00471D02*
Y0097D01*
X0027Y01034D02*
X01035D01*
X00905Y00921D02*
X00931Y00895D01*
X00417Y00921D02*
X00905D01*
X00931Y00345D02*
Y00895D01*
X00399Y00941D02*
X00935D01*
X0096Y00472D02*
Y00916D01*
X00935Y00941D02*
X0096Y00916D01*
X00987Y00461D02*
Y00936D01*
X00386Y00965D02*
X00958D01*
X01011Y00471D02*
Y00955D01*
X00371Y00989D02*
X00977D01*
X01011Y00955D01*
X004Y00904D02*
X00417Y00921D01*
X004Y00252D02*
Y00904D01*
X0038Y00922D02*
X00399Y00941D01*
X0038Y00363D02*
Y00922D01*
X00358Y00937D02*
X00386Y00965D01*
X00358Y00464D02*
Y00937D01*
X00338Y00558D02*
Y00956D01*
X00371Y00989D01*
X00318Y00653D02*
Y00974D01*
X00236Y00833D02*
Y01D01*
X0027Y01034D01*
X00236Y00633D02*
X00298D01*
X00318Y00653D01*
X00256Y00533D02*
X00313D01*
X00338Y00558D01*
X002651Y004421D02*
X003351D01*
X00357Y00464D01*
X00256Y00433D02*
X002651Y004421D01*
X00971Y00445D02*
X00987Y00461D01*
X00971Y00345D02*
Y00445D01*
X00256Y00333D02*
X0035D01*
X0038Y00363D01*
X00256Y00233D02*
X0038D01*
X00399Y00252D01*
X00153Y0013D02*
X00156Y00133D01*
D50*
X00884Y00086D02*
X00969D01*
X0108D02*
X01115Y00121D01*
X01049Y00086D02*
X0108D01*
X01115Y00121D02*
Y0029D01*
D52*
X01844Y00155D02*
D03*
X01744D02*
D03*
X00467Y00086D02*
D03*
X00567D02*
D03*
D53*
X01522Y001809D02*
D03*
X01422D02*
D03*
X01322D02*
D03*
X01222D02*
D03*
X00528Y00482D02*
D03*
X00527Y00675D02*
D03*
D54*
X005595Y01213D02*
D03*
D55*
X002642D02*
D03*
D56*
X00236Y00333D02*
D03*
Y00433D02*
D03*
Y00533D02*
D03*
Y00633D02*
D03*
Y00733D02*
D03*
Y00833D02*
D03*
X00136Y00133D02*
D03*
Y00233D02*
D03*
Y00333D02*
D03*
Y00433D02*
D03*
Y00533D02*
D03*
Y00633D02*
D03*
Y00733D02*
D03*
Y00833D02*
D03*
X00236Y00133D02*
D03*
Y00233D02*
D03*
D57*
X018602Y013385D02*
D03*
X017913Y012007D02*
D03*
X018602Y01063D02*
D03*
Y005118D02*
D03*
X016535Y012007D02*
D03*
X017224Y005118D02*
D03*
X015846Y013385D02*
D03*
X015157Y012007D02*
D03*
X015846Y01063D02*
D03*
X01378Y012007D02*
D03*
X013091Y01063D02*
D03*
X012402Y00374D02*
D03*
X013091Y002362D02*
D03*
X011713D02*
D03*
X008268Y000984D02*
D03*
X007579Y007874D02*
D03*
X00689Y00374D02*
D03*
X007579Y002362D02*
D03*
X006201Y005118D02*
D03*
X004823Y013385D02*
D03*
X004134Y012007D02*
D03*
X004823Y007874D02*
D03*
X004134Y000984D02*
D03*
X003445Y013385D02*
D03*
X002067D02*
D03*
X001378Y009252D02*
D03*
D58*
X007139Y008189D02*
D03*
X00714Y01078D02*
D03*
X01076Y01077D02*
D03*
X008474Y00854D02*
D03*
X007139Y004346D02*
D03*
X0066Y00136D02*
D03*
X01276Y008796D02*
D03*
X01196Y00855D02*
D03*
X01057Y0034D02*
D03*
X00739Y00552D02*
D03*
X01226Y00636D02*
D03*
X01135Y00734D02*
D03*
X01413Y0095D02*
D03*
X0113Y00786D02*
D03*
X014145Y01281D02*
D03*
X0113Y00814D02*
D03*
X008123Y002836D02*
D03*
X01101Y00479D02*
D03*
X0101Y00345D02*
D03*
X00833Y00393D02*
D03*
X01046Y00471D02*
D03*
X01011D02*
D03*
X00971Y00345D02*
D03*
X0096Y00472D02*
D03*
X00932Y00345D02*
D03*
X00615Y00281D02*
D03*
X00716Y00385D02*
D03*
X00676Y00339D02*
D03*
X00644Y00308D02*
D03*
X00564Y00233D02*
D03*
X00608Y00202D02*
D03*
X00636Y00231D02*
D03*
X00675Y0027D02*
D03*
X00716Y0031D02*
D03*
X00755Y0035D02*
D03*
X00787Y00391D02*
D03*
X00799Y00435D02*
D03*
X00584Y00812D02*
D03*
X00583Y00761D02*
D03*
Y00708D02*
D03*
X00592Y00646D02*
D03*
X0066D02*
D03*
X00634Y00587D02*
D03*
X0057Y00581D02*
D03*
X00567Y0053D02*
D03*
X00577Y00371D02*
D03*
X00489Y00415D02*
D03*
X00482Y00354D02*
D03*
X00445Y00386D02*
D03*
X00447Y00463D02*
D03*
X00442Y0053D02*
D03*
X00478Y00607D02*
D03*
X00438Y00668D02*
D03*
X00467Y00741D02*
D03*
X00507Y00793D02*
D03*
X00435D02*
D03*
D59*
X00969Y00086D02*
D03*
X00884D02*
D03*
X01049D02*
D03*
X01115Y0029D02*
D03*
M02*
