G04*
G04 #@! TF.GenerationSoftware,Altium Limited,Altium Designer,22.11.1 (43)*
G04*
G04 Layer_Color=32896*
%FSTAX24Y24*%
%MOIN*%
G70*
G04*
G04 #@! TF.SameCoordinates,C1124A1A-70A5-44B8-A6FF-2808BC57BE08*
G04*
G04*
G04 #@! TF.FilePolarity,Positive*
G04*
G01*
G75*
%ADD11C,0.0100*%
D11*
X01544Y01086D02*
Y01026D01*
X01514D01*
X01504Y01036D01*
Y01076D01*
X01514Y01086D01*
X01544D01*
X01444D02*
X01484D01*
Y01026D01*
X01444D01*
X01484Y01056D02*
X01464D01*
X013841Y01076D02*
X01394Y01086D01*
X01414D01*
X01424Y01076D01*
Y01066D01*
X01414Y01056D01*
X01394D01*
X013841Y01046D01*
Y01036D01*
X01394Y01026D01*
X01414D01*
X01424Y01036D01*
X013641Y01086D02*
X013441D01*
X013541D01*
Y01026D01*
X013641D01*
X013441D01*
X012741Y01076D02*
X012841Y01086D01*
X013041D01*
X013141Y01076D01*
Y01036D01*
X013041Y01026D01*
X012841D01*
X012741Y01036D01*
Y01056D01*
X012941D01*
X012541Y01026D02*
Y01086D01*
X012141Y01026D01*
Y01086D01*
X011541D02*
X011941D01*
Y01026D01*
X011541D01*
X011941Y01056D02*
X011741D01*
X011341Y01086D02*
Y01026D01*
X011041D01*
X010941Y01036D01*
Y01076D01*
X011041Y01086D01*
X011341D01*
X010142D02*
Y01026D01*
X009842D01*
X009742Y01036D01*
Y01046D01*
X009842Y01056D01*
X010142D01*
X009842D01*
X009742Y01066D01*
Y01076D01*
X009842Y01086D01*
X010142D01*
X009542D02*
Y01076D01*
X009342Y01056D01*
X009142Y01076D01*
Y01086D01*
X009342Y01056D02*
Y01026D01*
X008342D02*
Y01086D01*
X008142Y01066D01*
X007942Y01086D01*
Y01026D01*
X007742Y01086D02*
X007543D01*
X007643D01*
Y01026D01*
X007742D01*
X007543D01*
X007243D02*
Y01086D01*
X006843Y01026D01*
Y01086D01*
X006643D02*
Y01026D01*
Y01056D01*
X006243D01*
Y01086D01*
Y01026D01*
X005643Y01076D02*
X005743Y01086D01*
X005943D01*
X006043Y01076D01*
Y01036D01*
X005943Y01026D01*
X005743D01*
X005643Y01036D01*
X005443Y01086D02*
Y01026D01*
Y01056D01*
X005043D01*
Y01086D01*
Y01026D01*
X004843Y01086D02*
X004643D01*
X004743D01*
Y01026D01*
X004843D01*
X004643D01*
M02*
