G04*
G04 #@! TF.GenerationSoftware,Altium Limited,Altium Designer,22.11.1 (43)*
G04*
G04 Layer_Color=255*
%FSTAX24Y24*%
%MOIN*%
G70*
G04*
G04 #@! TF.SameCoordinates,C1124A1A-70A5-44B8-A6FF-2808BC57BE08*
G04*
G04*
G04 #@! TF.FilePolarity,Positive*
G04*
G01*
G75*
%ADD17O,0.0571X0.0118*%
%ADD18O,0.0118X0.0571*%
%ADD19R,0.0512X0.0315*%
%ADD20R,0.0449X0.0472*%
%ADD21R,0.0394X0.0315*%
%ADD22R,0.0449X0.0472*%
%ADD23R,0.0472X0.0449*%
%ADD24R,0.0472X0.0472*%
%ADD25R,0.0846X0.0354*%
%ADD26R,0.0846X0.1280*%
%ADD27R,0.0591X0.0394*%
%ADD28R,0.1441X0.1024*%
%ADD29R,0.1394X0.1024*%
%ADD30R,0.0472X0.0449*%
%ADD52C,0.0600*%
%ADD53C,0.0709*%
%ADD54C,0.0512*%
%ADD55C,0.0394*%
%ADD56C,0.0787*%
D17*
X008333Y006755D02*
D03*
Y006558D02*
D03*
Y006361D02*
D03*
Y006164D02*
D03*
Y005967D02*
D03*
Y005771D02*
D03*
Y005574D02*
D03*
Y005377D02*
D03*
Y00518D02*
D03*
Y004983D02*
D03*
Y004786D02*
D03*
Y004589D02*
D03*
X01166D02*
D03*
Y004786D02*
D03*
Y004983D02*
D03*
Y00518D02*
D03*
Y005377D02*
D03*
Y005574D02*
D03*
Y005771D02*
D03*
Y005967D02*
D03*
Y006164D02*
D03*
Y006361D02*
D03*
Y006558D02*
D03*
Y006755D02*
D03*
D18*
X008914Y004009D02*
D03*
X009111D02*
D03*
X009308D02*
D03*
X009504D02*
D03*
X009701D02*
D03*
X009898D02*
D03*
X010095D02*
D03*
X010292D02*
D03*
X010489D02*
D03*
X010686D02*
D03*
X010882D02*
D03*
X011079D02*
D03*
Y007336D02*
D03*
X010882D02*
D03*
X010686D02*
D03*
X010489D02*
D03*
X010292D02*
D03*
X010095D02*
D03*
X009898D02*
D03*
X009701D02*
D03*
X009504D02*
D03*
X009308D02*
D03*
X009111D02*
D03*
X008914D02*
D03*
D19*
X01276Y014726D02*
D03*
Y014226D02*
D03*
Y013726D02*
D03*
Y013226D02*
D03*
Y012726D02*
D03*
Y012226D02*
D03*
Y011726D02*
D03*
Y011226D02*
D03*
X00902Y014726D02*
D03*
Y014226D02*
D03*
Y013726D02*
D03*
Y013226D02*
D03*
Y012726D02*
D03*
Y012226D02*
D03*
Y011726D02*
D03*
Y011226D02*
D03*
D20*
X01848Y007944D02*
D03*
Y007196D02*
D03*
X01276Y005374D02*
D03*
Y004626D02*
D03*
X007149Y001146D02*
D03*
Y001894D02*
D03*
X01276Y009544D02*
D03*
Y008796D02*
D03*
X01277Y006567D02*
D03*
Y007315D02*
D03*
X007139Y005094D02*
D03*
Y004346D02*
D03*
D21*
X017275Y0095D02*
D03*
X014125D02*
D03*
X017275Y01281D02*
D03*
X014125D02*
D03*
X008075Y00156D02*
D03*
X011225D02*
D03*
D22*
X014876Y01092D02*
D03*
X014124D02*
D03*
X014164Y014357D02*
D03*
X014916D02*
D03*
X014164Y008002D02*
D03*
X014916D02*
D03*
X008866Y002861D02*
D03*
X008114D02*
D03*
X004805Y00185D02*
D03*
X005557D02*
D03*
X010324Y00981D02*
D03*
X011076D02*
D03*
X010324Y008569D02*
D03*
X011076D02*
D03*
X008472Y00981D02*
D03*
X009224D02*
D03*
D23*
X017234Y0109D02*
D03*
X016486D02*
D03*
X017234Y01434D02*
D03*
X016486D02*
D03*
X014016Y00289D02*
D03*
X014764D02*
D03*
X010426D02*
D03*
X011174D02*
D03*
X009222Y00854D02*
D03*
X008474D02*
D03*
X004816Y00859D02*
D03*
X005564D02*
D03*
X004776Y00295D02*
D03*
X005524D02*
D03*
D24*
X0171Y008D02*
D03*
X016273D02*
D03*
D25*
X016577Y004538D02*
D03*
Y00544D02*
D03*
Y006342D02*
D03*
D26*
X01427Y00544D02*
D03*
D27*
X01849Y00449D02*
D03*
Y005632D02*
D03*
D28*
X00104Y01213D02*
D03*
D29*
X00726D02*
D03*
D30*
X00715Y006174D02*
D03*
Y006926D02*
D03*
D52*
X01844Y00155D02*
D03*
X01744D02*
D03*
X00467Y00086D02*
D03*
X00567D02*
D03*
D53*
X01522Y001809D02*
D03*
X01422D02*
D03*
X01322D02*
D03*
X01222D02*
D03*
X00528Y00482D02*
D03*
X00527Y00675D02*
D03*
D54*
X005595Y01213D02*
D03*
D55*
X002642D02*
D03*
D56*
X00236Y00333D02*
D03*
Y00433D02*
D03*
Y00533D02*
D03*
Y00633D02*
D03*
Y00733D02*
D03*
Y00833D02*
D03*
X00136Y00133D02*
D03*
Y00233D02*
D03*
Y00333D02*
D03*
Y00433D02*
D03*
Y00533D02*
D03*
Y00633D02*
D03*
Y00733D02*
D03*
Y00833D02*
D03*
X00236Y00133D02*
D03*
Y00233D02*
D03*
M02*
