G04*
G04 #@! TF.GenerationSoftware,Altium Limited,Altium Designer,22.11.1 (43)*
G04*
G04 Layer_Color=65535*
%FSTAX24Y24*%
%MOIN*%
G70*
G04*
G04 #@! TF.SameCoordinates,C1124A1A-70A5-44B8-A6FF-2808BC57BE08*
G04*
G04*
G04 #@! TF.FilePolarity,Positive*
G04*
G01*
G75*
%ADD10C,0.0098*%
%ADD11C,0.0100*%
%ADD12C,0.0079*%
%ADD13C,0.0039*%
%ADD14C,0.0020*%
%ADD15C,0.0059*%
%ADD16C,0.0118*%
D10*
X008496Y007202D02*
G03*
X008496Y007202I-000049J0D01*
G01*
X016626Y004145D02*
G03*
X016626Y004145I-000049J0D01*
G01*
D11*
X006037Y014277D02*
G03*
X00114Y01275I-002017J-002147D01*
G01*
X00113Y01152D02*
G03*
X006078Y010012I00289J00061D01*
G01*
X01815Y00684D02*
X01882D01*
X01815Y00683D02*
Y00684D01*
X01613Y01056D02*
Y01123D01*
X01612D02*
X01613D01*
Y014D02*
Y01467D01*
X01612D02*
X01613D01*
X01243Y00427D02*
X0131D01*
X01243Y00426D02*
Y00427D01*
X01512Y00256D02*
Y00323D01*
Y00256D02*
X01513D01*
X01172Y002309D02*
X01572D01*
Y001269D02*
Y002309D01*
X01172Y001269D02*
X01572D01*
X01172D02*
Y002309D01*
X006809Y00225D02*
X007479D01*
Y00226D01*
X006078Y00916D02*
Y010012D01*
Y00916D02*
X00723D01*
Y0115D01*
X0081D01*
Y01276D01*
X00724D02*
X0081D01*
X00724D02*
Y01506D01*
X006037D02*
X00724D01*
X006037Y014277D02*
Y01506D01*
X00017Y01152D02*
X00113D01*
X00017Y01275D02*
X00114D01*
X00017Y01152D02*
Y01275D01*
X01243Y00844D02*
X0131D01*
X01243Y00843D02*
Y00844D01*
X01153Y00256D02*
Y00323D01*
Y00256D02*
X01154D01*
X008118Y0082D02*
Y00887D01*
X008108D02*
X008118D01*
X01243Y007671D02*
X0131D01*
Y007681D01*
X006809Y00399D02*
X007479D01*
X006809Y00398D02*
Y00399D01*
X00592Y00826D02*
Y00893D01*
Y00826D02*
X00593D01*
X00588Y00262D02*
Y00329D01*
Y00262D02*
X00589D01*
X00625Y00352D02*
Y00806D01*
X00427D02*
X00625D01*
X00427Y00352D02*
Y00806D01*
Y00352D02*
X00625D01*
D12*
X008776Y004452D02*
Y006893D01*
X011217Y004452D02*
Y006893D01*
X008776D02*
X011217D01*
X008776Y004452D02*
X011217D01*
X01815Y00684D02*
Y00829D01*
X01882Y00684D02*
Y00829D01*
X01815D02*
X01882D01*
X01378Y00874D02*
Y008822D01*
Y01026D01*
X01758D01*
Y00874D02*
Y01026D01*
X01378Y00874D02*
X01758D01*
X01378Y0113D02*
X01526D01*
X01378Y01054D02*
Y0113D01*
X01526Y01055D02*
Y0113D01*
X01378Y01054D02*
X01525D01*
X01526Y01055D01*
X01613Y01123D02*
X01758D01*
X01613Y01056D02*
X01758D01*
Y01123D01*
X01378Y013977D02*
X01526D01*
Y014737D01*
X01378Y013977D02*
Y014727D01*
X01379Y014737D02*
X01526D01*
X01378Y014727D02*
X01379Y014737D01*
X01613Y01467D02*
X01758D01*
X01613Y014D02*
X01758D01*
Y01467D01*
X01378Y01205D02*
Y012132D01*
Y01357D01*
X01758D01*
Y01205D02*
Y01357D01*
X01378Y01205D02*
X01758D01*
X01378Y007622D02*
X01526D01*
Y008382D01*
X01378Y007622D02*
Y008372D01*
X01379Y008382D02*
X01526D01*
X01378Y008372D02*
X01379Y008382D01*
X01243Y00427D02*
Y00572D01*
X0131Y00427D02*
Y00572D01*
X01243D02*
X0131D01*
X016034Y004121D02*
Y006759D01*
X014813Y004121D02*
Y006759D01*
Y004121D02*
X016034D01*
X014813Y006759D02*
X016034D01*
X01367Y00256D02*
X01512D01*
X01367Y00323D02*
X01512D01*
X01367Y00256D02*
Y00323D01*
X007479Y0008D02*
Y00225D01*
X006809Y0008D02*
Y00225D01*
Y0008D02*
X007479D01*
X00777Y003241D02*
X00925D01*
X00777Y002481D02*
Y003241D01*
X00925Y002491D02*
Y003241D01*
X00777Y002481D02*
X00924D01*
X00925Y002491D01*
X01157Y002238D02*
Y00232D01*
Y0008D02*
Y002238D01*
X00777Y0008D02*
X01157D01*
X00777D02*
Y00232D01*
X01157D01*
X004421Y00147D02*
X005901D01*
Y00223D01*
X004421Y00147D02*
Y00222D01*
X004431Y00223D02*
X005901D01*
X004421Y00222D02*
X004431Y00223D01*
X01243Y00844D02*
Y00989D01*
X0131Y00844D02*
Y00989D01*
X01243D02*
X0131D01*
X00994Y00943D02*
X01142D01*
Y01019D01*
X00994Y00943D02*
Y01018D01*
X00995Y01019D02*
X01142D01*
X00994Y01018D02*
X00995Y01019D01*
X00994Y008189D02*
X01142D01*
Y008949D01*
X00994Y008189D02*
Y008939D01*
X00995Y008949D02*
X01142D01*
X00994Y008939D02*
X00995Y008949D01*
X008088Y00943D02*
X009568D01*
Y01019D01*
X008088Y00943D02*
Y01018D01*
X008098Y01019D02*
X009568D01*
X008088Y01018D02*
X008098Y01019D01*
X01008Y00256D02*
X01153D01*
X01008Y00323D02*
X01153D01*
X01008Y00256D02*
Y00323D01*
X008118Y00887D02*
X009568D01*
X008118Y0082D02*
X009568D01*
Y00887D01*
X0131Y006221D02*
Y007671D01*
X01243Y006221D02*
Y007671D01*
Y006221D02*
X0131D01*
X006809Y00399D02*
Y00544D01*
X007479Y00399D02*
Y00544D01*
X006809D02*
X007479D01*
X00447Y00826D02*
X00592D01*
X00447Y00893D02*
X00592D01*
X00447Y00826D02*
Y00893D01*
X00443Y00262D02*
X00588D01*
X00443Y00329D02*
X00588D01*
X00443Y00262D02*
Y00329D01*
X00753Y00579D02*
Y00727D01*
X00677D02*
X00753D01*
X00678Y00579D02*
X00753D01*
X00677Y0058D02*
Y00727D01*
Y0058D02*
X00678Y00579D01*
X009519Y005479D02*
Y005833D01*
X009637Y005715D01*
X009755Y005833D01*
Y005479D01*
X010109Y005774D02*
X01005Y005833D01*
X009932D01*
X009873Y005774D01*
Y005538D01*
X009932Y005479D01*
X01005D01*
X010109Y005538D01*
X010227Y005833D02*
Y005538D01*
X010286Y005479D01*
X010404D01*
X010463Y005538D01*
Y005833D01*
X000454Y001472D02*
X000375Y001551D01*
X000217D01*
X000139Y001472D01*
Y001157D01*
X000217Y001079D01*
X000375D01*
X000454Y001157D01*
Y001315D01*
X000296D01*
X000611Y001079D02*
X000768D01*
X00069D01*
Y001551D01*
X000611Y001472D01*
X009979Y013139D02*
Y012785D01*
X010156D01*
X010215Y012844D01*
Y01308D01*
X010156Y013139D01*
X009979D01*
X010569Y01308D02*
X01051Y013139D01*
X010392D01*
X010333Y01308D01*
Y013021D01*
X010392Y012962D01*
X01051D01*
X010569Y012903D01*
Y012844D01*
X01051Y012785D01*
X010392D01*
X010333Y012844D01*
X010687Y01308D02*
X010746Y013139D01*
X010864D01*
X010923Y01308D01*
Y013021D01*
X010864Y012962D01*
X010805D01*
X010864D01*
X010923Y012903D01*
Y012844D01*
X010864Y012785D01*
X010746D01*
X010687Y012844D01*
X011278Y012785D02*
X011042D01*
X011278Y013021D01*
Y01308D01*
X011219Y013139D01*
X011101D01*
X011042Y01308D01*
X011396D02*
X011455Y013139D01*
X011573D01*
X011632Y01308D01*
Y013021D01*
X011573Y012962D01*
X011514D01*
X011573D01*
X011632Y012903D01*
Y012844D01*
X011573Y012785D01*
X011455D01*
X011396Y012844D01*
X01175Y012785D02*
X011868D01*
X011809D01*
Y013139D01*
X01175Y01308D01*
X012272Y011358D02*
Y011299D01*
X012213D01*
Y011358D01*
X012272D01*
X017501Y008061D02*
Y008002D01*
X017442D01*
Y008061D01*
X017501D01*
X018623Y003061D02*
Y003297D01*
X018446D01*
X018505Y003179D01*
Y00312D01*
X018446Y003061D01*
X018328D01*
X018269Y00312D01*
Y003238D01*
X018328Y003297D01*
X018623Y002943D02*
X018387D01*
X018269Y002825D01*
X018387Y002707D01*
X018623D01*
X013484Y000835D02*
X013543Y000894D01*
Y001012D01*
X013484Y001071D01*
X013248D01*
X013189Y001012D01*
Y000894D01*
X013248Y000835D01*
X013366D01*
Y000953D01*
X013189Y000717D02*
X013543D01*
X013189Y000481D01*
X013543D01*
Y000363D02*
X013189D01*
Y000186D01*
X013248Y000127D01*
X013484D01*
X013543Y000186D01*
Y000363D01*
X017144Y003415D02*
X017203Y003474D01*
Y003592D01*
X017144Y003651D01*
X016908D01*
X016849Y003592D01*
Y003474D01*
X016908Y003415D01*
X017026D01*
Y003533D01*
X016849Y003297D02*
X017203D01*
X016849Y003061D01*
X017203D01*
Y002943D02*
X016849D01*
Y002766D01*
X016908Y002707D01*
X017144D01*
X017203Y002766D01*
Y002943D01*
X015553Y001071D02*
X015199D01*
Y000894D01*
X015258Y000835D01*
X015494D01*
X015553Y000894D01*
Y001071D01*
Y000717D02*
Y000599D01*
Y000658D01*
X015199D01*
Y000717D01*
Y000599D01*
X015553Y000245D02*
Y000363D01*
X015494Y000422D01*
X015258D01*
X015199Y000363D01*
Y000245D01*
X015258Y000186D01*
X015494D01*
X015553Y000245D01*
X014484Y000835D02*
X014543Y000894D01*
Y001012D01*
X014484Y001071D01*
X014248D01*
X014189Y001012D01*
Y000894D01*
X014248Y000835D01*
X014543Y000717D02*
X014189D01*
Y000481D01*
X014543Y000363D02*
X014189D01*
X014307D01*
X014543Y000127D01*
X014366Y000304D01*
X014189Y000127D01*
X012434Y001071D02*
X012493Y001012D01*
Y000894D01*
X012434Y000835D01*
X012375D01*
X012316Y000894D01*
Y000953D01*
Y000894D01*
X012257Y000835D01*
X012198D01*
X012139Y000894D01*
Y001012D01*
X012198Y001071D01*
X012493Y000717D02*
X012257D01*
X012139Y000599D01*
X012257Y000481D01*
X012493D01*
X012434Y000363D02*
X012493Y000304D01*
Y000186D01*
X012434Y000127D01*
X012375D01*
X012316Y000186D01*
Y000245D01*
Y000186D01*
X012257Y000127D01*
X012198D01*
X012139Y000186D01*
Y000304D01*
X012198Y000363D01*
X003574Y003927D02*
Y003868D01*
X003692Y00375D01*
X00381Y003868D01*
Y003927D01*
X003692Y00375D02*
Y003573D01*
X003928D02*
X004046D01*
X003987D01*
Y003927D01*
X003928Y003868D01*
X014009Y004537D02*
Y004242D01*
X014068Y004183D01*
X014186D01*
X014245Y004242D01*
Y004537D01*
X01454Y004183D02*
Y004537D01*
X014363Y00436D01*
X014599D01*
X014117Y014943D02*
Y015297D01*
X014294D01*
X014353Y015238D01*
Y01512D01*
X014294Y015061D01*
X014117D01*
X014235D02*
X014353Y014943D01*
X014471D02*
X01459D01*
X01453D01*
Y015297D01*
X014471Y015238D01*
X014767D02*
X014826Y015297D01*
X014944D01*
X015003Y015238D01*
Y015002D01*
X014944Y014943D01*
X014826D01*
X014767Y015002D01*
Y015238D01*
X003635Y001653D02*
Y002007D01*
X003812D01*
X003871Y001948D01*
Y00183D01*
X003812Y001771D01*
X003635D01*
X003753D02*
X003871Y001653D01*
X003989Y001712D02*
X004048Y001653D01*
X004166D01*
X004225Y001712D01*
Y001948D01*
X004166Y002007D01*
X004048D01*
X003989Y001948D01*
Y001889D01*
X004048Y00183D01*
X004225D01*
X003168Y001057D02*
Y000703D01*
X003404D01*
X003522Y001057D02*
Y000703D01*
X003699D01*
X003758Y000762D01*
Y000998D01*
X003699Y001057D01*
X003522D01*
X003876Y000703D02*
Y001057D01*
X004053D01*
X004112Y000998D01*
Y00088D01*
X004053Y000821D01*
X003876D01*
X003994D02*
X004112Y000703D01*
X014265Y011503D02*
Y011857D01*
X014442D01*
X014501Y011798D01*
Y01168D01*
X014442Y011621D01*
X014265D01*
X014383D02*
X014501Y011503D01*
X014619Y011857D02*
X014855D01*
Y011798D01*
X014619Y011562D01*
Y011503D01*
X013795Y007073D02*
Y007427D01*
X013972D01*
X014031Y007368D01*
Y00725D01*
X013972Y007191D01*
X013795D01*
X013913D02*
X014031Y007073D01*
X014385Y007427D02*
X014149D01*
Y00725D01*
X014267Y007309D01*
X014326D01*
X014385Y00725D01*
Y007132D01*
X014326Y007073D01*
X014208D01*
X014149Y007132D01*
X011615Y009613D02*
Y009967D01*
X011792D01*
X011851Y009908D01*
Y00979D01*
X011792Y009731D01*
X011615D01*
X011733D02*
X011851Y009613D01*
X012146D02*
Y009967D01*
X011969Y00979D01*
X012205D01*
X011615Y008372D02*
Y008726D01*
X011792D01*
X011851Y008667D01*
Y008549D01*
X011792Y00849D01*
X011615D01*
X011733D02*
X011851Y008372D01*
X011969Y008667D02*
X012028Y008726D01*
X012146D01*
X012205Y008667D01*
Y008608D01*
X012146Y008549D01*
X012087D01*
X012146D01*
X012205Y00849D01*
Y008431D01*
X012146Y008372D01*
X012028D01*
X011969Y008431D01*
X006865Y007463D02*
Y007817D01*
X007042D01*
X007101Y007758D01*
Y00764D01*
X007042Y007581D01*
X006865D01*
X006983D02*
X007101Y007463D01*
X007455D02*
X007219D01*
X007455Y007699D01*
Y007758D01*
X007396Y007817D01*
X007278D01*
X007219Y007758D01*
X007424Y009643D02*
Y009997D01*
X007601D01*
X00766Y009938D01*
Y00982D01*
X007601Y009761D01*
X007424D01*
X007542D02*
X00766Y009643D01*
X007778D02*
X007896D01*
X007837D01*
Y009997D01*
X007778Y009938D01*
X016864Y007437D02*
Y007083D01*
X0171D01*
X017218D02*
X017336D01*
X017277D01*
Y007437D01*
X017218Y007378D01*
X019074Y004617D02*
Y004263D01*
X019251D01*
X01931Y004322D01*
Y004558D01*
X019251Y004617D01*
X019074D01*
X019428Y004263D02*
X019546D01*
X019487D01*
Y004617D01*
X019428Y004558D01*
X016723Y015198D02*
X016664Y015257D01*
X016546D01*
X016487Y015198D01*
Y014962D01*
X016546Y014903D01*
X016664D01*
X016723Y014962D01*
X016841Y014903D02*
X01696D01*
X0169D01*
Y015257D01*
X016841Y015198D01*
X017314Y014903D02*
Y015257D01*
X017137Y01508D01*
X017373D01*
X016643Y011748D02*
X016584Y011807D01*
X016466D01*
X016407Y011748D01*
Y011512D01*
X016466Y011453D01*
X016584D01*
X016643Y011512D01*
X016761Y011453D02*
X01688D01*
X01682D01*
Y011807D01*
X016761Y011748D01*
X017057D02*
X017116Y011807D01*
X017234D01*
X017293Y011748D01*
Y011689D01*
X017234Y01163D01*
X017175D01*
X017234D01*
X017293Y011571D01*
Y011512D01*
X017234Y011453D01*
X017116D01*
X017057Y011512D01*
X018322Y006578D02*
X018263Y006637D01*
X018145D01*
X018086Y006578D01*
Y006342D01*
X018145Y006283D01*
X018263D01*
X018322Y006342D01*
X01844Y006283D02*
X018559D01*
X0185D01*
Y006637D01*
X01844Y006578D01*
X018736Y006283D02*
X018854D01*
X018795D01*
Y006637D01*
X018736Y006578D01*
X012543Y004008D02*
X012484Y004067D01*
X012366D01*
X012307Y004008D01*
Y003772D01*
X012366Y003713D01*
X012484D01*
X012543Y003772D01*
X012661Y003713D02*
X01278D01*
X01272D01*
Y004067D01*
X012661Y004008D01*
X012957D02*
X013016Y004067D01*
X013134D01*
X013193Y004008D01*
Y003772D01*
X013134Y003713D01*
X013016D01*
X012957Y003772D01*
Y004008D01*
X00707Y000498D02*
X007011Y000557D01*
X006893D01*
X006834Y000498D01*
Y000262D01*
X006893Y000203D01*
X007011D01*
X00707Y000262D01*
X007188D02*
X007247Y000203D01*
X007366D01*
X007425Y000262D01*
Y000498D01*
X007366Y000557D01*
X007247D01*
X007188Y000498D01*
Y000439D01*
X007247Y00038D01*
X007425D01*
X012711Y010388D02*
X012652Y010447D01*
X012534D01*
X012475Y010388D01*
Y010152D01*
X012534Y010093D01*
X012652D01*
X012711Y010152D01*
X012829Y010388D02*
X012888Y010447D01*
X013006D01*
X013065Y010388D01*
Y010329D01*
X013006Y01027D01*
X013065Y010211D01*
Y010152D01*
X013006Y010093D01*
X012888D01*
X012829Y010152D01*
Y010211D01*
X012888Y01027D01*
X012829Y010329D01*
Y010388D01*
X012888Y01027D02*
X013006D01*
X015601Y002988D02*
X015542Y003047D01*
X015424D01*
X015365Y002988D01*
Y002752D01*
X015424Y002693D01*
X015542D01*
X015601Y002752D01*
X015719Y003047D02*
X015955D01*
Y002988D01*
X015719Y002752D01*
Y002693D01*
X003831Y003068D02*
X003772Y003127D01*
X003654D01*
X003595Y003068D01*
Y002832D01*
X003654Y002773D01*
X003772D01*
X003831Y002832D01*
X004185Y003127D02*
X004067Y003068D01*
X003949Y00295D01*
Y002832D01*
X004008Y002773D01*
X004126D01*
X004185Y002832D01*
Y002891D01*
X004126Y00295D01*
X003949D01*
X006361Y008728D02*
X006302Y008787D01*
X006184D01*
X006125Y008728D01*
Y008492D01*
X006184Y008433D01*
X006302D01*
X006361Y008492D01*
X006715Y008787D02*
X006479D01*
Y00861D01*
X006597Y008669D01*
X006656D01*
X006715Y00861D01*
Y008492D01*
X006656Y008433D01*
X006538D01*
X006479Y008492D01*
X012011Y002998D02*
X011952Y003057D01*
X011834D01*
X011775Y002998D01*
Y002762D01*
X011834Y002703D01*
X011952D01*
X012011Y002762D01*
X012306Y002703D02*
Y003057D01*
X012129Y00288D01*
X012365D01*
X011871Y007628D02*
X011812Y007687D01*
X011694D01*
X011635Y007628D01*
Y007392D01*
X011694Y007333D01*
X011812D01*
X011871Y007392D01*
X011989Y007628D02*
X012048Y007687D01*
X012166D01*
X012225Y007628D01*
Y007569D01*
X012166Y00751D01*
X012107D01*
X012166D01*
X012225Y007451D01*
Y007392D01*
X012166Y007333D01*
X012048D01*
X011989Y007392D01*
X007551Y008678D02*
X007492Y008737D01*
X007374D01*
X007315Y008678D01*
Y008442D01*
X007374Y008383D01*
X007492D01*
X007551Y008442D01*
X007905Y008383D02*
X007669D01*
X007905Y008619D01*
Y008678D01*
X007846Y008737D01*
X007728D01*
X007669Y008678D01*
X007951Y004248D02*
X007892Y004307D01*
X007774D01*
X007715Y004248D01*
Y004012D01*
X007774Y003953D01*
X007892D01*
X007951Y004012D01*
X008069Y003953D02*
X008187D01*
X008128D01*
Y004307D01*
X008069Y004248D01*
X008446Y000104D02*
Y000616D01*
X008702D01*
X008787Y000531D01*
Y00036D01*
X008702Y000275D01*
X008446D01*
X008617D02*
X008787Y000104D01*
X009299Y000616D02*
X008958D01*
Y000104D01*
X009299D01*
X008958Y00036D02*
X009128D01*
X009811Y000531D02*
X009725Y000616D01*
X009555D01*
X009469Y000531D01*
Y000445D01*
X009555Y00036D01*
X009725D01*
X009811Y000275D01*
Y000189D01*
X009725Y000104D01*
X009555D01*
X009469Y000189D01*
X010322Y000616D02*
X009981D01*
Y000104D01*
X010322D01*
X009981Y00036D02*
X010152D01*
X010493Y000616D02*
X010834D01*
X010663D01*
Y000104D01*
X00047Y014657D02*
Y014303D01*
X000647D01*
X000706Y014362D01*
Y014421D01*
X000647Y01448D01*
X00047D01*
X000647D01*
X000706Y014539D01*
Y014598D01*
X000647Y014657D01*
X00047D01*
X000824Y014303D02*
Y014539D01*
X000942Y014657D01*
X00106Y014539D01*
Y014303D01*
Y01448D01*
X000824D01*
X001178Y014657D02*
X001414D01*
X001296D01*
Y014303D01*
X001532D02*
X00165D01*
X001591D01*
Y014657D01*
X001532Y014598D01*
D13*
X01313Y010826D02*
Y015106D01*
X00866Y010826D02*
X01313D01*
X00866D02*
Y015106D01*
X01313D01*
X01593Y00766D02*
X0176D01*
X01593D02*
Y00831D01*
X0176D01*
Y00766D02*
Y00831D01*
X01809Y00419D02*
Y00589D01*
X01889D01*
Y00419D02*
Y00589D01*
X01809Y00419D02*
X01889D01*
X01849Y00517D02*
Y00534D01*
Y00517D02*
X01876D01*
X01821D02*
X01849D01*
Y00485D02*
X01873Y00484D01*
X01849Y00517D02*
X01873Y00484D01*
X01825Y00485D02*
X01849Y00517D01*
X01825Y00485D02*
X01849D01*
Y00475D02*
Y00485D01*
X0194Y00021D02*
Y00248D01*
X01646Y00021D02*
X0194D01*
X01646D02*
Y00248D01*
X0194D01*
X00113Y01152D02*
Y01153D01*
X00287Y00071D02*
Y00893D01*
X00085D02*
X00287D01*
X00085Y00071D02*
Y00893D01*
Y00071D02*
X00287D01*
D14*
X017097Y004023D02*
Y006857D01*
X01375D02*
X017097D01*
X01375Y004023D02*
Y006857D01*
Y004023D02*
X017097D01*
D15*
X007068Y002693D02*
Y003008D01*
X007225D01*
X007278Y002956D01*
Y002851D01*
X007225Y002798D01*
X007068D01*
X007173D02*
X007278Y002693D01*
X007592Y003008D02*
X007487Y002956D01*
X007382Y002851D01*
Y002746D01*
X007435Y002693D01*
X00754D01*
X007592Y002746D01*
Y002798D01*
X00754Y002851D01*
X007382D01*
D16*
X018383Y013155D02*
X018186D01*
X018088Y013057D01*
Y012663D01*
X018186Y012565D01*
X018383D01*
X018482Y012663D01*
Y013057D01*
X018383Y013155D01*
X018678D02*
Y012565D01*
Y012762D01*
X019072Y013155D01*
X018777Y01286D01*
X019072Y012565D01*
X018088Y009775D02*
Y009283D01*
X018186Y009185D01*
X018383D01*
X018482Y009283D01*
Y009775D01*
X018678Y009185D02*
Y009775D01*
X018974D01*
X019072Y009677D01*
Y00948D01*
X018974Y009382D01*
X018678D01*
M02*
